<?xml version="1.0" encoding="UTF-8" standalone="no"?><svg xmlns="http://www.w3.org/2000/svg" xmlns:xlink="http://www.w3.org/1999/xlink" contentScriptType="application/ecmascript" contentStyleType="text/css" height="759px" preserveAspectRatio="none" style="width:2142px;height:759px;" version="1.1" viewBox="0 0 2142 759" width="2142px" zoomAndPan="magnify"><defs><filter height="300%" id="f9jclk11zawuw" width="300%" x="-1" y="-1"><feGaussianBlur result="blurOut" stdDeviation="2.0"/><feColorMatrix in="blurOut" result="blurOut2" type="matrix" values="0 0 0 0 0 0 0 0 0 0 0 0 0 0 0 0 0 0 .4 0"/><feOffset dx="4.0" dy="4.0" in="blurOut2" result="blurOut3"/><feBlend in="SourceGraphic" in2="blurOut3" mode="normal"/></filter></defs><g><!--MD5=[d6181cb537bdc20c0a3007a98a56832d]
class Student--><rect codeLine="1" fill="#FEFECE" filter="url(#f9jclk11zawuw)" height="240.0703" id="Student" style="stroke: #A80036; stroke-width: 1.5;" width="280" x="221.5" y="20"/><ellipse cx="334.25" cy="36" fill="#ADD1B2" rx="11" ry="11" style="stroke: #A80036; stroke-width: 1.0;"/><path d="M336.5938,31.6719 C335.6563,31.2344 335.0625,31.0938 334.1875,31.0938 C331.5625,31.0938 329.5625,33.1719 329.5625,35.8906 L329.5625,37.0156 C329.5625,39.5938 331.6719,41.4844 334.5625,41.4844 C335.7813,41.4844 336.9375,41.1875 337.6875,40.6406 C338.2656,40.2344 338.5938,39.7813 338.5938,39.3906 C338.5938,38.9375 338.2031,38.5469 337.7344,38.5469 C337.5156,38.5469 337.3125,38.625 337.125,38.8125 C336.6719,39.2969 336.6719,39.2969 336.4844,39.3906 C336.0625,39.6563 335.375,39.7813 334.6094,39.7813 C332.5625,39.7813 331.2656,38.6875 331.2656,36.9844 L331.2656,35.8906 C331.2656,34.1094 332.5156,32.7969 334.25,32.7969 C334.8281,32.7969 335.4375,32.9531 335.9063,33.2031 C336.3906,33.4844 336.5625,33.7031 336.6563,34.1094 C336.7188,34.5156 336.75,34.6406 336.8906,34.7656 C337.0313,34.9063 337.2656,35.0156 337.4844,35.0156 C337.75,35.0156 338.0156,34.875 338.1875,34.6563 C338.2969,34.5 338.3281,34.3125 338.3281,33.8906 L338.3281,32.4688 C338.3281,32.0313 338.3125,31.9063 338.2188,31.75 C338.0625,31.4844 337.7813,31.3438 337.4844,31.3438 C337.1875,31.3438 336.9844,31.4375 336.7656,31.75 L336.5938,31.6719 Z "/><text fill="#000000" font-family="sans-serif" font-size="12" lengthAdjust="spacingAndGlyphs" textLength="46" x="354.75" y="40.1543">Student</text><line style="stroke: #A80036; stroke-width: 1.5;" x1="222.5" x2="500.5" y1="52" y2="52"/><rect fill="none" height="6" style="stroke: #C82930; stroke-width: 1.0;" width="6" x="229.5" y="60"/><text fill="#000000" font-family="sans-serif" font-size="11" lengthAdjust="spacingAndGlyphs" textLength="67" x="241.5" y="66.2104">_id: number</text><rect fill="none" height="6" style="stroke: #C82930; stroke-width: 1.0;" width="6" x="229.5" y="72.8047"/><text fill="#000000" font-family="sans-serif" font-size="11" lengthAdjust="spacingAndGlyphs" textLength="104" x="241.5" y="79.0151">_first_name: string</text><rect fill="none" height="6" style="stroke: #C82930; stroke-width: 1.0;" width="6" x="229.5" y="85.6094"/><text fill="#000000" font-family="sans-serif" font-size="11" lengthAdjust="spacingAndGlyphs" textLength="103" x="241.5" y="91.8198">_last_name: string</text><rect fill="none" height="6" style="stroke: #C82930; stroke-width: 1.0;" width="6" x="229.5" y="98.4141"/><text fill="#000000" font-family="sans-serif" font-size="11" lengthAdjust="spacingAndGlyphs" textLength="76" x="241.5" y="104.6245">_email: string</text><rect fill="none" height="6" style="stroke: #C82930; stroke-width: 1.0;" width="6" x="229.5" y="111.2188"/><text fill="#000000" font-family="sans-serif" font-size="11" lengthAdjust="spacingAndGlyphs" textLength="141" x="241.5" y="117.4292">_permanent_code: string</text><line style="stroke: #A80036; stroke-width: 1.5;" x1="222.5" x2="500.5" y1="124.0234" y2="124.0234"/><ellipse cx="232.5" cy="135.0234" fill="#84BE84" rx="3" ry="3" style="stroke: #038048; stroke-width: 1.0;"/><text fill="#000000" font-family="sans-serif" font-size="11" lengthAdjust="spacingAndGlyphs" textLength="69" x="241.5" y="138.2339">id(): number</text><ellipse cx="232.5" cy="147.8281" fill="#84BE84" rx="3" ry="3" style="stroke: #038048; stroke-width: 1.0;"/><text fill="#000000" font-family="sans-serif" font-size="11" lengthAdjust="spacingAndGlyphs" textLength="79" x="241.5" y="151.0386">name(): string</text><ellipse cx="232.5" cy="160.6328" fill="#84BE84" rx="3" ry="3" style="stroke: #038048; stroke-width: 1.0;"/><text fill="#000000" font-family="sans-serif" font-size="11" lengthAdjust="spacingAndGlyphs" textLength="78" x="241.5" y="163.8433">email(): string</text><ellipse cx="232.5" cy="173.4375" fill="#84BE84" rx="3" ry="3" style="stroke: #038048; stroke-width: 1.0;"/><text fill="#000000" font-family="sans-serif" font-size="11" lengthAdjust="spacingAndGlyphs" textLength="143" x="241.5" y="176.6479">permanent_code(): string</text><ellipse cx="232.5" cy="186.2422" fill="#84BE84" rx="3" ry="3" style="stroke: #038048; stroke-width: 1.0;"/><text fill="#000000" font-family="sans-serif" font-size="11" lengthAdjust="spacingAndGlyphs" textLength="239" x="241.5" y="189.4526">followCourse(course_id: number): boolean</text><ellipse cx="232.5" cy="199.0469" fill="#84BE84" rx="3" ry="3" style="stroke: #038048; stroke-width: 1.0;"/><text fill="#000000" font-family="sans-serif" font-size="11" lengthAdjust="spacingAndGlyphs" textLength="88" x="241.5" y="202.2573">courses(): any[]</text><ellipse cx="232.5" cy="211.8516" fill="#84BE84" rx="3" ry="3" style="stroke: #038048; stroke-width: 1.0;"/><text fill="#000000" font-family="sans-serif" font-size="11" lengthAdjust="spacingAndGlyphs" text-decoration="underline" textLength="231" x="241.5" y="215.062">login(email: string, password: string): any</text><ellipse cx="232.5" cy="224.6563" fill="#84BE84" rx="3" ry="3" style="stroke: #038048; stroke-width: 1.0;"/><text fill="#000000" font-family="sans-serif" font-size="11" lengthAdjust="spacingAndGlyphs" text-decoration="underline" textLength="254" x="241.5" y="227.8667">loginV2(email: string, password: string): any[]</text><ellipse cx="232.5" cy="237.4609" fill="#84BE84" rx="3" ry="3" style="stroke: #038048; stroke-width: 1.0;"/><text fill="#000000" font-family="sans-serif" font-size="11" lengthAdjust="spacingAndGlyphs" text-decoration="underline" textLength="157" x="241.5" y="240.6714">fromId(id: number): Student</text><ellipse cx="232.5" cy="250.2656" fill="#84BE84" rx="3" ry="3" style="stroke: #038048; stroke-width: 1.0;"/><text fill="#000000" font-family="sans-serif" font-size="11" lengthAdjust="spacingAndGlyphs" text-decoration="underline" textLength="191" x="241.5" y="253.4761">fromToken(token: string): Student</text><!--MD5=[4066b0363c5a91ff3b6e03e0428953a9]
class Course--><rect codeLine="18" fill="#FEFECE" filter="url(#f9jclk11zawuw)" height="265.6797" id="Course" style="stroke: #A80036; stroke-width: 1.5;" width="209" x="537" y="7"/><ellipse cx="615.75" cy="23" fill="#ADD1B2" rx="11" ry="11" style="stroke: #A80036; stroke-width: 1.0;"/><path d="M618.0938,18.6719 C617.1563,18.2344 616.5625,18.0938 615.6875,18.0938 C613.0625,18.0938 611.0625,20.1719 611.0625,22.8906 L611.0625,24.0156 C611.0625,26.5938 613.1719,28.4844 616.0625,28.4844 C617.2813,28.4844 618.4375,28.1875 619.1875,27.6406 C619.7656,27.2344 620.0938,26.7813 620.0938,26.3906 C620.0938,25.9375 619.7031,25.5469 619.2344,25.5469 C619.0156,25.5469 618.8125,25.625 618.625,25.8125 C618.1719,26.2969 618.1719,26.2969 617.9844,26.3906 C617.5625,26.6563 616.875,26.7813 616.1094,26.7813 C614.0625,26.7813 612.7656,25.6875 612.7656,23.9844 L612.7656,22.8906 C612.7656,21.1094 614.0156,19.7969 615.75,19.7969 C616.3281,19.7969 616.9375,19.9531 617.4063,20.2031 C617.8906,20.4844 618.0625,20.7031 618.1563,21.1094 C618.2188,21.5156 618.25,21.6406 618.3906,21.7656 C618.5313,21.9063 618.7656,22.0156 618.9844,22.0156 C619.25,22.0156 619.5156,21.875 619.6875,21.6563 C619.7969,21.5 619.8281,21.3125 619.8281,20.8906 L619.8281,19.4688 C619.8281,19.0313 619.8125,18.9063 619.7188,18.75 C619.5625,18.4844 619.2813,18.3438 618.9844,18.3438 C618.6875,18.3438 618.4844,18.4375 618.2656,18.75 L618.0938,18.6719 Z "/><text fill="#000000" font-family="sans-serif" font-size="12" lengthAdjust="spacingAndGlyphs" textLength="43" x="636.25" y="27.1543">Course</text><line style="stroke: #A80036; stroke-width: 1.5;" x1="538" x2="745" y1="39" y2="39"/><rect fill="none" height="6" style="stroke: #C82930; stroke-width: 1.0;" width="6" x="545" y="47"/><text fill="#000000" font-family="sans-serif" font-size="11" lengthAdjust="spacingAndGlyphs" textLength="67" x="557" y="53.2104">_id: number</text><rect fill="none" height="6" style="stroke: #C82930; stroke-width: 1.0;" width="6" x="545" y="59.8047"/><text fill="#000000" font-family="sans-serif" font-size="11" lengthAdjust="spacingAndGlyphs" textLength="71" x="557" y="66.0151">_sigle: string</text><rect fill="none" height="6" style="stroke: #C82930; stroke-width: 1.0;" width="6" x="545" y="72.6094"/><text fill="#000000" font-family="sans-serif" font-size="11" lengthAdjust="spacingAndGlyphs" textLength="151" x="557" y="78.8198">_nb_max_student: number</text><rect fill="none" height="6" style="stroke: #C82930; stroke-width: 1.0;" width="6" x="545" y="85.4141"/><text fill="#000000" font-family="sans-serif" font-size="11" lengthAdjust="spacingAndGlyphs" textLength="84" x="557" y="91.6245">_groupe: string</text><rect fill="none" height="6" style="stroke: #C82930; stroke-width: 1.0;" width="6" x="545" y="98.2188"/><text fill="#000000" font-family="sans-serif" font-size="11" lengthAdjust="spacingAndGlyphs" textLength="67" x="557" y="104.4292">_titre: string</text><rect fill="none" height="6" style="stroke: #C82930; stroke-width: 1.0;" width="6" x="545" y="111.0234"/><text fill="#000000" font-family="sans-serif" font-size="11" lengthAdjust="spacingAndGlyphs" textLength="109" x="557" y="117.2339">_date_debut: string</text><rect fill="none" height="6" style="stroke: #C82930; stroke-width: 1.0;" width="6" x="545" y="123.8281"/><text fill="#000000" font-family="sans-serif" font-size="11" lengthAdjust="spacingAndGlyphs" textLength="90" x="557" y="130.0386">_date_fin: string</text><line style="stroke: #A80036; stroke-width: 1.5;" x1="538" x2="745" y1="136.6328" y2="136.6328"/><ellipse cx="548" cy="147.6328" fill="#84BE84" rx="3" ry="3" style="stroke: #038048; stroke-width: 1.0;"/><text fill="#000000" font-family="sans-serif" font-size="11" lengthAdjust="spacingAndGlyphs" textLength="69" x="557" y="150.8433">id(): number</text><ellipse cx="548" cy="160.4375" fill="#84BE84" rx="3" ry="3" style="stroke: #038048; stroke-width: 1.0;"/><text fill="#000000" font-family="sans-serif" font-size="11" lengthAdjust="spacingAndGlyphs" textLength="73" x="557" y="163.6479">sigle(): string</text><ellipse cx="548" cy="173.2422" fill="#84BE84" rx="3" ry="3" style="stroke: #038048; stroke-width: 1.0;"/><text fill="#000000" font-family="sans-serif" font-size="11" lengthAdjust="spacingAndGlyphs" textLength="153" x="557" y="176.4526">nb_max_student(): number</text><ellipse cx="548" cy="186.0469" fill="#84BE84" rx="3" ry="3" style="stroke: #038048; stroke-width: 1.0;"/><text fill="#000000" font-family="sans-serif" font-size="11" lengthAdjust="spacingAndGlyphs" textLength="86" x="557" y="189.2573">groupe(): string</text><ellipse cx="548" cy="198.8516" fill="#84BE84" rx="3" ry="3" style="stroke: #038048; stroke-width: 1.0;"/><text fill="#000000" font-family="sans-serif" font-size="11" lengthAdjust="spacingAndGlyphs" textLength="69" x="557" y="202.062">titre(): string</text><ellipse cx="548" cy="211.6563" fill="#84BE84" rx="3" ry="3" style="stroke: #038048; stroke-width: 1.0;"/><text fill="#000000" font-family="sans-serif" font-size="11" lengthAdjust="spacingAndGlyphs" textLength="111" x="557" y="214.8667">date_debut(): string</text><ellipse cx="548" cy="224.4609" fill="#84BE84" rx="3" ry="3" style="stroke: #038048; stroke-width: 1.0;"/><text fill="#000000" font-family="sans-serif" font-size="11" lengthAdjust="spacingAndGlyphs" textLength="92" x="557" y="227.6714">date_fin(): string</text><ellipse cx="548" cy="237.2656" fill="#84BE84" rx="3" ry="3" style="stroke: #038048; stroke-width: 1.0;"/><text fill="#000000" font-family="sans-serif" font-size="11" lengthAdjust="spacingAndGlyphs" textLength="93" x="557" y="240.4761">students(): any[]</text><ellipse cx="548" cy="250.0703" fill="#84BE84" rx="3" ry="3" style="stroke: #038048; stroke-width: 1.0;"/><text fill="#000000" font-family="sans-serif" font-size="11" lengthAdjust="spacingAndGlyphs" text-decoration="underline" textLength="152" x="557" y="253.2808">fromId(id: number): Course</text><ellipse cx="548" cy="262.875" fill="#84BE84" rx="3" ry="3" style="stroke: #038048; stroke-width: 1.0;"/><text fill="#000000" font-family="sans-serif" font-size="11" lengthAdjust="spacingAndGlyphs" text-decoration="underline" textLength="183" x="557" y="266.0854">fromSigle(sigle: string): Course[]</text><!--MD5=[61a83f88cb8b7d3a80bc8c481f3736bf]
class Teacher--><rect codeLine="37" fill="#FEFECE" filter="url(#f9jclk11zawuw)" height="214.4609" id="Teacher" style="stroke: #A80036; stroke-width: 1.5;" width="280" x="781.5" y="33"/><ellipse cx="892.75" cy="49" fill="#ADD1B2" rx="11" ry="11" style="stroke: #A80036; stroke-width: 1.0;"/><path d="M895.0938,44.6719 C894.1563,44.2344 893.5625,44.0938 892.6875,44.0938 C890.0625,44.0938 888.0625,46.1719 888.0625,48.8906 L888.0625,50.0156 C888.0625,52.5938 890.1719,54.4844 893.0625,54.4844 C894.2813,54.4844 895.4375,54.1875 896.1875,53.6406 C896.7656,53.2344 897.0938,52.7813 897.0938,52.3906 C897.0938,51.9375 896.7031,51.5469 896.2344,51.5469 C896.0156,51.5469 895.8125,51.625 895.625,51.8125 C895.1719,52.2969 895.1719,52.2969 894.9844,52.3906 C894.5625,52.6563 893.875,52.7813 893.1094,52.7813 C891.0625,52.7813 889.7656,51.6875 889.7656,49.9844 L889.7656,48.8906 C889.7656,47.1094 891.0156,45.7969 892.75,45.7969 C893.3281,45.7969 893.9375,45.9531 894.4063,46.2031 C894.8906,46.4844 895.0625,46.7031 895.1563,47.1094 C895.2188,47.5156 895.25,47.6406 895.3906,47.7656 C895.5313,47.9063 895.7656,48.0156 895.9844,48.0156 C896.25,48.0156 896.5156,47.875 896.6875,47.6563 C896.7969,47.5 896.8281,47.3125 896.8281,46.8906 L896.8281,45.4688 C896.8281,45.0313 896.8125,44.9063 896.7188,44.75 C896.5625,44.4844 896.2813,44.3438 895.9844,44.3438 C895.6875,44.3438 895.4844,44.4375 895.2656,44.75 L895.0938,44.6719 Z "/><text fill="#000000" font-family="sans-serif" font-size="12" lengthAdjust="spacingAndGlyphs" textLength="49" x="913.25" y="53.1543">Teacher</text><line style="stroke: #A80036; stroke-width: 1.5;" x1="782.5" x2="1060.5" y1="65" y2="65"/><rect fill="none" height="6" style="stroke: #C82930; stroke-width: 1.0;" width="6" x="789.5" y="73"/><text fill="#000000" font-family="sans-serif" font-size="11" lengthAdjust="spacingAndGlyphs" textLength="67" x="801.5" y="79.2104">_id: number</text><rect fill="none" height="6" style="stroke: #C82930; stroke-width: 1.0;" width="6" x="789.5" y="85.8047"/><text fill="#000000" font-family="sans-serif" font-size="11" lengthAdjust="spacingAndGlyphs" textLength="104" x="801.5" y="92.0151">_first_name: string</text><rect fill="none" height="6" style="stroke: #C82930; stroke-width: 1.0;" width="6" x="789.5" y="98.6094"/><text fill="#000000" font-family="sans-serif" font-size="11" lengthAdjust="spacingAndGlyphs" textLength="103" x="801.5" y="104.8198">_last_name: string</text><rect fill="none" height="6" style="stroke: #C82930; stroke-width: 1.0;" width="6" x="789.5" y="111.4141"/><text fill="#000000" font-family="sans-serif" font-size="11" lengthAdjust="spacingAndGlyphs" textLength="76" x="801.5" y="117.6245">_email: string</text><line style="stroke: #A80036; stroke-width: 1.5;" x1="782.5" x2="1060.5" y1="124.2188" y2="124.2188"/><ellipse cx="792.5" cy="135.2188" fill="#84BE84" rx="3" ry="3" style="stroke: #038048; stroke-width: 1.0;"/><text fill="#000000" font-family="sans-serif" font-size="11" lengthAdjust="spacingAndGlyphs" textLength="69" x="801.5" y="138.4292">id(): number</text><ellipse cx="792.5" cy="148.0234" fill="#84BE84" rx="3" ry="3" style="stroke: #038048; stroke-width: 1.0;"/><text fill="#000000" font-family="sans-serif" font-size="11" lengthAdjust="spacingAndGlyphs" textLength="79" x="801.5" y="151.2339">name(): string</text><ellipse cx="792.5" cy="160.8281" fill="#84BE84" rx="3" ry="3" style="stroke: #038048; stroke-width: 1.0;"/><text fill="#000000" font-family="sans-serif" font-size="11" lengthAdjust="spacingAndGlyphs" textLength="78" x="801.5" y="164.0386">email(): string</text><ellipse cx="792.5" cy="173.6328" fill="#84BE84" rx="3" ry="3" style="stroke: #038048; stroke-width: 1.0;"/><text fill="#000000" font-family="sans-serif" font-size="11" lengthAdjust="spacingAndGlyphs" textLength="231" x="801.5" y="176.8433">giveCourse(course_id: number): boolean</text><ellipse cx="792.5" cy="186.4375" fill="#84BE84" rx="3" ry="3" style="stroke: #038048; stroke-width: 1.0;"/><text fill="#000000" font-family="sans-serif" font-size="11" lengthAdjust="spacingAndGlyphs" textLength="88" x="801.5" y="189.6479">courses(): any[]</text><ellipse cx="792.5" cy="199.2422" fill="#84BE84" rx="3" ry="3" style="stroke: #038048; stroke-width: 1.0;"/><text fill="#000000" font-family="sans-serif" font-size="11" lengthAdjust="spacingAndGlyphs" text-decoration="underline" textLength="231" x="801.5" y="202.4526">login(email: string, password: string): any</text><ellipse cx="792.5" cy="212.0469" fill="#84BE84" rx="3" ry="3" style="stroke: #038048; stroke-width: 1.0;"/><text fill="#000000" font-family="sans-serif" font-size="11" lengthAdjust="spacingAndGlyphs" text-decoration="underline" textLength="254" x="801.5" y="215.2573">loginV2(email: string, password: string): any[]</text><ellipse cx="792.5" cy="224.8516" fill="#84BE84" rx="3" ry="3" style="stroke: #038048; stroke-width: 1.0;"/><text fill="#000000" font-family="sans-serif" font-size="11" lengthAdjust="spacingAndGlyphs" text-decoration="underline" textLength="159" x="801.5" y="228.062">fromId(id: number): Teacher</text><ellipse cx="792.5" cy="237.6563" fill="#84BE84" rx="3" ry="3" style="stroke: #038048; stroke-width: 1.0;"/><text fill="#000000" font-family="sans-serif" font-size="11" lengthAdjust="spacingAndGlyphs" text-decoration="underline" textLength="193" x="801.5" y="240.8667">fromToken(token: string): Teacher</text><!--MD5=[1ce39445860496db20ab3bb656f84ed9]
class Notes--><rect codeLine="52" fill="#FEFECE" filter="url(#f9jclk11zawuw)" height="112.0234" id="Notes" style="stroke: #A80036; stroke-width: 1.5;" width="560" x="81.5" y="397"/><ellipse cx="339.75" cy="413" fill="#ADD1B2" rx="11" ry="11" style="stroke: #A80036; stroke-width: 1.0;"/><path d="M342.0938,408.6719 C341.1563,408.2344 340.5625,408.0938 339.6875,408.0938 C337.0625,408.0938 335.0625,410.1719 335.0625,412.8906 L335.0625,414.0156 C335.0625,416.5938 337.1719,418.4844 340.0625,418.4844 C341.2813,418.4844 342.4375,418.1875 343.1875,417.6406 C343.7656,417.2344 344.0938,416.7813 344.0938,416.3906 C344.0938,415.9375 343.7031,415.5469 343.2344,415.5469 C343.0156,415.5469 342.8125,415.625 342.625,415.8125 C342.1719,416.2969 342.1719,416.2969 341.9844,416.3906 C341.5625,416.6563 340.875,416.7813 340.1094,416.7813 C338.0625,416.7813 336.7656,415.6875 336.7656,413.9844 L336.7656,412.8906 C336.7656,411.1094 338.0156,409.7969 339.75,409.7969 C340.3281,409.7969 340.9375,409.9531 341.4063,410.2031 C341.8906,410.4844 342.0625,410.7031 342.1563,411.1094 C342.2188,411.5156 342.25,411.6406 342.3906,411.7656 C342.5313,411.9063 342.7656,412.0156 342.9844,412.0156 C343.25,412.0156 343.5156,411.875 343.6875,411.6563 C343.7969,411.5 343.8281,411.3125 343.8281,410.8906 L343.8281,409.4688 C343.8281,409.0313 343.8125,408.9063 343.7188,408.75 C343.5625,408.4844 343.2813,408.3438 342.9844,408.3438 C342.6875,408.3438 342.4844,408.4375 342.2656,408.75 L342.0938,408.6719 Z "/><text fill="#000000" font-family="sans-serif" font-size="12" lengthAdjust="spacingAndGlyphs" textLength="35" x="360.25" y="417.1543">Notes</text><line style="stroke: #A80036; stroke-width: 1.5;" x1="82.5" x2="640.5" y1="429" y2="429"/><ellipse cx="92.5" cy="440" fill="none" rx="3" ry="3" style="stroke: #038048; stroke-width: 1.0;"/><text fill="#000000" font-family="sans-serif" font-size="11" lengthAdjust="spacingAndGlyphs" textLength="81" x="101.5" y="443.2104">multimap: any</text><line style="stroke: #A80036; stroke-width: 1.5;" x1="82.5" x2="640.5" y1="449.8047" y2="449.8047"/><ellipse cx="92.5" cy="460.8047" fill="#84BE84" rx="3" ry="3" style="stroke: #038048; stroke-width: 1.0;"/><text fill="#000000" font-family="sans-serif" font-size="11" lengthAdjust="spacingAndGlyphs" textLength="534" x="101.5" y="464.0151">set(student_id: number, course_id: number, type: string, type_id: number, note: number): void</text><ellipse cx="92.5" cy="473.6094" fill="#84BE84" rx="3" ry="3" style="stroke: #038048; stroke-width: 1.0;"/><text fill="#000000" font-family="sans-serif" font-size="11" lengthAdjust="spacingAndGlyphs" textLength="189" x="101.5" y="476.8198">student(student_id: number): any</text><ellipse cx="92.5" cy="486.4141" fill="#84BE84" rx="3" ry="3" style="stroke: #038048; stroke-width: 1.0;"/><text fill="#000000" font-family="sans-serif" font-size="11" lengthAdjust="spacingAndGlyphs" textLength="187" x="101.5" y="489.6245">course(course_id: number): any[]</text><ellipse cx="92.5" cy="499.2188" fill="#84BE84" rx="3" ry="3" style="stroke: #038048; stroke-width: 1.0;"/><text fill="#000000" font-family="sans-serif" font-size="11" lengthAdjust="spacingAndGlyphs" textLength="67" x="101.5" y="502.4292">clear(): void</text><!--MD5=[22d58370f47e4cafc385362740e0db85]
class SgbController--><rect codeLine="59" fill="#FEFECE" filter="url(#f9jclk11zawuw)" height="201.6563" id="SgbController" style="stroke: #A80036; stroke-width: 1.5;" width="645" x="677" y="352"/><ellipse cx="953.75" cy="368" fill="#ADD1B2" rx="11" ry="11" style="stroke: #A80036; stroke-width: 1.0;"/><path d="M956.0938,363.6719 C955.1563,363.2344 954.5625,363.0938 953.6875,363.0938 C951.0625,363.0938 949.0625,365.1719 949.0625,367.8906 L949.0625,369.0156 C949.0625,371.5938 951.1719,373.4844 954.0625,373.4844 C955.2813,373.4844 956.4375,373.1875 957.1875,372.6406 C957.7656,372.2344 958.0938,371.7813 958.0938,371.3906 C958.0938,370.9375 957.7031,370.5469 957.2344,370.5469 C957.0156,370.5469 956.8125,370.625 956.625,370.8125 C956.1719,371.2969 956.1719,371.2969 955.9844,371.3906 C955.5625,371.6563 954.875,371.7813 954.1094,371.7813 C952.0625,371.7813 950.7656,370.6875 950.7656,368.9844 L950.7656,367.8906 C950.7656,366.1094 952.0156,364.7969 953.75,364.7969 C954.3281,364.7969 954.9375,364.9531 955.4063,365.2031 C955.8906,365.4844 956.0625,365.7031 956.1563,366.1094 C956.2188,366.5156 956.25,366.6406 956.3906,366.7656 C956.5313,366.9063 956.7656,367.0156 956.9844,367.0156 C957.25,367.0156 957.5156,366.875 957.6875,366.6563 C957.7969,366.5 957.8281,366.3125 957.8281,365.8906 L957.8281,364.4688 C957.8281,364.0313 957.8125,363.9063 957.7188,363.75 C957.5625,363.4844 957.2813,363.3438 956.9844,363.3438 C956.6875,363.3438 956.4844,363.4375 956.2656,363.75 L956.0938,363.6719 Z "/><text fill="#000000" font-family="sans-serif" font-size="12" lengthAdjust="spacingAndGlyphs" textLength="83" x="974.25" y="372.1543">SgbController</text><line style="stroke: #A80036; stroke-width: 1.5;" x1="678" x2="1321" y1="384" y2="384"/><ellipse cx="688" cy="395" fill="none" rx="3" ry="3" style="stroke: #038048; stroke-width: 1.0;"/><text fill="#000000" font-family="sans-serif" font-size="11" lengthAdjust="spacingAndGlyphs" textLength="81" x="697" y="398.2104">multimap: any</text><ellipse cx="688" cy="407.8047" fill="none" rx="3" ry="3" style="stroke: #038048; stroke-width: 1.0;"/><text fill="#000000" font-family="sans-serif" font-size="11" lengthAdjust="spacingAndGlyphs" textLength="72" x="697" y="411.0151">notes: Notes</text><line style="stroke: #A80036; stroke-width: 1.5;" x1="678" x2="1321" y1="417.6094" y2="417.6094"/><ellipse cx="688" cy="428.6094" fill="#84BE84" rx="3" ry="3" style="stroke: #038048; stroke-width: 1.0;"/><text fill="#000000" font-family="sans-serif" font-size="11" lengthAdjust="spacingAndGlyphs" textLength="231" x="697" y="431.8198">login(email: string, password: string): any</text><ellipse cx="688" cy="441.4141" fill="#84BE84" rx="3" ry="3" style="stroke: #038048; stroke-width: 1.0;"/><text fill="#000000" font-family="sans-serif" font-size="11" lengthAdjust="spacingAndGlyphs" textLength="254" x="697" y="444.6245">loginV2(email: string, password: string): any[]</text><ellipse cx="688" cy="454.2188" fill="#84BE84" rx="3" ry="3" style="stroke: #038048; stroke-width: 1.0;"/><text fill="#000000" font-family="sans-serif" font-size="11" lengthAdjust="spacingAndGlyphs" textLength="160" x="697" y="457.4292">courses(token: string): string</text><ellipse cx="688" cy="467.0234" fill="#84BE84" rx="3" ry="3" style="stroke: #038048; stroke-width: 1.0;"/><text fill="#000000" font-family="sans-serif" font-size="11" lengthAdjust="spacingAndGlyphs" textLength="277" x="697" y="470.2339">students(token: string, course_id: number): string</text><ellipse cx="688" cy="479.8281" fill="#84BE84" rx="3" ry="3" style="stroke: #038048; stroke-width: 1.0;"/><text fill="#000000" font-family="sans-serif" font-size="11" lengthAdjust="spacingAndGlyphs" textLength="619" x="697" y="483.0386">note(token: string, student_id: number, course_id: number, type: string, type_id: number, note: number): void</text><ellipse cx="688" cy="492.6328" fill="#84BE84" rx="3" ry="3" style="stroke: #038048; stroke-width: 1.0;"/><text fill="#000000" font-family="sans-serif" font-size="11" lengthAdjust="spacingAndGlyphs" textLength="530" x="697" y="495.8433">studentNote(token: string, course: number, type: string, type_id: number, note: number): void</text><ellipse cx="688" cy="505.4375" fill="#84BE84" rx="3" ry="3" style="stroke: #038048; stroke-width: 1.0;"/><text fill="#000000" font-family="sans-serif" font-size="11" lengthAdjust="spacingAndGlyphs" textLength="182" x="697" y="508.6479">studentNotes(token: string): any</text><ellipse cx="688" cy="518.2422" fill="#84BE84" rx="3" ry="3" style="stroke: #038048; stroke-width: 1.0;"/><text fill="#000000" font-family="sans-serif" font-size="11" lengthAdjust="spacingAndGlyphs" textLength="205" x="697" y="521.4526">studentCourses(token: string): string</text><ellipse cx="688" cy="531.0469" fill="#84BE84" rx="3" ry="3" style="stroke: #038048; stroke-width: 1.0;"/><text fill="#000000" font-family="sans-serif" font-size="11" lengthAdjust="spacingAndGlyphs" textLength="297" x="697" y="534.2573">courseNotes(token: string, course_id: number): any[]</text><ellipse cx="688" cy="543.8516" fill="#84BE84" rx="3" ry="3" style="stroke: #038048; stroke-width: 1.0;"/><text fill="#000000" font-family="sans-serif" font-size="11" lengthAdjust="spacingAndGlyphs" textLength="170" x="697" y="547.062">clearNotes(token: string): void</text><!--MD5=[b36685707a3c400e8e14931b37eb17dc]
class SgbRouter--><rect codeLine="73" fill="#FEFECE" filter="url(#f9jclk11zawuw)" height="240.0703" id="SgbRouter" style="stroke: #A80036; stroke-width: 1.5;" width="771" x="1357" y="333"/><ellipse cx="1706.75" cy="349" fill="#ADD1B2" rx="11" ry="11" style="stroke: #A80036; stroke-width: 1.0;"/><path d="M1709.0938,344.6719 C1708.1563,344.2344 1707.5625,344.0938 1706.6875,344.0938 C1704.0625,344.0938 1702.0625,346.1719 1702.0625,348.8906 L1702.0625,350.0156 C1702.0625,352.5938 1704.1719,354.4844 1707.0625,354.4844 C1708.2813,354.4844 1709.4375,354.1875 1710.1875,353.6406 C1710.7656,353.2344 1711.0938,352.7813 1711.0938,352.3906 C1711.0938,351.9375 1710.7031,351.5469 1710.2344,351.5469 C1710.0156,351.5469 1709.8125,351.625 1709.625,351.8125 C1709.1719,352.2969 1709.1719,352.2969 1708.9844,352.3906 C1708.5625,352.6563 1707.875,352.7813 1707.1094,352.7813 C1705.0625,352.7813 1703.7656,351.6875 1703.7656,349.9844 L1703.7656,348.8906 C1703.7656,347.1094 1705.0156,345.7969 1706.75,345.7969 C1707.3281,345.7969 1707.9375,345.9531 1708.4063,346.2031 C1708.8906,346.4844 1709.0625,346.7031 1709.1563,347.1094 C1709.2188,347.5156 1709.25,347.6406 1709.3906,347.7656 C1709.5313,347.9063 1709.7656,348.0156 1709.9844,348.0156 C1710.25,348.0156 1710.5156,347.875 1710.6875,347.6563 C1710.7969,347.5 1710.8281,347.3125 1710.8281,346.8906 L1710.8281,345.4688 C1710.8281,345.0313 1710.8125,344.9063 1710.7188,344.75 C1710.5625,344.4844 1710.2813,344.3438 1709.9844,344.3438 C1709.6875,344.3438 1709.4844,344.4375 1709.2656,344.75 L1709.0938,344.6719 Z "/><text fill="#000000" font-family="sans-serif" font-size="12" lengthAdjust="spacingAndGlyphs" textLength="63" x="1727.25" y="353.1543">SgbRouter</text><line style="stroke: #A80036; stroke-width: 1.5;" x1="1358" x2="2127" y1="365" y2="365"/><ellipse cx="1368" cy="376" fill="none" rx="3" ry="3" style="stroke: #038048; stroke-width: 1.0;"/><text fill="#000000" font-family="sans-serif" font-size="11" lengthAdjust="spacingAndGlyphs" textLength="78" x="1377" y="379.2104">router: Router</text><ellipse cx="1368" cy="388.8047" fill="none" rx="3" ry="3" style="stroke: #038048; stroke-width: 1.0;"/><text fill="#000000" font-family="sans-serif" font-size="11" lengthAdjust="spacingAndGlyphs" textLength="137" x="1377" y="392.0151">controller: SgbController</text><ellipse cx="1368" cy="401.6094" fill="none" rx="3" ry="3" style="stroke: #038048; stroke-width: 1.0;"/><text fill="#000000" font-family="sans-serif" font-size="11" lengthAdjust="spacingAndGlyphs" textLength="133" x="1377" y="404.8198">router_latency: number</text><line style="stroke: #A80036; stroke-width: 1.5;" x1="1358" x2="2127" y1="411.4141" y2="411.4141"/><ellipse cx="1368" cy="422.4141" fill="#84BE84" rx="3" ry="3" style="stroke: #038048; stroke-width: 1.0;"/><text fill="#000000" font-family="sans-serif" font-size="11" lengthAdjust="spacingAndGlyphs" textLength="700" x="1377" y="425.6245">courses(req: Request&lt;ParamsDictionary, any, any, QueryString.ParsedQs&gt;, res: Response&lt;any&gt;, next: NextFunction): void</text><ellipse cx="1368" cy="435.2188" fill="#84BE84" rx="3" ry="3" style="stroke: #038048; stroke-width: 1.0;"/><text fill="#000000" font-family="sans-serif" font-size="11" lengthAdjust="spacingAndGlyphs" textLength="705" x="1377" y="438.4292">students(req: Request&lt;ParamsDictionary, any, any, QueryString.ParsedQs&gt;, res: Response&lt;any&gt;, next: NextFunction): void</text><ellipse cx="1368" cy="448.0234" fill="#84BE84" rx="3" ry="3" style="stroke: #038048; stroke-width: 1.0;"/><text fill="#000000" font-family="sans-serif" font-size="11" lengthAdjust="spacingAndGlyphs" textLength="682" x="1377" y="451.2339">note(req: Request&lt;ParamsDictionary, any, any, QueryString.ParsedQs&gt;, res: Response&lt;any&gt;, next: NextFunction): void</text><ellipse cx="1368" cy="460.8281" fill="#84BE84" rx="3" ry="3" style="stroke: #038048; stroke-width: 1.0;"/><text fill="#000000" font-family="sans-serif" font-size="11" lengthAdjust="spacingAndGlyphs" textLength="726" x="1377" y="464.0386">studentNote(req: Request&lt;ParamsDictionary, any, any, QueryString.ParsedQs&gt;, res: Response&lt;any&gt;, next: NextFunction): void</text><ellipse cx="1368" cy="473.6328" fill="#84BE84" rx="3" ry="3" style="stroke: #038048; stroke-width: 1.0;"/><text fill="#000000" font-family="sans-serif" font-size="11" lengthAdjust="spacingAndGlyphs" textLength="732" x="1377" y="476.8433">studentNotes(req: Request&lt;ParamsDictionary, any, any, QueryString.ParsedQs&gt;, res: Response&lt;any&gt;, next: NextFunction): void</text><ellipse cx="1368" cy="486.4375" fill="#84BE84" rx="3" ry="3" style="stroke: #038048; stroke-width: 1.0;"/><text fill="#000000" font-family="sans-serif" font-size="11" lengthAdjust="spacingAndGlyphs" textLength="745" x="1377" y="489.6479">studentCourses(req: Request&lt;ParamsDictionary, any, any, QueryString.ParsedQs&gt;, res: Response&lt;any&gt;, next: NextFunction): void</text><ellipse cx="1368" cy="499.2422" fill="#84BE84" rx="3" ry="3" style="stroke: #038048; stroke-width: 1.0;"/><text fill="#000000" font-family="sans-serif" font-size="11" lengthAdjust="spacingAndGlyphs" textLength="727" x="1377" y="502.4526">courseNotes(req: Request&lt;ParamsDictionary, any, any, QueryString.ParsedQs&gt;, res: Response&lt;any&gt;, next: NextFunction): void</text><ellipse cx="1368" cy="512.0469" fill="#84BE84" rx="3" ry="3" style="stroke: #038048; stroke-width: 1.0;"/><text fill="#000000" font-family="sans-serif" font-size="11" lengthAdjust="spacingAndGlyphs" textLength="683" x="1377" y="515.2573">login(req: Request&lt;ParamsDictionary, any, any, QueryString.ParsedQs&gt;, res: Response&lt;any&gt;, next: NextFunction): void</text><ellipse cx="1368" cy="524.8516" fill="#84BE84" rx="3" ry="3" style="stroke: #038048; stroke-width: 1.0;"/><text fill="#000000" font-family="sans-serif" font-size="11" lengthAdjust="spacingAndGlyphs" textLength="717" x="1377" y="528.062">clearNotes(req: Request&lt;ParamsDictionary, any, any, QueryString.ParsedQs&gt;, res: Response&lt;any&gt;, next: NextFunction): void</text><ellipse cx="1368" cy="537.6563" fill="#84BE84" rx="3" ry="3" style="stroke: #038048; stroke-width: 1.0;"/><text fill="#000000" font-family="sans-serif" font-size="11" lengthAdjust="spacingAndGlyphs" textLength="698" x="1377" y="540.8667">latency(req: Request&lt;ParamsDictionary, any, any, QueryString.ParsedQs&gt;, res: Response&lt;any&gt;, next: NextFunction): void</text><ellipse cx="1368" cy="550.4609" fill="#84BE84" rx="3" ry="3" style="stroke: #038048; stroke-width: 1.0;"/><text fill="#000000" font-family="sans-serif" font-size="11" lengthAdjust="spacingAndGlyphs" textLength="140" x="1377" y="553.6714">generate_latency(): void</text><ellipse cx="1368" cy="563.2656" fill="#84BE84" rx="3" ry="3" style="stroke: #038048; stroke-width: 1.0;"/><text fill="#000000" font-family="sans-serif" font-size="11" lengthAdjust="spacingAndGlyphs" textLength="56" x="1377" y="566.4761">init(): void</text><!--MD5=[f20571c7e97312ffad1eb0f71f2eef7f]
class SgbRouterV2--><rect codeLine="90" fill="#FEFECE" filter="url(#f9jclk11zawuw)" height="112.0234" id="SgbRouterV2" style="stroke: #A80036; stroke-width: 1.5;" width="709" x="7" y="633"/><ellipse cx="317.75" cy="649" fill="#ADD1B2" rx="11" ry="11" style="stroke: #A80036; stroke-width: 1.0;"/><path d="M320.0938,644.6719 C319.1563,644.2344 318.5625,644.0938 317.6875,644.0938 C315.0625,644.0938 313.0625,646.1719 313.0625,648.8906 L313.0625,650.0156 C313.0625,652.5938 315.1719,654.4844 318.0625,654.4844 C319.2813,654.4844 320.4375,654.1875 321.1875,653.6406 C321.7656,653.2344 322.0938,652.7813 322.0938,652.3906 C322.0938,651.9375 321.7031,651.5469 321.2344,651.5469 C321.0156,651.5469 320.8125,651.625 320.625,651.8125 C320.1719,652.2969 320.1719,652.2969 319.9844,652.3906 C319.5625,652.6563 318.875,652.7813 318.1094,652.7813 C316.0625,652.7813 314.7656,651.6875 314.7656,649.9844 L314.7656,648.8906 C314.7656,647.1094 316.0156,645.7969 317.75,645.7969 C318.3281,645.7969 318.9375,645.9531 319.4063,646.2031 C319.8906,646.4844 320.0625,646.7031 320.1563,647.1094 C320.2188,647.5156 320.25,647.6406 320.3906,647.7656 C320.5313,647.9063 320.7656,648.0156 320.9844,648.0156 C321.25,648.0156 321.5156,647.875 321.6875,647.6563 C321.7969,647.5 321.8281,647.3125 321.8281,646.8906 L321.8281,645.4688 C321.8281,645.0313 321.8125,644.9063 321.7188,644.75 C321.5625,644.4844 321.2813,644.3438 320.9844,644.3438 C320.6875,644.3438 320.4844,644.4375 320.2656,644.75 L320.0938,644.6719 Z "/><text fill="#000000" font-family="sans-serif" font-size="12" lengthAdjust="spacingAndGlyphs" textLength="79" x="338.25" y="653.1543">SgbRouterV2</text><line style="stroke: #A80036; stroke-width: 1.5;" x1="8" x2="715" y1="665" y2="665"/><ellipse cx="18" cy="676" fill="none" rx="3" ry="3" style="stroke: #038048; stroke-width: 1.0;"/><text fill="#000000" font-family="sans-serif" font-size="11" lengthAdjust="spacingAndGlyphs" textLength="78" x="27" y="679.2104">router: Router</text><ellipse cx="18" cy="688.8047" fill="none" rx="3" ry="3" style="stroke: #038048; stroke-width: 1.0;"/><text fill="#000000" font-family="sans-serif" font-size="11" lengthAdjust="spacingAndGlyphs" textLength="137" x="27" y="692.0151">controller: SgbController</text><ellipse cx="18" cy="701.6094" fill="none" rx="3" ry="3" style="stroke: #038048; stroke-width: 1.0;"/><text fill="#000000" font-family="sans-serif" font-size="11" lengthAdjust="spacingAndGlyphs" textLength="133" x="27" y="704.8198">router_latency: number</text><line style="stroke: #A80036; stroke-width: 1.5;" x1="8" x2="715" y1="711.4141" y2="711.4141"/><ellipse cx="18" cy="722.4141" fill="#84BE84" rx="3" ry="3" style="stroke: #038048; stroke-width: 1.0;"/><text fill="#000000" font-family="sans-serif" font-size="11" lengthAdjust="spacingAndGlyphs" textLength="683" x="27" y="725.6245">login(req: Request&lt;ParamsDictionary, any, any, QueryString.ParsedQs&gt;, res: Response&lt;any&gt;, next: NextFunction): void</text><ellipse cx="18" cy="735.2188" fill="#84BE84" rx="3" ry="3" style="stroke: #038048; stroke-width: 1.0;"/><text fill="#000000" font-family="sans-serif" font-size="11" lengthAdjust="spacingAndGlyphs" textLength="56" x="27" y="738.4292">init(): void</text><!--MD5=[335f4d9be48430461c68bf6d6fdba145]
class App--><rect codeLine="97" fill="#FEFECE" filter="url(#f9jclk11zawuw)" height="86.4141" id="App" style="stroke: #A80036; stroke-width: 1.5;" width="190" x="751.5" y="646"/><ellipse cx="830.25" cy="662" fill="#ADD1B2" rx="11" ry="11" style="stroke: #A80036; stroke-width: 1.0;"/><path d="M832.5938,657.6719 C831.6563,657.2344 831.0625,657.0938 830.1875,657.0938 C827.5625,657.0938 825.5625,659.1719 825.5625,661.8906 L825.5625,663.0156 C825.5625,665.5938 827.6719,667.4844 830.5625,667.4844 C831.7813,667.4844 832.9375,667.1875 833.6875,666.6406 C834.2656,666.2344 834.5938,665.7813 834.5938,665.3906 C834.5938,664.9375 834.2031,664.5469 833.7344,664.5469 C833.5156,664.5469 833.3125,664.625 833.125,664.8125 C832.6719,665.2969 832.6719,665.2969 832.4844,665.3906 C832.0625,665.6563 831.375,665.7813 830.6094,665.7813 C828.5625,665.7813 827.2656,664.6875 827.2656,662.9844 L827.2656,661.8906 C827.2656,660.1094 828.5156,658.7969 830.25,658.7969 C830.8281,658.7969 831.4375,658.9531 831.9063,659.2031 C832.3906,659.4844 832.5625,659.7031 832.6563,660.1094 C832.7188,660.5156 832.75,660.6406 832.8906,660.7656 C833.0313,660.9063 833.2656,661.0156 833.4844,661.0156 C833.75,661.0156 834.0156,660.875 834.1875,660.6563 C834.2969,660.5 834.3281,660.3125 834.3281,659.8906 L834.3281,658.4688 C834.3281,658.0313 834.3125,657.9063 834.2188,657.75 C834.0625,657.4844 833.7813,657.3438 833.4844,657.3438 C833.1875,657.3438 832.9844,657.4375 832.7656,657.75 L832.5938,657.6719 Z "/><text fill="#000000" font-family="sans-serif" font-size="12" lengthAdjust="spacingAndGlyphs" textLength="24" x="850.75" y="666.1543">App</text><line style="stroke: #A80036; stroke-width: 1.5;" x1="752.5" x2="940.5" y1="678" y2="678"/><ellipse cx="762.5" cy="689" fill="none" rx="3" ry="3" style="stroke: #038048; stroke-width: 1.0;"/><text fill="#000000" font-family="sans-serif" font-size="11" lengthAdjust="spacingAndGlyphs" textLength="164" x="771.5" y="692.2104">express: express.Application</text><line style="stroke: #A80036; stroke-width: 1.5;" x1="752.5" x2="940.5" y1="698.8047" y2="698.8047"/><rect fill="#F24D5C" height="6" style="stroke: #C82930; stroke-width: 1.0;" width="6" x="759.5" y="706.8047"/><text fill="#000000" font-family="sans-serif" font-size="11" lengthAdjust="spacingAndGlyphs" textLength="106" x="771.5" y="713.0151">middleware(): void</text><rect fill="#F24D5C" height="6" style="stroke: #C82930; stroke-width: 1.0;" width="6" x="759.5" y="719.6094"/><text fill="#000000" font-family="sans-serif" font-size="11" lengthAdjust="spacingAndGlyphs" textLength="75" x="771.5" y="725.8198">routes(): void</text><!--MD5=[f269af3ec9e2ea0e7ee96f710d328ae7]
link Student to Course--><!--MD5=[879e79d9b9300cd2bae6192b9cbae86c]
link Course to Teacher--><!--MD5=[f0e94c757f7b846cb94c23c7aa967a10]
link Student to Notes--><!--MD5=[c65d9b882939b8b53720eaed1255f7c7]
link Notes to SgbController--><!--MD5=[cd8072567b5d61265a5d6eedbf6ad495]
link SgbController to SgbRouter--><!--MD5=[38b99bea564a4a82ac4c839ab77fab54]
link Notes to SgbRouterV2--><!--MD5=[2a3ff967bd1e7b4817f447146f93f4c1]
link SgbRouterV2 to App--><!--MD5=[9174d2e016a7e546df0b9456bb39f435]
@startuml
class Student {
    -_id: number
    -_first_name: string
    -_last_name: string
    -_email: string
    -_permanent_code: string
    +id(): number
    +name(): string
    +email(): string
    +permanent_code(): string
    +followCourse(course_id: number): boolean
    +courses(): any[]
    +{static} login(email: string, password: string): any
    +{static} loginV2(email: string, password: string): any[]
    +{static} fromId(id: number): Student
    +{static} fromToken(token: string): Student
}
class Course {
    -_id: number
    -_sigle: string
    -_nb_max_student: number
    -_groupe: string
    -_titre: string
    -_date_debut: string
    -_date_fin: string
    +id(): number
    +sigle(): string
    +nb_max_student(): number
    +groupe(): string
    +titre(): string
    +date_debut(): string
    +date_fin(): string
    +students(): any[]
    +{static} fromId(id: number): Course
    +{static} fromSigle(sigle: string): Course[]
}
class Teacher {
    -_id: number
    -_first_name: string
    -_last_name: string
    -_email: string
    +id(): number
    +name(): string
    +email(): string
    +giveCourse(course_id: number): boolean
    +courses(): any[]
    +{static} login(email: string, password: string): any
    +{static} loginV2(email: string, password: string): any[]
    +{static} fromId(id: number): Teacher
    +{static} fromToken(token: string): Teacher
}
class Notes {
    +multimap: any
    +set(student_id: number, course_id: number, type: string, type_id: number, note: number): void
    +student(student_id: number): any
    +course(course_id: number): any[]
    +clear(): void
}
class SgbController {
    +multimap: any
    +notes: Notes
    +login(email: string, password: string): any
    +loginV2(email: string, password: string): any[]
    +courses(token: string): string
    +students(token: string, course_id: number): string
    +note(token: string, student_id: number, course_id: number, type: string, type_id: number, note: number): void
    +studentNote(token: string, course: number, type: string, type_id: number, note: number): void
    +studentNotes(token: string): any
    +studentCourses(token: string): string
    +courseNotes(token: string, course_id: number): any[]
    +clearNotes(token: string): void
}
class SgbRouter {
    +router: Router
    +controller: SgbController
    +router_latency: number
    +courses(req: Request<ParamsDictionary, any, any, QueryString.ParsedQs>, res: Response<any>, next: NextFunction): void
    +students(req: Request<ParamsDictionary, any, any, QueryString.ParsedQs>, res: Response<any>, next: NextFunction): void
    +note(req: Request<ParamsDictionary, any, any, QueryString.ParsedQs>, res: Response<any>, next: NextFunction): void
    +studentNote(req: Request<ParamsDictionary, any, any, QueryString.ParsedQs>, res: Response<any>, next: NextFunction): void
    +studentNotes(req: Request<ParamsDictionary, any, any, QueryString.ParsedQs>, res: Response<any>, next: NextFunction): void
    +studentCourses(req: Request<ParamsDictionary, any, any, QueryString.ParsedQs>, res: Response<any>, next: NextFunction): void
    +courseNotes(req: Request<ParamsDictionary, any, any, QueryString.ParsedQs>, res: Response<any>, next: NextFunction): void
    +login(req: Request<ParamsDictionary, any, any, QueryString.ParsedQs>, res: Response<any>, next: NextFunction): void
    +clearNotes(req: Request<ParamsDictionary, any, any, QueryString.ParsedQs>, res: Response<any>, next: NextFunction): void
    +latency(req: Request<ParamsDictionary, any, any, QueryString.ParsedQs>, res: Response<any>, next: NextFunction): void
    +generate_latency(): void
    +init(): void
}
class SgbRouterV2 {
    +router: Router
    +controller: SgbController
    +router_latency: number
    +login(req: Request<ParamsDictionary, any, any, QueryString.ParsedQs>, res: Response<any>, next: NextFunction): void
    +init(): void
}
class App {
    +express: express.Application
    -middleware(): void
    -routes(): void
}
@enduml

PlantUML version 1.2020.20beta4(Unknown compile time)
(GPL source distribution)
Java Runtime: Java(TM) SE Runtime Environment
JVM: Java HotSpot(TM) 64-Bit Server VM
Default Encoding: UTF-8
Language: en
Country: US
--></g></svg>