<?xml version="1.0" encoding="UTF-8" standalone="no"?><svg xmlns="http://www.w3.org/2000/svg" xmlns:xlink="http://www.w3.org/1999/xlink" contentScriptType="application/ecmascript" contentStyleType="text/css" height="884px" preserveAspectRatio="none" style="width:738px;height:884px;background:#FFFFFF;" version="1.1" viewBox="0 0 738 884" width="738px" zoomAndPan="magnify"><defs><filter height="300%" id="f6tppnnlz4qgl" width="300%" x="-1" y="-1"><feGaussianBlur result="blurOut" stdDeviation="2.0"/><feColorMatrix in="blurOut" result="blurOut2" type="matrix" values="0 0 0 0 0 0 0 0 0 0 0 0 0 0 0 0 0 0 .4 0"/><feOffset dx="4.0" dy="4.0" in="blurOut2" result="blurOut3"/><feBlend in="SourceGraphic" in2="blurOut3" mode="normal"/></filter></defs><g><!--MD5=[37d9809cb88c3d7038c4b5df64e24c2e]
class Semester--><rect codeLine="1" fill="#FEFECE" filter="url(#f6tppnnlz4qgl)" height="86.4141" id="Semester" style="stroke:#A80036;stroke-width:1.5;" width="91" x="433.07" y="138"/><ellipse cx="448.07" cy="154" fill="#ADD1B2" rx="11" ry="11" style="stroke:#A80036;stroke-width:1.0;"/><path d="M450.4138,149.6719 C449.4763,149.2344 448.8825,149.0938 448.0075,149.0938 C445.3825,149.0938 443.3825,151.1719 443.3825,153.8906 L443.3825,155.0156 C443.3825,157.5938 445.4919,159.4844 448.3825,159.4844 C449.6013,159.4844 450.7575,159.1875 451.5075,158.6406 C452.0856,158.2344 452.4138,157.7813 452.4138,157.3906 C452.4138,156.9375 452.0231,156.5469 451.5544,156.5469 C451.3356,156.5469 451.1325,156.625 450.945,156.8125 C450.4919,157.2969 450.4919,157.2969 450.3044,157.3906 C449.8825,157.6563 449.195,157.7813 448.4294,157.7813 C446.3825,157.7813 445.0856,156.6875 445.0856,154.9844 L445.0856,153.8906 C445.0856,152.1094 446.3356,150.7969 448.07,150.7969 C448.6481,150.7969 449.2575,150.9531 449.7263,151.2031 C450.2106,151.4844 450.3825,151.7031 450.4763,152.1094 C450.5388,152.5156 450.57,152.6406 450.7106,152.7656 C450.8513,152.9063 451.0856,153.0156 451.3044,153.0156 C451.57,153.0156 451.8356,152.875 452.0075,152.6563 C452.1169,152.5 452.1481,152.3125 452.1481,151.8906 L452.1481,150.4688 C452.1481,150.0313 452.1325,149.9063 452.0388,149.75 C451.8825,149.4844 451.6013,149.3438 451.3044,149.3438 C451.0075,149.3438 450.8044,149.4375 450.5856,149.75 L450.4138,149.6719 Z " fill="#000000"/><text fill="#000000" font-family="sans-serif" font-size="12" lengthAdjust="spacing" textLength="59" x="462.07" y="158.1543">Semester</text><line style="stroke:#A80036;stroke-width:1.5;" x1="434.07" x2="523.07" y1="170" y2="170"/><text fill="#000000" font-family="sans-serif" font-size="11" lengthAdjust="spacing" textLength="74" x="439.07" y="184.2104">name: string;</text><text fill="#000000" font-family="sans-serif" font-size="11" lengthAdjust="spacing" textLength="66" x="439.07" y="197.0151">start: string;</text><text fill="#000000" font-family="sans-serif" font-size="11" lengthAdjust="spacing" textLength="63" x="439.07" y="209.8198">end: string;</text><line style="stroke:#A80036;stroke-width:1.5;" x1="434.07" x2="523.07" y1="216.4141" y2="216.4141"/><!--MD5=[3fd616f346a44cd59a91eb10b19e157c]
class User--><rect codeLine="6" fill="#FEFECE" filter="url(#f6tppnnlz4qgl)" height="86.4141" id="User" style="stroke:#A80036;stroke-width:1.5;" width="113" x="210.07" y="327"/><ellipse cx="248.47" cy="343" fill="#ADD1B2" rx="11" ry="11" style="stroke:#A80036;stroke-width:1.0;"/><path d="M250.8138,338.6719 C249.8763,338.2344 249.2825,338.0938 248.4075,338.0938 C245.7825,338.0938 243.7825,340.1719 243.7825,342.8906 L243.7825,344.0156 C243.7825,346.5938 245.8919,348.4844 248.7825,348.4844 C250.0013,348.4844 251.1575,348.1875 251.9075,347.6406 C252.4856,347.2344 252.8138,346.7813 252.8138,346.3906 C252.8138,345.9375 252.4231,345.5469 251.9544,345.5469 C251.7356,345.5469 251.5325,345.625 251.345,345.8125 C250.8919,346.2969 250.8919,346.2969 250.7044,346.3906 C250.2825,346.6563 249.595,346.7813 248.8294,346.7813 C246.7825,346.7813 245.4856,345.6875 245.4856,343.9844 L245.4856,342.8906 C245.4856,341.1094 246.7356,339.7969 248.47,339.7969 C249.0481,339.7969 249.6575,339.9531 250.1263,340.2031 C250.6106,340.4844 250.7825,340.7031 250.8763,341.1094 C250.9388,341.5156 250.97,341.6406 251.1106,341.7656 C251.2513,341.9063 251.4856,342.0156 251.7044,342.0156 C251.97,342.0156 252.2356,341.875 252.4075,341.6563 C252.5169,341.5 252.5481,341.3125 252.5481,340.8906 L252.5481,339.4688 C252.5481,339.0313 252.5325,338.9063 252.4388,338.75 C252.2825,338.4844 252.0013,338.3438 251.7044,338.3438 C251.4075,338.3438 251.2044,338.4375 250.9856,338.75 L250.8138,338.6719 Z " fill="#000000"/><text fill="#000000" font-family="sans-serif" font-size="12" lengthAdjust="spacing" textLength="29" x="267.67" y="347.1543">User</text><line style="stroke:#A80036;stroke-width:1.5;" x1="211.07" x2="322.07" y1="359" y2="359"/><text fill="#000000" font-family="sans-serif" font-size="11" lengthAdjust="spacing" textLength="101" x="216.07" y="373.2104">first_name: string;</text><text fill="#000000" font-family="sans-serif" font-size="11" lengthAdjust="spacing" textLength="100" x="216.07" y="386.0151">last_name: string;</text><text fill="#000000" font-family="sans-serif" font-size="11" lengthAdjust="spacing" textLength="51" x="216.07" y="398.8198">id: string;</text><line style="stroke:#A80036;stroke-width:1.5;" x1="211.07" x2="322.07" y1="405.4141" y2="405.4141"/><!--MD5=[c680266cf9e454ca06c2d1bb8b683e6b]
class Schedule--><rect codeLine="14" fill="#FEFECE" filter="url(#f6tppnnlz4qgl)" height="137.6328" id="Schedule" style="stroke:#A80036;stroke-width:1.5;" width="110" x="429.57" y="301"/><ellipse cx="454.47" cy="317" fill="#ADD1B2" rx="11" ry="11" style="stroke:#A80036;stroke-width:1.0;"/><path d="M456.8137,312.6719 C455.8762,312.2344 455.2825,312.0938 454.4075,312.0938 C451.7825,312.0938 449.7825,314.1719 449.7825,316.8906 L449.7825,318.0156 C449.7825,320.5938 451.8919,322.4844 454.7825,322.4844 C456.0012,322.4844 457.1575,322.1875 457.9075,321.6406 C458.4856,321.2344 458.8137,320.7813 458.8137,320.3906 C458.8137,319.9375 458.4231,319.5469 457.9544,319.5469 C457.7356,319.5469 457.5325,319.625 457.345,319.8125 C456.8919,320.2969 456.8919,320.2969 456.7044,320.3906 C456.2825,320.6563 455.595,320.7813 454.8294,320.7813 C452.7825,320.7813 451.4856,319.6875 451.4856,317.9844 L451.4856,316.8906 C451.4856,315.1094 452.7356,313.7969 454.47,313.7969 C455.0481,313.7969 455.6575,313.9531 456.1262,314.2031 C456.6106,314.4844 456.7825,314.7031 456.8762,315.1094 C456.9387,315.5156 456.97,315.6406 457.1106,315.7656 C457.2512,315.9063 457.4856,316.0156 457.7044,316.0156 C457.97,316.0156 458.2356,315.875 458.4075,315.6563 C458.5169,315.5 458.5481,315.3125 458.5481,314.8906 L458.5481,313.4688 C458.5481,313.0313 458.5325,312.9063 458.4387,312.75 C458.2825,312.4844 458.0012,312.3438 457.7044,312.3438 C457.4075,312.3438 457.2044,312.4375 456.9856,312.75 L456.8137,312.6719 Z " fill="#000000"/><text fill="#000000" font-family="sans-serif" font-size="12" lengthAdjust="spacing" textLength="56" x="470.67" y="321.1543">Schedule</text><line style="stroke:#A80036;stroke-width:1.5;" x1="430.57" x2="538.57" y1="333" y2="333"/><text fill="#000000" font-family="sans-serif" font-size="11" lengthAdjust="spacing" textLength="89" x="435.57" y="347.2104">group_id: string;</text><text fill="#000000" font-family="sans-serif" font-size="11" lengthAdjust="spacing" textLength="62" x="435.57" y="360.0151">day: string;</text><text fill="#000000" font-family="sans-serif" font-size="11" lengthAdjust="spacing" textLength="72" x="435.57" y="372.8198">hours: string;</text><text fill="#000000" font-family="sans-serif" font-size="11" lengthAdjust="spacing" textLength="82" x="435.57" y="385.6245">activity: string;</text><text fill="#000000" font-family="sans-serif" font-size="11" lengthAdjust="spacing" textLength="71" x="435.57" y="398.4292">mode: string</text><text fill="#000000" font-family="sans-serif" font-size="11" lengthAdjust="spacing" textLength="64" x="435.57" y="411.2339">local: string</text><text fill="#000000" font-family="sans-serif" font-size="11" lengthAdjust="spacing" textLength="98" x="435.57" y="424.0386">teacher_id: string</text><line style="stroke:#A80036;stroke-width:1.5;" x1="430.57" x2="538.57" y1="430.6328" y2="430.6328"/><!--MD5=[4066b0363c5a91ff3b6e03e0428953a9]
class Course--><rect codeLine="24" fill="#FEFECE" filter="url(#f6tppnnlz4qgl)" height="73.6094" id="Course" style="stroke:#A80036;stroke-width:1.5;" width="76" x="393.57" y="671"/><ellipse cx="409.02" cy="687" fill="#ADD1B2" rx="11" ry="11" style="stroke:#A80036;stroke-width:1.0;"/><path d="M411.3638,682.6719 C410.4263,682.2344 409.8325,682.0938 408.9575,682.0938 C406.3325,682.0938 404.3325,684.1719 404.3325,686.8906 L404.3325,688.0156 C404.3325,690.5938 406.4419,692.4844 409.3325,692.4844 C410.5513,692.4844 411.7075,692.1875 412.4575,691.6406 C413.0356,691.2344 413.3638,690.7813 413.3638,690.3906 C413.3638,689.9375 412.9731,689.5469 412.5044,689.5469 C412.2856,689.5469 412.0825,689.625 411.895,689.8125 C411.4419,690.2969 411.4419,690.2969 411.2544,690.3906 C410.8325,690.6563 410.145,690.7813 409.3794,690.7813 C407.3325,690.7813 406.0356,689.6875 406.0356,687.9844 L406.0356,686.8906 C406.0356,685.1094 407.2856,683.7969 409.02,683.7969 C409.5981,683.7969 410.2075,683.9531 410.6763,684.2031 C411.1606,684.4844 411.3325,684.7031 411.4263,685.1094 C411.4888,685.5156 411.52,685.6406 411.6606,685.7656 C411.8013,685.9063 412.0356,686.0156 412.2544,686.0156 C412.52,686.0156 412.7856,685.875 412.9575,685.6563 C413.0669,685.5 413.0981,685.3125 413.0981,684.8906 L413.0981,683.4688 C413.0981,683.0313 413.0825,682.9063 412.9888,682.75 C412.8325,682.4844 412.5513,682.3438 412.2544,682.3438 C411.9575,682.3438 411.7544,682.4375 411.5356,682.75 L411.3638,682.6719 Z " fill="#000000"/><text fill="#000000" font-family="sans-serif" font-size="12" lengthAdjust="spacing" textLength="43" x="423.12" y="691.1543">Course</text><line style="stroke:#A80036;stroke-width:1.5;" x1="394.57" x2="468.57" y1="703" y2="703"/><text fill="#000000" font-family="sans-serif" font-size="11" lengthAdjust="spacing" textLength="51" x="399.57" y="717.2104">id: string;</text><text fill="#000000" font-family="sans-serif" font-size="11" lengthAdjust="spacing" textLength="64" x="399.57" y="730.0151">titre: string;</text><line style="stroke:#A80036;stroke-width:1.5;" x1="394.57" x2="468.57" y1="736.6094" y2="736.6094"/><!--MD5=[d6181cb537bdc20c0a3007a98a56832d]
class Student--><rect codeLine="29" fill="#FEFECE" filter="url(#f6tppnnlz4qgl)" height="48" id="Student" style="stroke:#A80036;stroke-width:1.5;" width="78" x="52.5704" y="531"/><ellipse cx="67.5704" cy="547" fill="#ADD1B2" rx="11" ry="11" style="stroke:#A80036;stroke-width:1.0;"/><path d="M69.9142,542.6719 C68.9767,542.2344 68.3829,542.0938 67.5079,542.0938 C64.8829,542.0938 62.8829,544.1719 62.8829,546.8906 L62.8829,548.0156 C62.8829,550.5938 64.9923,552.4844 67.8829,552.4844 C69.1017,552.4844 70.2579,552.1875 71.0079,551.6406 C71.586,551.2344 71.9142,550.7813 71.9142,550.3906 C71.9142,549.9375 71.5235,549.5469 71.0548,549.5469 C70.836,549.5469 70.6329,549.625 70.4454,549.8125 C69.9923,550.2969 69.9923,550.2969 69.8048,550.3906 C69.3829,550.6563 68.6954,550.7813 67.9298,550.7813 C65.8829,550.7813 64.586,549.6875 64.586,547.9844 L64.586,546.8906 C64.586,545.1094 65.836,543.7969 67.5704,543.7969 C68.1485,543.7969 68.7579,543.9531 69.2267,544.2031 C69.711,544.4844 69.8829,544.7031 69.9767,545.1094 C70.0392,545.5156 70.0704,545.6406 70.211,545.7656 C70.3517,545.9063 70.586,546.0156 70.8048,546.0156 C71.0704,546.0156 71.336,545.875 71.5079,545.6563 C71.6173,545.5 71.6485,545.3125 71.6485,544.8906 L71.6485,543.4688 C71.6485,543.0313 71.6329,542.9063 71.5392,542.75 C71.3829,542.4844 71.1017,542.3438 70.8048,542.3438 C70.5079,542.3438 70.3048,542.4375 70.086,542.75 L69.9142,542.6719 Z " fill="#000000"/><text fill="#000000" font-family="sans-serif" font-size="12" lengthAdjust="spacing" textLength="46" x="81.5704" y="551.1543">Student</text><line style="stroke:#A80036;stroke-width:1.5;" x1="53.5704" x2="129.5704" y1="563" y2="563"/><line style="stroke:#A80036;stroke-width:1.5;" x1="53.5704" x2="129.5704" y1="571" y2="571"/><!--MD5=[61a83f88cb8b7d3a80bc8c481f3736bf]
class Teacher--><rect codeLine="32" fill="#FEFECE" filter="url(#f6tppnnlz4qgl)" height="48" id="Teacher" style="stroke:#A80036;stroke-width:1.5;" width="81" x="365.07" y="531"/><ellipse cx="380.07" cy="547" fill="#ADD1B2" rx="11" ry="11" style="stroke:#A80036;stroke-width:1.0;"/><path d="M382.4138,542.6719 C381.4763,542.2344 380.8825,542.0938 380.0075,542.0938 C377.3825,542.0938 375.3825,544.1719 375.3825,546.8906 L375.3825,548.0156 C375.3825,550.5938 377.4919,552.4844 380.3825,552.4844 C381.6013,552.4844 382.7575,552.1875 383.5075,551.6406 C384.0856,551.2344 384.4138,550.7813 384.4138,550.3906 C384.4138,549.9375 384.0231,549.5469 383.5544,549.5469 C383.3356,549.5469 383.1325,549.625 382.945,549.8125 C382.4919,550.2969 382.4919,550.2969 382.3044,550.3906 C381.8825,550.6563 381.195,550.7813 380.4294,550.7813 C378.3825,550.7813 377.0856,549.6875 377.0856,547.9844 L377.0856,546.8906 C377.0856,545.1094 378.3356,543.7969 380.07,543.7969 C380.6481,543.7969 381.2575,543.9531 381.7263,544.2031 C382.2106,544.4844 382.3825,544.7031 382.4763,545.1094 C382.5388,545.5156 382.57,545.6406 382.7106,545.7656 C382.8513,545.9063 383.0856,546.0156 383.3044,546.0156 C383.57,546.0156 383.8356,545.875 384.0075,545.6563 C384.1169,545.5 384.1481,545.3125 384.1481,544.8906 L384.1481,543.4688 C384.1481,543.0313 384.1325,542.9063 384.0388,542.75 C383.8825,542.4844 383.6013,542.3438 383.3044,542.3438 C383.0075,542.3438 382.8044,542.4375 382.5856,542.75 L382.4138,542.6719 Z " fill="#000000"/><text fill="#000000" font-family="sans-serif" font-size="12" lengthAdjust="spacing" textLength="49" x="394.07" y="551.1543">Teacher</text><line style="stroke:#A80036;stroke-width:1.5;" x1="366.07" x2="445.07" y1="563" y2="563"/><line style="stroke:#A80036;stroke-width:1.5;" x1="366.07" x2="445.07" y1="571" y2="571"/><!--MD5=[64e7a81d370390ac66d73872e4f36773]
class Grade--><rect codeLine="36" fill="#FEFECE" filter="url(#f6tppnnlz4qgl)" height="112.0234" id="Grade" style="stroke:#A80036;stroke-width:1.5;" width="112" x="62.5704" y="314"/><ellipse cx="96.9204" cy="330" fill="#ADD1B2" rx="11" ry="11" style="stroke:#A80036;stroke-width:1.0;"/><path d="M99.2642,325.6719 C98.3267,325.2344 97.7329,325.0938 96.8579,325.0938 C94.2329,325.0938 92.2329,327.1719 92.2329,329.8906 L92.2329,331.0156 C92.2329,333.5938 94.3423,335.4844 97.2329,335.4844 C98.4517,335.4844 99.6079,335.1875 100.3579,334.6406 C100.936,334.2344 101.2642,333.7813 101.2642,333.3906 C101.2642,332.9375 100.8735,332.5469 100.4048,332.5469 C100.186,332.5469 99.9829,332.625 99.7954,332.8125 C99.3423,333.2969 99.3423,333.2969 99.1548,333.3906 C98.7329,333.6563 98.0454,333.7813 97.2798,333.7813 C95.2329,333.7813 93.936,332.6875 93.936,330.9844 L93.936,329.8906 C93.936,328.1094 95.186,326.7969 96.9204,326.7969 C97.4985,326.7969 98.1079,326.9531 98.5767,327.2031 C99.061,327.4844 99.2329,327.7031 99.3267,328.1094 C99.3892,328.5156 99.4204,328.6406 99.561,328.7656 C99.7017,328.9063 99.936,329.0156 100.1548,329.0156 C100.4204,329.0156 100.686,328.875 100.8579,328.6563 C100.9673,328.5 100.9985,328.3125 100.9985,327.8906 L100.9985,326.4688 C100.9985,326.0313 100.9829,325.9063 100.8892,325.75 C100.7329,325.4844 100.4517,325.3438 100.1548,325.3438 C99.8579,325.3438 99.6548,325.4375 99.436,325.75 L99.2642,325.6719 Z " fill="#000000"/><text fill="#000000" font-family="sans-serif" font-size="12" lengthAdjust="spacing" textLength="37" x="115.2204" y="334.1543">Grade</text><line style="stroke:#A80036;stroke-width:1.5;" x1="63.5704" x2="173.5704" y1="346" y2="346"/><text fill="#000000" font-family="sans-serif" font-size="11" lengthAdjust="spacing" textLength="100" x="68.5704" y="360.2104">student_id: string;</text><text fill="#000000" font-family="sans-serif" font-size="11" lengthAdjust="spacing" textLength="89" x="68.5704" y="373.0151">group_id: string;</text><text fill="#000000" font-family="sans-serif" font-size="11" lengthAdjust="spacing" textLength="67" x="68.5704" y="385.8198">type: string;</text><text fill="#000000" font-family="sans-serif" font-size="11" lengthAdjust="spacing" textLength="93" x="68.5704" y="398.6245">type_id: integer;</text><text fill="#000000" font-family="sans-serif" font-size="11" lengthAdjust="spacing" textLength="80" x="68.5704" y="411.4292">note: number;</text><line style="stroke:#A80036;stroke-width:1.5;" x1="63.5704" x2="173.5704" y1="418.0234" y2="418.0234"/><!--MD5=[9f93fc4de6aba39e63ecc8b5110a2944]
class University--><rect codeLine="43" fill="#FEFECE" filter="url(#f6tppnnlz4qgl)" height="53.9375" id="University" style="stroke:#A80036;stroke-width:1.5;" width="98" x="327.57" y="7"/><ellipse cx="342.57" cy="25.9688" fill="#ADD1B2" rx="11" ry="11" style="stroke:#A80036;stroke-width:1.0;"/><path d="M344.9138,21.6406 C343.9763,21.2031 343.3825,21.0625 342.5075,21.0625 C339.8825,21.0625 337.8825,23.1406 337.8825,25.8594 L337.8825,26.9844 C337.8825,29.5625 339.9919,31.4531 342.8825,31.4531 C344.1013,31.4531 345.2575,31.1563 346.0075,30.6094 C346.5856,30.2031 346.9138,29.75 346.9138,29.3594 C346.9138,28.9063 346.5231,28.5156 346.0544,28.5156 C345.8356,28.5156 345.6325,28.5938 345.445,28.7813 C344.9919,29.2656 344.9919,29.2656 344.8044,29.3594 C344.3825,29.625 343.695,29.75 342.9294,29.75 C340.8825,29.75 339.5856,28.6563 339.5856,26.9531 L339.5856,25.8594 C339.5856,24.0781 340.8356,22.7656 342.57,22.7656 C343.1481,22.7656 343.7575,22.9219 344.2263,23.1719 C344.7106,23.4531 344.8825,23.6719 344.9763,24.0781 C345.0388,24.4844 345.07,24.6094 345.2106,24.7344 C345.3513,24.875 345.5856,24.9844 345.8044,24.9844 C346.07,24.9844 346.3356,24.8438 346.5075,24.625 C346.6169,24.4688 346.6481,24.2813 346.6481,23.8594 L346.6481,22.4375 C346.6481,22 346.6325,21.875 346.5388,21.7188 C346.3825,21.4531 346.1013,21.3125 345.8044,21.3125 C345.5075,21.3125 345.3044,21.4063 345.0856,21.7188 L344.9138,21.6406 Z " fill="#000000"/><text fill="#000000" font-family="sans-serif" font-size="12" font-style="italic" lengthAdjust="spacing" textLength="70" x="354.57" y="23.1387">«Facultatif»</text><text fill="#000000" font-family="sans-serif" font-size="12" lengthAdjust="spacing" textLength="60" x="359.57" y="37.1074">University</text><line style="stroke:#A80036;stroke-width:1.5;" x1="328.57" x2="424.57" y1="44.9375" y2="44.9375"/><line style="stroke:#A80036;stroke-width:1.5;" x1="328.57" x2="424.57" y1="52.9375" y2="52.9375"/><!--MD5=[41314a0efc36828092cff9ebad2fcafd]
class Group--><rect fill="#FEFECE" filter="url(#f6tppnnlz4qgl)" height="48" id="Group" style="stroke:#A80036;stroke-width:1.5;" width="69" x="300.07" y="822"/><ellipse cx="315.07" cy="838" fill="#ADD1B2" rx="11" ry="11" style="stroke:#A80036;stroke-width:1.0;"/><path d="M317.4138,833.6719 C316.4763,833.2344 315.8825,833.0938 315.0075,833.0938 C312.3825,833.0938 310.3825,835.1719 310.3825,837.8906 L310.3825,839.0156 C310.3825,841.5938 312.4919,843.4844 315.3825,843.4844 C316.6013,843.4844 317.7575,843.1875 318.5075,842.6406 C319.0856,842.2344 319.4138,841.7813 319.4138,841.3906 C319.4138,840.9375 319.0231,840.5469 318.5544,840.5469 C318.3356,840.5469 318.1325,840.625 317.945,840.8125 C317.4919,841.2969 317.4919,841.2969 317.3044,841.3906 C316.8825,841.6563 316.195,841.7813 315.4294,841.7813 C313.3825,841.7813 312.0856,840.6875 312.0856,838.9844 L312.0856,837.8906 C312.0856,836.1094 313.3356,834.7969 315.07,834.7969 C315.6481,834.7969 316.2575,834.9531 316.7263,835.2031 C317.2106,835.4844 317.3825,835.7031 317.4763,836.1094 C317.5388,836.5156 317.57,836.6406 317.7106,836.7656 C317.8513,836.9063 318.0856,837.0156 318.3044,837.0156 C318.57,837.0156 318.8356,836.875 319.0075,836.6563 C319.1169,836.5 319.1481,836.3125 319.1481,835.8906 L319.1481,834.4688 C319.1481,834.0313 319.1325,833.9063 319.0388,833.75 C318.8825,833.4844 318.6013,833.3438 318.3044,833.3438 C318.0075,833.3438 317.8044,833.4375 317.5856,833.75 L317.4138,833.6719 Z " fill="#000000"/><text fill="#000000" font-family="sans-serif" font-size="12" lengthAdjust="spacing" textLength="37" x="329.07" y="842.1543">Group</text><line style="stroke:#A80036;stroke-width:1.5;" x1="301.07" x2="368.07" y1="854" y2="854"/><line style="stroke:#A80036;stroke-width:1.5;" x1="301.07" x2="368.07" y1="862" y2="862"/><!--MD5=[29fe19ce294944fa80f389ae9bd987a4]
reverse link User to Student--><path d="M255.42,432.801 C248.487,456.544 237.354,482.385 219.57,501 C195.895,525.782 158.916,539.397 130.78,546.598 " fill="none" id="User-backto-Student" style="stroke:#A80036;stroke-width:1.0;"/><polygon fill="none" points="248.704,430.804,260.401,413.135,262.276,434.241,248.704,430.804" style="stroke:#A80036;stroke-width:1.0;"/><!--MD5=[d87c224b488f6c9759d0a77cb4053101]
reverse link User to Teacher--><path d="M302.86,430.197 C317.686,453 335.566,478.864 353.57,501 C361.948,511.3 372.002,521.892 381.028,530.873 " fill="none" id="User-backto-Teacher" style="stroke:#A80036;stroke-width:1.0;"/><polygon fill="none" points="296.795,433.706,291.925,413.083,308.592,426.167,296.795,433.706" style="stroke:#A80036;stroke-width:1.0;"/><!--MD5=[ef3d4ed75fd70af56cb5183963ffa490]
link Course to Group--><path codeLine="45" d="M405.831,745.088 C388.544,769.326 366.268,800.5583 351.261,821.599 " fill="none" id="Course-Group" style="stroke:#A80036;stroke-width:1.0;"/><polygon fill="#000000" points="385.6667,787.6371,393.3116,781.9797,388.5262,778.5666,385.6667,787.6371" style="stroke:#000000;stroke-width:1.0;"/><text fill="#000000" font-family="sans-serif" font-size="13" lengthAdjust="spacing" textLength="36" x="397.57" y="788.0669">décrit</text><text fill="#000000" font-family="sans-serif" font-size="13" lengthAdjust="spacing" textLength="8" x="392.9055" y="764.5831">1</text><text fill="#000000" font-family="sans-serif" font-size="13" lengthAdjust="spacing" textLength="7" x="347.4763" y="810.9062">*</text><!--MD5=[a9d06c442cf2e60568c5a2d1df8ac3d4]
link Schedule to Group--><path codeLine="46" d="M539.681,381.696 C604.197,397.472 700.078,432.781 681.57,501 C637.749,662.524 579.647,695.977 442.57,792 C419.648,808.0575 391.132,821.8261 369.158,831.3025 " fill="none" id="Schedule-Group" style="stroke:#A80036;stroke-width:1.0;"/><polygon fill="#000000" points="647.3431,620.3914,641.3876,627.8064,646.8834,629.8908,647.3431,620.3914" style="stroke:#000000;stroke-width:1.0;"/><text fill="#000000" font-family="sans-serif" font-size="13" lengthAdjust="spacing" textLength="76" x="654.57" y="629.5669">Offert selon</text><text fill="#000000" font-family="sans-serif" font-size="13" lengthAdjust="spacing" textLength="7" x="547.5569" y="379.3603">*</text><text fill="#000000" font-family="sans-serif" font-size="13" lengthAdjust="spacing" textLength="8" x="377.1168" y="823.8049">1</text><!--MD5=[db026a837c735e23d1fd3644146fd6a5]
link Schedule to Teacher--><path codeLine="47" d="M445.453,439.223 C440.465,449.066 435.677,459.186 431.57,469 C423.052,489.357 415.938,513.494 411.317,530.836 " fill="none" id="Schedule-Teacher" style="stroke:#A80036;stroke-width:1.0;"/><polygon fill="#000000" points="438.3158,480.3811,432.4037,487.8308,437.9116,489.8831,438.3158,480.3811" style="stroke:#000000;stroke-width:1.0;"/><text fill="#000000" font-family="sans-serif" font-size="13" lengthAdjust="spacing" textLength="231" x="445.57" y="489.5669">Enseigne dans un group cours selon</text><text fill="#000000" font-family="sans-serif" font-size="13" lengthAdjust="spacing" textLength="7" x="434.3911" y="458.6264">*</text><text fill="#000000" font-family="sans-serif" font-size="13" lengthAdjust="spacing" textLength="8" x="413.8147" y="519.806">1</text><!--MD5=[ad86e55f2558bd5feae5bc127ed957a1]
link Semester to Schedule--><path codeLine="48" d="M479.932,224.433 C480.655,246.955 481.56,275.179 482.379,300.697 " fill="none" id="Semester-Schedule" style="stroke:#A80036;stroke-width:1.0;"/><polygon fill="#000000" points="486.7303,267.5638,489.3777,258.4292,483.5029,258.6177,486.7303,267.5638" style="stroke:#000000;stroke-width:1.0;"/><text fill="#000000" font-family="sans-serif" font-size="13" lengthAdjust="spacing" textLength="186" x="495.57" y="267.0669">Offre des groupe cours selon</text><text fill="#000000" font-family="sans-serif" font-size="13" lengthAdjust="spacing" textLength="8" x="471.5116" y="244.5949">1</text><text fill="#000000" font-family="sans-serif" font-size="13" lengthAdjust="spacing" textLength="7" x="474.7921" y="289.8694">*</text><!--MD5=[63bb888ead92909d30749399c6b1f1cd]
link Grade to Student--><path codeLine="49" d="M84.717,426.241 C78.0541,439.758 72.0523,454.514 68.5704,469 C65.2466,482.828 65.6792,487.075 68.5704,501 C70.6911,511.214 74.8846,521.876 79.1168,530.937 " fill="none" id="Grade-Student" style="stroke:#A80036;stroke-width:1.0;"/><text fill="#000000" font-family="sans-serif" font-size="13" lengthAdjust="spacing" textLength="81" x="101.5704" y="482.0669">effectue des</text><polygon fill="#000000" points="74.8375,487.7064,71.4196,496.5816,77.2891,496.8955,74.8375,487.7064" style="stroke:#000000;stroke-width:1.0;"/><text fill="#000000" font-family="sans-serif" font-size="13" lengthAdjust="spacing" textLength="132" x="82.5704" y="497.1997">travaux pour obtenir</text><text fill="#000000" font-family="sans-serif" font-size="13" lengthAdjust="spacing" textLength="7" x="73.1646" y="446.083">*</text><text fill="#000000" font-family="sans-serif" font-size="13" lengthAdjust="spacing" textLength="8" x="76.9506" y="519.9329">1</text><!--MD5=[575915f953b4252a6e2b0c75b341eb0c]
link Grade to Group--><path codeLine="50" d="M174.85,422.959 C199.262,445.596 222.583,467.402 223.57,469 C228.417,476.844 304.629,740.947 327.884,821.7474 " fill="none" id="Grade-Group" style="stroke:#A80036;stroke-width:1.0;"/><text fill="#000000" font-family="sans-serif" font-size="13" lengthAdjust="spacing" textLength="146" x="286.07" y="622.0669">demande la réalisation</text><polygon fill="#000000" points="279.7786,628.0311,280.2754,637.5287,285.7631,635.4228,279.7786,628.0311" style="stroke:#000000;stroke-width:1.0;"/><text fill="#000000" font-family="sans-serif" font-size="13" lengthAdjust="spacing" textLength="152" x="289.57" y="637.1997">de travaux pour obtenir</text><text fill="#000000" font-family="sans-serif" font-size="13" lengthAdjust="spacing" textLength="7" x="182.5093" y="425.8573">*</text><text fill="#000000" font-family="sans-serif" font-size="13" lengthAdjust="spacing" textLength="8" x="317.2793" y="811.0908">1</text><!--MD5=[c23d87697d59a5625890325406da6336]
link Teacher to Course--><path codeLine="51" d="M431.413,579.219 C439.096,587.738 446.534,598.009 450.57,609 C457.86,628.847 453.886,652.035 447.729,670.871 " fill="none" id="Teacher-Course" style="stroke:#A80036;stroke-width:1.0;"/><polygon fill="#000000" points="460.4463,629.989,461.7545,620.5688,455.9676,621.599,460.4463,629.989" style="stroke:#000000;stroke-width:1.0;"/><text fill="#000000" font-family="sans-serif" font-size="13" lengthAdjust="spacing" textLength="122" x="468.57" y="629.5669">est responsable de</text><text fill="#000000" font-family="sans-serif" font-size="13" lengthAdjust="spacing" textLength="8" x="428.7372" y="599.0336">1</text><text fill="#000000" font-family="sans-serif" font-size="13" lengthAdjust="spacing" textLength="7" x="442.9839" y="660.035">*</text><!--MD5=[41a1d172a390896d55d4895443325c3c]
link Student to Group--><path codeLine="52" d="M97.7902,579.281 C108.9281,617.471 135.341,694.244 179.57,745 C213.338,783.7502 265.69,813.2183 300.05,829.8117 " fill="none" id="Student-Group" style="stroke:#A80036;stroke-width:1.0;"/><polygon fill="#000000" points="187.7108,711.9568,184.3157,703.0729,179.7423,706.7651,187.7108,711.9568" style="stroke:#000000;stroke-width:1.0;"/><text fill="#000000" font-family="sans-serif" font-size="13" lengthAdjust="spacing" textLength="62" x="193.57" y="712.5669">est inscrit</text><text fill="#000000" font-family="sans-serif" font-size="13" lengthAdjust="spacing" textLength="8" x="90.3313" y="599.1107">1</text><text fill="#000000" font-family="sans-serif" font-size="13" lengthAdjust="spacing" textLength="7" x="285.2084" y="822.0066">*</text><!--MD5=[f8a8fe4298180942a42be713e5ee4354]
link University to Teacher--><path codeLine="53" d="M378.028,61.093 C383.042,150.818 399.525,445.811 404.277,530.86 " fill="none" id="University-Teacher" style="stroke:#A80036;stroke-width:1.0;"/><polygon fill="#000000" points="395.8489,267.5586,398.2787,258.3637,392.41,258.6916,395.8489,267.5586" style="stroke:#000000;stroke-width:1.0;"/><text fill="#000000" font-family="sans-serif" font-size="13" lengthAdjust="spacing" textLength="51" x="404.57" y="267.0669">emploie</text><text fill="#000000" font-family="sans-serif" font-size="13" lengthAdjust="spacing" textLength="8" x="369.4402" y="81.1821">1</text><text fill="#000000" font-family="sans-serif" font-size="13" lengthAdjust="spacing" textLength="7" x="396.0488" y="519.8362">*</text><!--MD5=[cccb401858a704bc77648edc8157e2b7]
link University to Student--><path codeLine="54" d="M327.459,56.76 C250.361,93.992 103.6344,177.994 44.5704,301 C6,381.326 24.7351,418.567 58.5704,501 C62.8097,511.328 68.9798,521.925 74.8407,530.903 " fill="none" id="University-Student" style="stroke:#A80036;stroke-width:1.0;"/><polygon fill="#000000" points="74.2193,266.9792,81.0662,260.3783,75.8787,257.6145,74.2193,266.9792" style="stroke:#000000;stroke-width:1.0;"/><text fill="#000000" font-family="sans-serif" font-size="13" lengthAdjust="spacing" textLength="117" x="85.5704" y="267.0669">Offre des services</text><text fill="#000000" font-family="sans-serif" font-size="13" lengthAdjust="spacing" textLength="8" x="311.6583" y="56.0826">1</text><text fill="#000000" font-family="sans-serif" font-size="13" lengthAdjust="spacing" textLength="7" x="62.6568" y="519.8902">*</text><!--MD5=[e362cc96273ade0d1f4a5d16440b84cb]
link University to Semester--><path codeLine="55" d="M395.042,61.258 C410.026,82.559 431.439,112.999 448.833,137.726 " fill="none" id="University-Semester" style="stroke:#A80036;stroke-width:1.0;"/><polygon fill="#000000" points="435.4468,103.6559,432.6464,94.567,427.8389,97.9488,435.4468,103.6559" style="stroke:#000000;stroke-width:1.0;"/><text fill="#000000" font-family="sans-serif" font-size="13" lengthAdjust="spacing" textLength="31" x="441.57" y="104.0669">Gère</text><text fill="#000000" font-family="sans-serif" font-size="13" lengthAdjust="spacing" textLength="8" x="390.2078" y="80.9496">1</text><text fill="#000000" font-family="sans-serif" font-size="13" lengthAdjust="spacing" textLength="7" x="436.7436" y="126.9966">*</text><!--MD5=[9504ec7b247f7926413d35c4ff6e8e9e]
@startuml
class Semester  {
  name: string;
  start: string;
  end: string;
}
class User  {
  first_name: string;
  last_name: string;
  id: string;
}



class Schedule  {
  group_id: string;
  day: string;
  hours: string;
  activity: string;
  mode: string
  local: string
  teacher_id: string
}

 class Course  {
  id: string;
  titre: string;
}

class Student extends User {
}

class Teacher extends User {
  
}

class Grade {
  student_id: string;
  group_id: string;
  type: string;
  type_id: integer;
  note: number;
}
class University <<Facultatif>>

Course "1" - - "*" Group : décrit >
Schedule "*" - - "1" Group : Offert selon <
Schedule "*" - - "1" Teacher : Enseigne dans un group cours selon <
Semester "1" - - "*" Schedule: Offre des groupe cours selon >
Grade "*" - -  "1" Student: effectue des\n travaux pour obtenir <
Grade "*" - - "1" Group : demande la réalisation\nde travaux pour obtenir <
Teacher "1" - - "*" Course: est responsable de > 
Student "1" - - "*" Group : est inscrit >
University "1" -r- "*" Teacher: emploie >
University "1" -r- "*" Student: Offre des services >
University "1" -d- "*" Semester: Gère >
@enduml

PlantUML version 1.2021.10beta3(Unknown compile time)
(GPL source distribution)
Java Runtime: Java(TM) SE Runtime Environment
JVM: Java HotSpot(TM) 64-Bit Server VM
Default Encoding: UTF-8
Language: en
Country: US
--></g></svg>