<?xml version="1.0" encoding="UTF-8" standalone="no"?><svg xmlns="http://www.w3.org/2000/svg" xmlns:xlink="http://www.w3.org/1999/xlink" contentScriptType="application/ecmascript" contentStyleType="text/css" height="913px" preserveAspectRatio="none" style="width:778px;height:913px;background:#FFFFFF;" version="1.1" viewBox="0 0 778 913" width="778px" zoomAndPan="magnify"><defs><filter height="300%" id="f1hi6umrx1hjhf" width="300%" x="-1" y="-1"><feGaussianBlur result="blurOut" stdDeviation="2.0"/><feColorMatrix in="blurOut" result="blurOut2" type="matrix" values="0 0 0 0 0 0 0 0 0 0 0 0 0 0 0 0 0 0 .4 0"/><feOffset dx="4.0" dy="4.0" in="blurOut2" result="blurOut3"/><feBlend in="SourceGraphic" in2="blurOut3" mode="normal"/></filter></defs><g><!--MD5=[37d9809cb88c3d7038c4b5df64e24c2e]
class Semester--><rect codeLine="1" fill="#FEFECE" filter="url(#f1hi6umrx1hjhf)" height="92.3516" id="Semester" style="stroke:#A80036;stroke-width:1.5;" width="114" x="468.4874" y="138"/><ellipse cx="483.4874" cy="156.9688" fill="#ADD1B2" rx="11" ry="11" style="stroke:#A80036;stroke-width:1.0;"/><path d="M485.8312,152.6406 C484.8937,152.2031 484.2999,152.0625 483.4249,152.0625 C480.7999,152.0625 478.7999,154.1406 478.7999,156.8594 L478.7999,157.9844 C478.7999,160.5625 480.9093,162.4531 483.7999,162.4531 C485.0187,162.4531 486.1749,162.1563 486.9249,161.6094 C487.503,161.2031 487.8312,160.75 487.8312,160.3594 C487.8312,159.9063 487.4405,159.5156 486.9718,159.5156 C486.753,159.5156 486.5499,159.5938 486.3624,159.7813 C485.9093,160.2656 485.9093,160.2656 485.7218,160.3594 C485.2999,160.625 484.6124,160.75 483.8468,160.75 C481.7999,160.75 480.503,159.6563 480.503,157.9531 L480.503,156.8594 C480.503,155.0781 481.753,153.7656 483.4874,153.7656 C484.0655,153.7656 484.6749,153.9219 485.1437,154.1719 C485.628,154.4531 485.7999,154.6719 485.8937,155.0781 C485.9562,155.4844 485.9874,155.6094 486.128,155.7344 C486.2687,155.875 486.503,155.9844 486.7218,155.9844 C486.9874,155.9844 487.253,155.8438 487.4249,155.625 C487.5343,155.4688 487.5655,155.2813 487.5655,154.8594 L487.5655,153.4375 C487.5655,153 487.5499,152.875 487.4562,152.7188 C487.2999,152.4531 487.0187,152.3125 486.7218,152.3125 C486.4249,152.3125 486.2218,152.4063 486.003,152.7188 L485.8312,152.6406 Z " fill="#000000"/><text fill="#000000" font-family="sans-serif" font-size="12" font-style="italic" lengthAdjust="spacing" textLength="86" x="495.4874" y="154.1387">«Planification»</text><text fill="#000000" font-family="sans-serif" font-size="12" lengthAdjust="spacing" textLength="59" x="508.9874" y="168.1074">Semester</text><line style="stroke:#A80036;stroke-width:1.5;" x1="469.4874" x2="581.4874" y1="175.9375" y2="175.9375"/><text fill="#000000" font-family="sans-serif" font-size="11" lengthAdjust="spacing" textLength="74" x="474.4874" y="190.1479">name: string;</text><text fill="#000000" font-family="sans-serif" font-size="11" lengthAdjust="spacing" textLength="66" x="474.4874" y="202.9526">start: string;</text><text fill="#000000" font-family="sans-serif" font-size="11" lengthAdjust="spacing" textLength="63" x="474.4874" y="215.7573">end: string;</text><line style="stroke:#A80036;stroke-width:1.5;" x1="469.4874" x2="581.4874" y1="222.3516" y2="222.3516"/><!--MD5=[3fd616f346a44cd59a91eb10b19e157c]
class User--><rect codeLine="6" fill="#FEFECE" filter="url(#f1hi6umrx1hjhf)" height="92.3516" id="User" style="stroke:#A80036;stroke-width:1.5;" width="113" x="248.9874" y="333"/><ellipse cx="284.6874" cy="351.9688" fill="#ADD1B2" rx="11" ry="11" style="stroke:#A80036;stroke-width:1.0;"/><path d="M287.0311,347.6406 C286.0936,347.2031 285.4999,347.0625 284.6249,347.0625 C281.9999,347.0625 279.9999,349.1406 279.9999,351.8594 L279.9999,352.9844 C279.9999,355.5625 282.1093,357.4531 284.9999,357.4531 C286.2186,357.4531 287.3749,357.1563 288.1249,356.6094 C288.703,356.2031 289.0311,355.75 289.0311,355.3594 C289.0311,354.9063 288.6405,354.5156 288.1718,354.5156 C287.953,354.5156 287.7499,354.5938 287.5624,354.7813 C287.1093,355.2656 287.1093,355.2656 286.9218,355.3594 C286.4999,355.625 285.8124,355.75 285.0468,355.75 C282.9999,355.75 281.703,354.6563 281.703,352.9531 L281.703,351.8594 C281.703,350.0781 282.953,348.7656 284.6874,348.7656 C285.2655,348.7656 285.8749,348.9219 286.3436,349.1719 C286.828,349.4531 286.9999,349.6719 287.0936,350.0781 C287.1561,350.4844 287.1874,350.6094 287.328,350.7344 C287.4686,350.875 287.703,350.9844 287.9218,350.9844 C288.1874,350.9844 288.453,350.8438 288.6249,350.625 C288.7343,350.4688 288.7655,350.2813 288.7655,349.8594 L288.7655,348.4375 C288.7655,348 288.7499,347.875 288.6561,347.7188 C288.4999,347.4531 288.2186,347.3125 287.9218,347.3125 C287.6249,347.3125 287.4218,347.4063 287.203,347.7188 L287.0311,347.6406 Z " fill="#000000"/><text fill="#000000" font-family="sans-serif" font-size="12" font-style="italic" lengthAdjust="spacing" textLength="39" x="301.2874" y="349.1387">«Role»</text><text fill="#000000" font-family="sans-serif" font-size="12" lengthAdjust="spacing" textLength="29" x="306.2874" y="363.1074">User</text><line style="stroke:#A80036;stroke-width:1.5;" x1="249.9874" x2="360.9874" y1="370.9375" y2="370.9375"/><text fill="#000000" font-family="sans-serif" font-size="11" lengthAdjust="spacing" textLength="101" x="254.9874" y="385.1479">first_name: string;</text><text fill="#000000" font-family="sans-serif" font-size="11" lengthAdjust="spacing" textLength="100" x="254.9874" y="397.9526">last_name: string;</text><text fill="#000000" font-family="sans-serif" font-size="11" lengthAdjust="spacing" textLength="51" x="254.9874" y="410.7573">id: string;</text><line style="stroke:#A80036;stroke-width:1.5;" x1="249.9874" x2="360.9874" y1="417.3516" y2="417.3516"/><!--MD5=[41314a0efc36828092cff9ebad2fcafd]
class Group--><rect codeLine="12" fill="#FEFECE" filter="url(#f1hi6umrx1hjhf)" height="53.9375" id="Group" style="stroke:#A80036;stroke-width:1.5;" width="86" x="308.4874" y="846"/><ellipse cx="323.4874" cy="864.9688" fill="#ADD1B2" rx="11" ry="11" style="stroke:#A80036;stroke-width:1.0;"/><path d="M325.8312,860.6406 C324.8937,860.2031 324.2999,860.0625 323.4249,860.0625 C320.7999,860.0625 318.7999,862.1406 318.7999,864.8594 L318.7999,865.9844 C318.7999,868.5625 320.9093,870.4531 323.7999,870.4531 C325.0187,870.4531 326.1749,870.1563 326.9249,869.6094 C327.503,869.2031 327.8312,868.75 327.8312,868.3594 C327.8312,867.9063 327.4405,867.5156 326.9718,867.5156 C326.753,867.5156 326.5499,867.5938 326.3624,867.7813 C325.9093,868.2656 325.9093,868.2656 325.7218,868.3594 C325.2999,868.625 324.6124,868.75 323.8468,868.75 C321.7999,868.75 320.503,867.6563 320.503,865.9531 L320.503,864.8594 C320.503,863.0781 321.753,861.7656 323.4874,861.7656 C324.0655,861.7656 324.6749,861.9219 325.1437,862.1719 C325.628,862.4531 325.7999,862.6719 325.8937,863.0781 C325.9562,863.4844 325.9874,863.6094 326.128,863.7344 C326.2687,863.875 326.503,863.9844 326.7218,863.9844 C326.9874,863.9844 327.253,863.8438 327.4249,863.625 C327.5343,863.4688 327.5655,863.2813 327.5655,862.8594 L327.5655,861.4375 C327.5655,861 327.5499,860.875 327.4562,860.7188 C327.2999,860.4531 327.0187,860.3125 326.7218,860.3125 C326.4249,860.3125 326.2218,860.4063 326.003,860.7188 L325.8312,860.6406 Z " fill="#000000"/><text fill="#000000" font-family="sans-serif" font-size="12" font-style="italic" lengthAdjust="spacing" textLength="58" x="335.4874" y="862.1387">«Service»</text><text fill="#000000" font-family="sans-serif" font-size="12" lengthAdjust="spacing" textLength="37" x="345.9874" y="876.1074">Group</text><line style="stroke:#A80036;stroke-width:1.5;" x1="309.4874" x2="393.4874" y1="883.9375" y2="883.9375"/><line style="stroke:#A80036;stroke-width:1.5;" x1="309.4874" x2="393.4874" y1="891.9375" y2="891.9375"/><!--MD5=[c680266cf9e454ca06c2d1bb8b683e6b]
class Schedule--><rect codeLine="14" fill="#FEFECE" filter="url(#f1hi6umrx1hjhf)" height="143.5703" id="Schedule" style="stroke:#A80036;stroke-width:1.5;" width="110" x="470.4874" y="307"/><ellipse cx="495.3874" cy="325.9688" fill="#ADD1B2" rx="11" ry="11" style="stroke:#A80036;stroke-width:1.0;"/><path d="M497.7312,321.6406 C496.7937,321.2031 496.1999,321.0625 495.3249,321.0625 C492.6999,321.0625 490.6999,323.1406 490.6999,325.8594 L490.6999,326.9844 C490.6999,329.5625 492.8093,331.4531 495.6999,331.4531 C496.9187,331.4531 498.0749,331.1563 498.8249,330.6094 C499.403,330.2031 499.7312,329.75 499.7312,329.3594 C499.7312,328.9063 499.3405,328.5156 498.8718,328.5156 C498.653,328.5156 498.4499,328.5938 498.2624,328.7813 C497.8093,329.2656 497.8093,329.2656 497.6218,329.3594 C497.1999,329.625 496.5124,329.75 495.7468,329.75 C493.6999,329.75 492.403,328.6563 492.403,326.9531 L492.403,325.8594 C492.403,324.0781 493.653,322.7656 495.3874,322.7656 C495.9655,322.7656 496.5749,322.9219 497.0437,323.1719 C497.528,323.4531 497.6999,323.6719 497.7937,324.0781 C497.8562,324.4844 497.8874,324.6094 498.028,324.7344 C498.1687,324.875 498.403,324.9844 498.6218,324.9844 C498.8874,324.9844 499.153,324.8438 499.3249,324.625 C499.4343,324.4688 499.4655,324.2813 499.4655,323.8594 L499.4655,322.4375 C499.4655,322 499.4499,321.875 499.3562,321.7188 C499.1999,321.4531 498.9187,321.3125 498.6218,321.3125 C498.3249,321.3125 498.1218,321.4063 497.903,321.7188 L497.7312,321.6406 Z " fill="#000000"/><text fill="#000000" font-family="sans-serif" font-size="12" font-style="italic" lengthAdjust="spacing" textLength="57" x="511.0874" y="323.1387">«Horaire»</text><text fill="#000000" font-family="sans-serif" font-size="12" lengthAdjust="spacing" textLength="56" x="511.5874" y="337.1074">Schedule</text><line style="stroke:#A80036;stroke-width:1.5;" x1="471.4874" x2="579.4874" y1="344.9375" y2="344.9375"/><text fill="#000000" font-family="sans-serif" font-size="11" lengthAdjust="spacing" textLength="89" x="476.4874" y="359.1479">group_id: string;</text><text fill="#000000" font-family="sans-serif" font-size="11" lengthAdjust="spacing" textLength="62" x="476.4874" y="371.9526">day: string;</text><text fill="#000000" font-family="sans-serif" font-size="11" lengthAdjust="spacing" textLength="72" x="476.4874" y="384.7573">hours: string;</text><text fill="#000000" font-family="sans-serif" font-size="11" lengthAdjust="spacing" textLength="82" x="476.4874" y="397.562">activity: string;</text><text fill="#000000" font-family="sans-serif" font-size="11" lengthAdjust="spacing" textLength="71" x="476.4874" y="410.3667">mode: string</text><text fill="#000000" font-family="sans-serif" font-size="11" lengthAdjust="spacing" textLength="64" x="476.4874" y="423.1714">local: string</text><text fill="#000000" font-family="sans-serif" font-size="11" lengthAdjust="spacing" textLength="98" x="476.4874" y="435.9761">teacher_id: string</text><line style="stroke:#A80036;stroke-width:1.5;" x1="471.4874" x2="579.4874" y1="442.5703" y2="442.5703"/><!--MD5=[4066b0363c5a91ff3b6e03e0428953a9]
class Course--><rect codeLine="24" fill="#FEFECE" filter="url(#f1hi6umrx1hjhf)" height="79.5469" id="Course" style="stroke:#A80036;stroke-width:1.5;" width="160" x="384.4874" y="689"/><ellipse cx="399.4874" cy="707.9688" fill="#ADD1B2" rx="11" ry="11" style="stroke:#A80036;stroke-width:1.0;"/><path d="M401.8312,703.6406 C400.8937,703.2031 400.2999,703.0625 399.4249,703.0625 C396.7999,703.0625 394.7999,705.1406 394.7999,707.8594 L394.7999,708.9844 C394.7999,711.5625 396.9093,713.4531 399.7999,713.4531 C401.0187,713.4531 402.1749,713.1563 402.9249,712.6094 C403.503,712.2031 403.8312,711.75 403.8312,711.3594 C403.8312,710.9063 403.4405,710.5156 402.9718,710.5156 C402.753,710.5156 402.5499,710.5938 402.3624,710.7813 C401.9093,711.2656 401.9093,711.2656 401.7218,711.3594 C401.2999,711.625 400.6124,711.75 399.8468,711.75 C397.7999,711.75 396.503,710.6563 396.503,708.9531 L396.503,707.8594 C396.503,706.0781 397.753,704.7656 399.4874,704.7656 C400.0655,704.7656 400.6749,704.9219 401.1437,705.1719 C401.628,705.4531 401.7999,705.6719 401.8937,706.0781 C401.9562,706.4844 401.9874,706.6094 402.128,706.7344 C402.2687,706.875 402.503,706.9844 402.7218,706.9844 C402.9874,706.9844 403.253,706.8438 403.4249,706.625 C403.5343,706.4688 403.5655,706.2813 403.5655,705.8594 L403.5655,704.4375 C403.5655,704 403.5499,703.875 403.4562,703.7188 C403.2999,703.4531 403.0187,703.3125 402.7218,703.3125 C402.4249,703.3125 402.2218,703.4063 402.003,703.7188 L401.8312,703.6406 Z " fill="#000000"/><text fill="#000000" font-family="sans-serif" font-size="12" font-style="italic" lengthAdjust="spacing" textLength="132" x="411.4874" y="705.1387">«Description d'entite»</text><text fill="#000000" font-family="sans-serif" font-size="12" lengthAdjust="spacing" textLength="43" x="455.9874" y="719.1074">Course</text><line style="stroke:#A80036;stroke-width:1.5;" x1="385.4874" x2="543.4874" y1="726.9375" y2="726.9375"/><text fill="#000000" font-family="sans-serif" font-size="11" lengthAdjust="spacing" textLength="51" x="390.4874" y="741.1479">id: string;</text><text fill="#000000" font-family="sans-serif" font-size="11" lengthAdjust="spacing" textLength="64" x="390.4874" y="753.9526">titre: string;</text><line style="stroke:#A80036;stroke-width:1.5;" x1="385.4874" x2="543.4874" y1="760.5469" y2="760.5469"/><!--MD5=[d6181cb537bdc20c0a3007a98a56832d]
class Student--><rect codeLine="29" fill="#FEFECE" filter="url(#f1hi6umrx1hjhf)" height="53.9375" id="Student" style="stroke:#A80036;stroke-width:1.5;" width="78" x="64.4871" y="543"/><ellipse cx="79.4871" cy="561.9688" fill="#ADD1B2" rx="11" ry="11" style="stroke:#A80036;stroke-width:1.0;"/><path d="M81.8309,557.6406 C80.8934,557.2031 80.2996,557.0625 79.4246,557.0625 C76.7996,557.0625 74.7996,559.1406 74.7996,561.8594 L74.7996,562.9844 C74.7996,565.5625 76.909,567.4531 79.7996,567.4531 C81.0184,567.4531 82.1746,567.1563 82.9246,566.6094 C83.5027,566.2031 83.8309,565.75 83.8309,565.3594 C83.8309,564.9063 83.4402,564.5156 82.9715,564.5156 C82.7527,564.5156 82.5496,564.5938 82.3621,564.7813 C81.909,565.2656 81.909,565.2656 81.7215,565.3594 C81.2996,565.625 80.6121,565.75 79.8465,565.75 C77.7996,565.75 76.5027,564.6563 76.5027,562.9531 L76.5027,561.8594 C76.5027,560.0781 77.7527,558.7656 79.4871,558.7656 C80.0652,558.7656 80.6746,558.9219 81.1434,559.1719 C81.6277,559.4531 81.7996,559.6719 81.8934,560.0781 C81.9559,560.4844 81.9871,560.6094 82.1277,560.7344 C82.2684,560.875 82.5027,560.9844 82.7215,560.9844 C82.9871,560.9844 83.2527,560.8438 83.4246,560.625 C83.534,560.4688 83.5652,560.2813 83.5652,559.8594 L83.5652,558.4375 C83.5652,558 83.5496,557.875 83.4559,557.7188 C83.2996,557.4531 83.0184,557.3125 82.7215,557.3125 C82.4246,557.3125 82.2215,557.4063 82.0027,557.7188 L81.8309,557.6406 Z " fill="#000000"/><text fill="#000000" font-family="sans-serif" font-size="12" font-style="italic" lengthAdjust="spacing" textLength="39" x="96.9871" y="559.1387">«Role»</text><text fill="#000000" font-family="sans-serif" font-size="12" lengthAdjust="spacing" textLength="46" x="93.4871" y="573.1074">Student</text><line style="stroke:#A80036;stroke-width:1.5;" x1="65.4871" x2="141.4871" y1="580.9375" y2="580.9375"/><line style="stroke:#A80036;stroke-width:1.5;" x1="65.4871" x2="141.4871" y1="588.9375" y2="588.9375"/><!--MD5=[61a83f88cb8b7d3a80bc8c481f3736bf]
class Teacher--><rect codeLine="32" fill="#FEFECE" filter="url(#f1hi6umrx1hjhf)" height="53.9375" id="Teacher" style="stroke:#A80036;stroke-width:1.5;" width="81" x="403.9874" y="543"/><ellipse cx="418.9874" cy="561.9688" fill="#ADD1B2" rx="11" ry="11" style="stroke:#A80036;stroke-width:1.0;"/><path d="M421.3312,557.6406 C420.3937,557.2031 419.7999,557.0625 418.9249,557.0625 C416.2999,557.0625 414.2999,559.1406 414.2999,561.8594 L414.2999,562.9844 C414.2999,565.5625 416.4093,567.4531 419.2999,567.4531 C420.5187,567.4531 421.6749,567.1563 422.4249,566.6094 C423.003,566.2031 423.3312,565.75 423.3312,565.3594 C423.3312,564.9063 422.9405,564.5156 422.4718,564.5156 C422.253,564.5156 422.0499,564.5938 421.8624,564.7813 C421.4093,565.2656 421.4093,565.2656 421.2218,565.3594 C420.7999,565.625 420.1124,565.75 419.3468,565.75 C417.2999,565.75 416.003,564.6563 416.003,562.9531 L416.003,561.8594 C416.003,560.0781 417.253,558.7656 418.9874,558.7656 C419.5655,558.7656 420.1749,558.9219 420.6437,559.1719 C421.128,559.4531 421.2999,559.6719 421.3937,560.0781 C421.4562,560.4844 421.4874,560.6094 421.628,560.7344 C421.7687,560.875 422.003,560.9844 422.2218,560.9844 C422.4874,560.9844 422.753,560.8438 422.9249,560.625 C423.0343,560.4688 423.0655,560.2813 423.0655,559.8594 L423.0655,558.4375 C423.0655,558 423.0499,557.875 422.9562,557.7188 C422.7999,557.4531 422.5187,557.3125 422.2218,557.3125 C421.9249,557.3125 421.7218,557.4063 421.503,557.7188 L421.3312,557.6406 Z " fill="#000000"/><text fill="#000000" font-family="sans-serif" font-size="12" font-style="italic" lengthAdjust="spacing" textLength="39" x="437.9874" y="559.1387">«Role»</text><text fill="#000000" font-family="sans-serif" font-size="12" lengthAdjust="spacing" textLength="49" x="432.9874" y="573.1074">Teacher</text><line style="stroke:#A80036;stroke-width:1.5;" x1="404.9874" x2="483.9874" y1="580.9375" y2="580.9375"/><line style="stroke:#A80036;stroke-width:1.5;" x1="404.9874" x2="483.9874" y1="588.9375" y2="588.9375"/><!--MD5=[64e7a81d370390ac66d73872e4f36773]
class Grade--><rect codeLine="36" fill="#FEFECE" filter="url(#f1hi6umrx1hjhf)" height="117.9609" id="Grade" style="stroke:#A80036;stroke-width:1.5;" width="149" x="64.9871" y="320"/><ellipse cx="79.9871" cy="338.9688" fill="#ADD1B2" rx="11" ry="11" style="stroke:#A80036;stroke-width:1.0;"/><path d="M82.3309,334.6406 C81.3934,334.2031 80.7996,334.0625 79.9246,334.0625 C77.2996,334.0625 75.2996,336.1406 75.2996,338.8594 L75.2996,339.9844 C75.2996,342.5625 77.409,344.4531 80.2996,344.4531 C81.5184,344.4531 82.6746,344.1563 83.4246,343.6094 C84.0027,343.2031 84.3309,342.75 84.3309,342.3594 C84.3309,341.9063 83.9402,341.5156 83.4715,341.5156 C83.2527,341.5156 83.0496,341.5938 82.8621,341.7813 C82.409,342.2656 82.409,342.2656 82.2215,342.3594 C81.7996,342.625 81.1121,342.75 80.3465,342.75 C78.2996,342.75 77.0027,341.6563 77.0027,339.9531 L77.0027,338.8594 C77.0027,337.0781 78.2527,335.7656 79.9871,335.7656 C80.5652,335.7656 81.1746,335.9219 81.6434,336.1719 C82.1277,336.4531 82.2996,336.6719 82.3934,337.0781 C82.4559,337.4844 82.4871,337.6094 82.6277,337.7344 C82.7684,337.875 83.0027,337.9844 83.2215,337.9844 C83.4871,337.9844 83.7527,337.8438 83.9246,337.625 C84.034,337.4688 84.0652,337.2813 84.0652,336.8594 L84.0652,335.4375 C84.0652,335 84.0496,334.875 83.9559,334.7188 C83.7996,334.4531 83.5184,334.3125 83.2215,334.3125 C82.9246,334.3125 82.7215,334.4063 82.5027,334.7188 L82.3309,334.6406 Z " fill="#000000"/><text fill="#000000" font-family="sans-serif" font-size="12" font-style="italic" lengthAdjust="spacing" textLength="121" x="91.9871" y="336.1387">«Document légaux»</text><text fill="#000000" font-family="sans-serif" font-size="12" lengthAdjust="spacing" textLength="37" x="133.9871" y="350.1074">Grade</text><line style="stroke:#A80036;stroke-width:1.5;" x1="65.9871" x2="212.9871" y1="357.9375" y2="357.9375"/><text fill="#000000" font-family="sans-serif" font-size="11" lengthAdjust="spacing" textLength="100" x="70.9871" y="372.1479">student_id: string;</text><text fill="#000000" font-family="sans-serif" font-size="11" lengthAdjust="spacing" textLength="89" x="70.9871" y="384.9526">group_id: string;</text><text fill="#000000" font-family="sans-serif" font-size="11" lengthAdjust="spacing" textLength="67" x="70.9871" y="397.7573">type: string;</text><text fill="#000000" font-family="sans-serif" font-size="11" lengthAdjust="spacing" textLength="93" x="70.9871" y="410.562">type_id: integer;</text><text fill="#000000" font-family="sans-serif" font-size="11" lengthAdjust="spacing" textLength="80" x="70.9871" y="423.3667">note: number;</text><line style="stroke:#A80036;stroke-width:1.5;" x1="65.9871" x2="212.9871" y1="429.9609" y2="429.9609"/><!--MD5=[9f93fc4de6aba39e63ecc8b5110a2944]
class University--><rect codeLine="43" fill="#FEFECE" filter="url(#f1hi6umrx1hjhf)" height="53.9375" id="University" style="stroke:#A80036;stroke-width:1.5;" width="178" x="326.4874" y="7"/><ellipse cx="341.4874" cy="25.9688" fill="#ADD1B2" rx="11" ry="11" style="stroke:#A80036;stroke-width:1.0;"/><path d="M343.8312,21.6406 C342.8937,21.2031 342.2999,21.0625 341.4249,21.0625 C338.7999,21.0625 336.7999,23.1406 336.7999,25.8594 L336.7999,26.9844 C336.7999,29.5625 338.9093,31.4531 341.7999,31.4531 C343.0187,31.4531 344.1749,31.1563 344.9249,30.6094 C345.503,30.2031 345.8312,29.75 345.8312,29.3594 C345.8312,28.9063 345.4405,28.5156 344.9718,28.5156 C344.753,28.5156 344.5499,28.5938 344.3624,28.7813 C343.9093,29.2656 343.9093,29.2656 343.7218,29.3594 C343.2999,29.625 342.6124,29.75 341.8468,29.75 C339.7999,29.75 338.503,28.6563 338.503,26.9531 L338.503,25.8594 C338.503,24.0781 339.753,22.7656 341.4874,22.7656 C342.0655,22.7656 342.6749,22.9219 343.1437,23.1719 C343.628,23.4531 343.7999,23.6719 343.8937,24.0781 C343.9562,24.4844 343.9874,24.6094 344.128,24.7344 C344.2687,24.875 344.503,24.9844 344.7218,24.9844 C344.9874,24.9844 345.253,24.8438 345.4249,24.625 C345.5343,24.4688 345.5655,24.2813 345.5655,23.8594 L345.5655,22.4375 C345.5655,22 345.5499,21.875 345.4562,21.7188 C345.2999,21.4531 345.0187,21.3125 344.7218,21.3125 C344.4249,21.3125 344.2218,21.4063 344.003,21.7188 L343.8312,21.6406 Z " fill="#000000"/><text fill="#000000" font-family="sans-serif" font-size="12" font-style="italic" lengthAdjust="spacing" textLength="150" x="353.4874" y="23.1387">«Facultatif,Organisation»</text><text fill="#000000" font-family="sans-serif" font-size="12" lengthAdjust="spacing" textLength="60" x="398.4874" y="37.1074">University</text><line style="stroke:#A80036;stroke-width:1.5;" x1="327.4874" x2="503.4874" y1="44.9375" y2="44.9375"/><line style="stroke:#A80036;stroke-width:1.5;" x1="327.4874" x2="503.4874" y1="52.9375" y2="52.9375"/><!--MD5=[29fe19ce294944fa80f389ae9bd987a4]
reverse link User to Student--><path d="M280.6104,443.627 C268.6634,467.798 252.3414,494.044 231.4874,513 C206.2684,535.922 170.1764,550.552 142.7414,559.086 " fill="none" id="User-backto-Student" style="stroke:#A80036;stroke-width:1.0;"/><polygon fill="none" points="274.3384,440.511,289.0754,425.285,287.0504,446.378,274.3384,440.511" style="stroke:#A80036;stroke-width:1.0;"/><!--MD5=[d87c224b488f6c9759d0a77cb4053101]
reverse link User to Teacher--><path d="M341.0484,442.314 C355.1164,465.268 372.0754,491.016 389.4874,513 C397.6094,523.255 407.3744,533.694 416.4074,542.737 " fill="none" id="User-backto-Teacher" style="stroke:#A80036;stroke-width:1.0;"/><polygon fill="none" points="334.9594,445.772,330.6644,425.022,346.9624,438.564,334.9594,445.772" style="stroke:#A80036;stroke-width:1.0;"/><!--MD5=[ef3d4ed75fd70af56cb5183963ffa490]
link Course to Group--><path codeLine="45" d="M433.3104,769.178 C413.8424,793.641 389.3184,824.4599 372.2184,845.9486 " fill="none" id="Course-Group" style="stroke:#A80036;stroke-width:1.0;"/><polygon fill="#000000" points="410.374,811.4788,418.3058,806.2312,413.7065,802.5712,410.374,811.4788" style="stroke:#000000;stroke-width:1.0;"/><text fill="#000000" font-family="sans-serif" font-size="13" lengthAdjust="spacing" textLength="36" x="422.4874" y="812.0669">décrit</text><text fill="#000000" font-family="sans-serif" font-size="13" lengthAdjust="spacing" textLength="8" x="419.9239" y="788.5904">1</text><text fill="#000000" font-family="sans-serif" font-size="13" lengthAdjust="spacing" textLength="7" x="369.2031" y="835.0481">*</text><!--MD5=[a9d06c442cf2e60568c5a2d1df8ac3d4]
link Schedule to Group--><path codeLine="46" d="M580.6594,391.596 C644.8744,408.375 739.8514,445.122 720.4874,513 C683.7444,641.799 660.4564,678.754 561.4874,769 C512.4274,813.7353 440.3744,843.3422 394.7104,858.8971 " fill="none" id="Schedule-Group" style="stroke:#A80036;stroke-width:1.0;"/><polygon fill="#000000" points="687.336,638.4207,681.2612,645.7383,686.7225,647.9115,687.336,638.4207" style="stroke:#000000;stroke-width:1.0;"/><text fill="#000000" font-family="sans-serif" font-size="13" lengthAdjust="spacing" textLength="76" x="694.4874" y="647.5669">Offert selon</text><text fill="#000000" font-family="sans-serif" font-size="13" lengthAdjust="spacing" textLength="7" x="588.5435" y="389.3855">*</text><text fill="#000000" font-family="sans-serif" font-size="13" lengthAdjust="spacing" textLength="8" x="402.5317" y="852.4022">1</text><!--MD5=[db026a837c735e23d1fd3644146fd6a5]
link Schedule to Teacher--><path codeLine="47" d="M484.3674,451.088 C479.3604,460.978 474.5774,471.132 470.4874,481 C462.1294,501.161 455.2714,524.946 450.7004,542.702 " fill="none" id="Schedule-Teacher" style="stroke:#A80036;stroke-width:1.0;"/><polygon fill="#000000" points="477.2121,492.3733,471.3336,499.8495,476.8507,501.877,477.2121,492.3733" style="stroke:#000000;stroke-width:1.0;"/><text fill="#000000" font-family="sans-serif" font-size="13" lengthAdjust="spacing" textLength="231" x="484.4874" y="501.5669">Enseigne dans un group cours selon</text><text fill="#000000" font-family="sans-serif" font-size="13" lengthAdjust="spacing" textLength="7" x="473.254" y="470.5178">*</text><text fill="#000000" font-family="sans-serif" font-size="13" lengthAdjust="spacing" textLength="8" x="443.2122" y="531.7444">1</text><!--MD5=[ad86e55f2558bd5feae5bc127ed957a1]
link Semester to Schedule--><path codeLine="48" d="M525.4874,230.25 C525.4874,253.09 525.4874,281.327 525.4874,306.976 " fill="none" id="Semester-Schedule" style="stroke:#A80036;stroke-width:1.0;"/><polygon fill="#000000" points="530.4874,273.5664,533.4263,264.5213,527.5485,264.5213,530.4874,273.5664" style="stroke:#000000;stroke-width:1.0;"/><text fill="#000000" font-family="sans-serif" font-size="13" lengthAdjust="spacing" textLength="186" x="539.4874" y="273.0669">Offre des groupe cours selon</text><text fill="#000000" font-family="sans-serif" font-size="13" lengthAdjust="spacing" textLength="8" x="516.8749" y="250.5306">1</text><text fill="#000000" font-family="sans-serif" font-size="13" lengthAdjust="spacing" textLength="7" x="518.1265" y="295.871">*</text><!--MD5=[63bb888ead92909d30749399c6b1f1cd]
link Grade to Student--><path codeLine="49" d="M98.6798,438.025 C91.1782,451.542 84.4665,466.299 80.4871,481 C74.876,501.73 81.7179,525.27 89.3651,542.784 " fill="none" id="Grade-Student" style="stroke:#A80036;stroke-width:1.0;"/><text fill="#000000" font-family="sans-serif" font-size="13" lengthAdjust="spacing" textLength="81" x="113.4871" y="494.0669">effectue des</text><polygon fill="#000000" points="86.9299,499.7189,83.2015,508.4681,89.0562,508.9887,86.9299,499.7189" style="stroke:#000000;stroke-width:1.0;"/><text fill="#000000" font-family="sans-serif" font-size="13" lengthAdjust="spacing" textLength="132" x="94.4871" y="509.1997">travaux pour obtenir</text><text fill="#000000" font-family="sans-serif" font-size="13" lengthAdjust="spacing" textLength="7" x="86.2798" y="458.2101">*</text><text fill="#000000" font-family="sans-serif" font-size="13" lengthAdjust="spacing" textLength="8" x="87.0244" y="531.8454">1</text><!--MD5=[575915f953b4252a6e2b0c75b341eb0c]
link Grade to Group--><path codeLine="50" d="M203.5144,438.128 C215.4064,451.308 226.8004,465.903 235.4874,481 C276.5904,552.437 264.0734,579.978 287.4874,659 C307.4514,726.379 331.3764,805.6106 343.5404,845.7863 " fill="none" id="Grade-Group" style="stroke:#A80036;stroke-width:1.0;"/><text fill="#000000" font-family="sans-serif" font-size="13" lengthAdjust="spacing" textLength="146" x="297.9874" y="640.0669">demande la réalisation</text><polygon fill="#000000" points="291.8631,645.9704,292.022,655.4796,297.581,653.5702,291.8631,645.9704" style="stroke:#000000;stroke-width:1.0;"/><text fill="#000000" font-family="sans-serif" font-size="13" lengthAdjust="spacing" textLength="152" x="301.4874" y="655.1997">de travaux pour obtenir</text><text fill="#000000" font-family="sans-serif" font-size="13" lengthAdjust="spacing" textLength="7" x="203.5129" y="457.9087">*</text><text fill="#000000" font-family="sans-serif" font-size="13" lengthAdjust="spacing" textLength="8" x="332.7777" y="834.8482">1</text><!--MD5=[c23d87697d59a5625890325406da6336]
link Teacher to Course--><path codeLine="51" d="M454.6154,597.101 C457.7534,606.394 460.8224,617.028 462.4874,627 C465.8654,647.24 466.5734,670.076 466.3464,688.907 " fill="none" id="Teacher-Course" style="stroke:#A80036;stroke-width:1.0;"/><polygon fill="#000000" points="472.1211,648.0261,473.8899,638.6814,468.0595,639.4265,472.1211,648.0261" style="stroke:#000000;stroke-width:1.0;"/><text fill="#000000" font-family="sans-serif" font-size="13" lengthAdjust="spacing" textLength="122" x="480.4874" y="647.5669">est responsable de</text><text fill="#000000" font-family="sans-serif" font-size="13" lengthAdjust="spacing" textLength="8" x="448.0325" y="617.192">1</text><text fill="#000000" font-family="sans-serif" font-size="13" lengthAdjust="spacing" textLength="7" x="459.0644" y="677.8442">*</text><!--MD5=[41a1d172a390896d55d4895443325c3c]
link Student to Group--><path codeLine="52" d="M109.8557,597.035 C120.8315,637.58 146.5694,716.586 191.4874,769 C223.6254,806.5019 272.7934,835.3296 308.1404,852.8248 " fill="none" id="Student-Group" style="stroke:#A80036;stroke-width:1.0;"/><polygon fill="#000000" points="199.5507,733.0181,196.3319,724.0688,191.6864,727.67,199.5507,733.0181" style="stroke:#000000;stroke-width:1.0;"/><text fill="#000000" font-family="sans-serif" font-size="13" lengthAdjust="spacing" textLength="62" x="205.4874" y="733.5669">est inscrit</text><text fill="#000000" font-family="sans-serif" font-size="13" lengthAdjust="spacing" textLength="8" x="102.4034" y="617.1107">1</text><text fill="#000000" font-family="sans-serif" font-size="13" lengthAdjust="spacing" textLength="7" x="293.3814" y="845.3242">*</text><!--MD5=[f8a8fe4298180942a42be713e5ee4354]
link University to Teacher--><path codeLine="53" d="M416.9054,61.117 C421.8294,151.786 438.1514,452.342 443.0714,542.933 " fill="none" id="University-Teacher" style="stroke:#A80036;stroke-width:1.0;"/><polygon fill="#000000" points="433.7585,273.559,436.2026,264.3679,430.3334,264.6866,433.7585,273.559" style="stroke:#000000;stroke-width:1.0;"/><text fill="#000000" font-family="sans-serif" font-size="13" lengthAdjust="spacing" textLength="51" x="442.4874" y="273.0669">emploie</text><text fill="#000000" font-family="sans-serif" font-size="13" lengthAdjust="spacing" textLength="8" x="408.3083" y="81.2117">1</text><text fill="#000000" font-family="sans-serif" font-size="13" lengthAdjust="spacing" textLength="7" x="434.9346" y="532.0289">*</text><!--MD5=[cccb401858a704bc77648edc8157e2b7]
link University to Student--><path codeLine="54" d="M349.7024,61.015 C262.0634,99.714 110.7243,181.624 47.4871,307 C6,389.254 30.9256,429.803 70.4871,513 C75.2363,522.987 81.1854,533.535 86.7197,542.75 " fill="none" id="University-Student" style="stroke:#A80036;stroke-width:1.0;"/><polygon fill="#000000" points="77.0913,272.955,84.0049,266.4241,78.8458,263.6077,77.0913,272.955" style="stroke:#000000;stroke-width:1.0;"/><text fill="#000000" font-family="sans-serif" font-size="13" lengthAdjust="spacing" textLength="117" x="88.4871" y="273.0669">Offre des services</text><text fill="#000000" font-family="sans-serif" font-size="13" lengthAdjust="spacing" textLength="8" x="325.5646" y="81.0861">1</text><text fill="#000000" font-family="sans-serif" font-size="13" lengthAdjust="spacing" textLength="7" x="75.0329" y="531.8035">*</text><!--MD5=[e362cc96273ade0d1f4a5d16440b84cb]
link University to Semester--><path codeLine="55" d="M434.8994,61.119 C450.6894,82.363 473.3364,112.833 492.0354,137.992 " fill="none" id="University-Semester" style="stroke:#A80036;stroke-width:1.0;"/><polygon fill="#000000" points="475.47,103.5794,472.4332,94.5667,467.7156,98.073,475.47,103.5794" style="stroke:#000000;stroke-width:1.0;"/><text fill="#000000" font-family="sans-serif" font-size="13" lengthAdjust="spacing" textLength="31" x="481.4874" y="104.0669">Gère</text><text fill="#000000" font-family="sans-serif" font-size="13" lengthAdjust="spacing" textLength="8" x="430.4634" y="81.2141">1</text><text fill="#000000" font-family="sans-serif" font-size="13" lengthAdjust="spacing" textLength="7" x="479.3771" y="126.8487">*</text><!--MD5=[1c89b3fc7daa3a3758c8ef45f302d7c3]
@startuml
class Semester <<Planification>>  {
  name: string;
  start: string;
  end: string;
}
class User <<Role>> {
  first_name: string;
  last_name: string;
  id: string;
}

class Group <<Service>>

class Schedule <<Horaire>> {
  group_id: string;
  day: string;
  hours: string;
  activity: string;
  mode: string
  local: string
  teacher_id: string
}

 class Course <<Description d'entite>> {
  id: string;
  titre: string;
}

class Student <<Role>> extends User {
}

class Teacher <<Role>> extends User {
  
}

class Grade <<Document légaux>> {
  student_id: string;
  group_id: string;
  type: string;
  type_id: integer;
  note: number;
}
class University <<Facultatif,Organisation>>

Course "1" - - "*" Group : décrit >
Schedule "*" - - "1" Group : Offert selon <
Schedule "*" - - "1" Teacher : Enseigne dans un group cours selon <
Semester "1" - - "*" Schedule: Offre des groupe cours selon >
Grade "*" - -  "1" Student: effectue des\n travaux pour obtenir <
Grade "*" - - "1" Group : demande la réalisation\nde travaux pour obtenir <
Teacher "1" - - "*" Course: est responsable de > 
Student "1" - - "*" Group : est inscrit >
University "1" -r- "*" Teacher: emploie >
University "1" -r- "*" Student: Offre des services >
University "1" -d- "*" Semester: Gère >
@enduml

PlantUML version 1.2021.11beta6(Unknown compile time)
(GPL source distribution)
Java Runtime: Java(TM) SE Runtime Environment
JVM: Java HotSpot(TM) 64-Bit Server VM
Default Encoding: UTF-8
Language: en
Country: US
--></g></svg>