<?xml version="1.0" encoding="UTF-8" standalone="no"?><svg xmlns="http://www.w3.org/2000/svg" xmlns:xlink="http://www.w3.org/1999/xlink" contentScriptType="application/ecmascript" contentStyleType="text/css" height="515px" preserveAspectRatio="none" style="width:2993px;height:515px;background:#FFFFFF;" version="1.1" viewBox="0 0 2993 515" width="2993px" zoomAndPan="magnify"><defs><filter height="300%" id="f1ehys2m007gi6" width="300%" x="-1" y="-1"><feGaussianBlur result="blurOut" stdDeviation="2.0"/><feColorMatrix in="blurOut" result="blurOut2" type="matrix" values="0 0 0 0 0 0 0 0 0 0 0 0 0 0 0 0 0 0 .4 0"/><feOffset dx="4.0" dy="4.0" in="blurOut2" result="blurOut3"/><feBlend in="SourceGraphic" in2="blurOut3" mode="normal"/></filter></defs><g><!--MD5=[4066b0363c5a91ff3b6e03e0428953a9]
class Course--><rect codeLine="1" fill="#FEFECE" filter="url(#f1ehys2m007gi6)" height="60.8047" id="Course" style="stroke:#A80036;stroke-width:1.5;" width="130" x="100.5" y="45.5"/><ellipse cx="140.25" cy="61.5" fill="#ADD1B2" rx="11" ry="11" style="stroke:#A80036;stroke-width:1.0;"/><path d="M142.5938,57.1719 C141.6563,56.7344 141.0625,56.5938 140.1875,56.5938 C137.5625,56.5938 135.5625,58.6719 135.5625,61.3906 L135.5625,62.5156 C135.5625,65.0938 137.6719,66.9844 140.5625,66.9844 C141.7813,66.9844 142.9375,66.6875 143.6875,66.1406 C144.2656,65.7344 144.5938,65.2813 144.5938,64.8906 C144.5938,64.4375 144.2031,64.0469 143.7344,64.0469 C143.5156,64.0469 143.3125,64.125 143.125,64.3125 C142.6719,64.7969 142.6719,64.7969 142.4844,64.8906 C142.0625,65.1563 141.375,65.2813 140.6094,65.2813 C138.5625,65.2813 137.2656,64.1875 137.2656,62.4844 L137.2656,61.3906 C137.2656,59.6094 138.5156,58.2969 140.25,58.2969 C140.8281,58.2969 141.4375,58.4531 141.9063,58.7031 C142.3906,58.9844 142.5625,59.2031 142.6563,59.6094 C142.7188,60.0156 142.75,60.1406 142.8906,60.2656 C143.0313,60.4063 143.2656,60.5156 143.4844,60.5156 C143.75,60.5156 144.0156,60.375 144.1875,60.1563 C144.2969,60 144.3281,59.8125 144.3281,59.3906 L144.3281,57.9688 C144.3281,57.5313 144.3125,57.4063 144.2188,57.25 C144.0625,56.9844 143.7813,56.8438 143.4844,56.8438 C143.1875,56.8438 142.9844,56.9375 142.7656,57.25 L142.5938,57.1719 Z " fill="#000000"/><text fill="#000000" font-family="sans-serif" font-size="12" lengthAdjust="spacing" textLength="43" x="159.75" y="65.6543">Course</text><line style="stroke:#A80036;stroke-width:1.5;" x1="101.5" x2="229.5" y1="77.5" y2="77.5"/><line style="stroke:#A80036;stroke-width:1.5;" x1="101.5" x2="229.5" y1="85.5" y2="85.5"/><ellipse cx="111.5" cy="96.5" fill="#84BE84" rx="3" ry="3" style="stroke:#038048;stroke-width:1.0;"/><text fill="#000000" font-family="sans-serif" font-size="11" lengthAdjust="spacing" text-decoration="underline" textLength="104" x="120.5" y="99.7104">all(): CourseJSON[]</text><!--MD5=[7a429f52654fdc9202befee971fc9994]
class CourseController--><rect codeLine="4" fill="#FEFECE" filter="url(#f1ehys2m007gi6)" height="60.8047" id="CourseController" style="stroke:#A80036;stroke-width:1.5;" width="134" x="1124.5" y="224"/><ellipse cx="1139.5" cy="240" fill="#ADD1B2" rx="11" ry="11" style="stroke:#A80036;stroke-width:1.0;"/><path d="M1141.8438,235.6719 C1140.9063,235.2344 1140.3125,235.0938 1139.4375,235.0938 C1136.8125,235.0938 1134.8125,237.1719 1134.8125,239.8906 L1134.8125,241.0156 C1134.8125,243.5938 1136.9219,245.4844 1139.8125,245.4844 C1141.0313,245.4844 1142.1875,245.1875 1142.9375,244.6406 C1143.5156,244.2344 1143.8438,243.7813 1143.8438,243.3906 C1143.8438,242.9375 1143.4531,242.5469 1142.9844,242.5469 C1142.7656,242.5469 1142.5625,242.625 1142.375,242.8125 C1141.9219,243.2969 1141.9219,243.2969 1141.7344,243.3906 C1141.3125,243.6563 1140.625,243.7813 1139.8594,243.7813 C1137.8125,243.7813 1136.5156,242.6875 1136.5156,240.9844 L1136.5156,239.8906 C1136.5156,238.1094 1137.7656,236.7969 1139.5,236.7969 C1140.0781,236.7969 1140.6875,236.9531 1141.1563,237.2031 C1141.6406,237.4844 1141.8125,237.7031 1141.9063,238.1094 C1141.9688,238.5156 1142,238.6406 1142.1406,238.7656 C1142.2813,238.9063 1142.5156,239.0156 1142.7344,239.0156 C1143,239.0156 1143.2656,238.875 1143.4375,238.6563 C1143.5469,238.5 1143.5781,238.3125 1143.5781,237.8906 L1143.5781,236.4688 C1143.5781,236.0313 1143.5625,235.9063 1143.4688,235.75 C1143.3125,235.4844 1143.0313,235.3438 1142.7344,235.3438 C1142.4375,235.3438 1142.2344,235.4375 1142.0156,235.75 L1141.8438,235.6719 Z " fill="#000000"/><text fill="#000000" font-family="sans-serif" font-size="12" lengthAdjust="spacing" textLength="102" x="1153.5" y="244.1543">CourseController</text><line style="stroke:#A80036;stroke-width:1.5;" x1="1125.5" x2="1257.5" y1="256" y2="256"/><line style="stroke:#A80036;stroke-width:1.5;" x1="1125.5" x2="1257.5" y1="264" y2="264"/><ellipse cx="1135.5" cy="275" fill="#84BE84" rx="3" ry="3" style="stroke:#038048;stroke-width:1.0;"/><text fill="#000000" font-family="sans-serif" font-size="11" lengthAdjust="spacing" textLength="104" x="1144.5" y="278.2104">all(): CourseJSON[]</text><!--MD5=[897790a167d40c75ac5e323b021ca6b6]
class CourseRouter--><rect codeLine="7" fill="#FEFECE" filter="url(#f1ehys2m007gi6)" height="112.0234" id="CourseRouter" style="stroke:#A80036;stroke-width:1.5;" width="239" x="1072" y="20"/><ellipse cx="1146.25" cy="36" fill="#ADD1B2" rx="11" ry="11" style="stroke:#A80036;stroke-width:1.0;"/><path d="M1148.5938,31.6719 C1147.6563,31.2344 1147.0625,31.0938 1146.1875,31.0938 C1143.5625,31.0938 1141.5625,33.1719 1141.5625,35.8906 L1141.5625,37.0156 C1141.5625,39.5938 1143.6719,41.4844 1146.5625,41.4844 C1147.7813,41.4844 1148.9375,41.1875 1149.6875,40.6406 C1150.2656,40.2344 1150.5938,39.7813 1150.5938,39.3906 C1150.5938,38.9375 1150.2031,38.5469 1149.7344,38.5469 C1149.5156,38.5469 1149.3125,38.625 1149.125,38.8125 C1148.6719,39.2969 1148.6719,39.2969 1148.4844,39.3906 C1148.0625,39.6563 1147.375,39.7813 1146.6094,39.7813 C1144.5625,39.7813 1143.2656,38.6875 1143.2656,36.9844 L1143.2656,35.8906 C1143.2656,34.1094 1144.5156,32.7969 1146.25,32.7969 C1146.8281,32.7969 1147.4375,32.9531 1147.9063,33.2031 C1148.3906,33.4844 1148.5625,33.7031 1148.6563,34.1094 C1148.7188,34.5156 1148.75,34.6406 1148.8906,34.7656 C1149.0313,34.9063 1149.2656,35.0156 1149.4844,35.0156 C1149.75,35.0156 1150.0156,34.875 1150.1875,34.6563 C1150.2969,34.5 1150.3281,34.3125 1150.3281,33.8906 L1150.3281,32.4688 C1150.3281,32.0313 1150.3125,31.9063 1150.2188,31.75 C1150.0625,31.4844 1149.7813,31.3438 1149.4844,31.3438 C1149.1875,31.3438 1148.9844,31.4375 1148.7656,31.75 L1148.5938,31.6719 Z " fill="#000000"/><text fill="#000000" font-family="sans-serif" font-size="12" lengthAdjust="spacing" textLength="82" x="1166.75" y="40.1543">CourseRouter</text><line style="stroke:#A80036;stroke-width:1.5;" x1="1073" x2="1310" y1="52" y2="52"/><ellipse cx="1083" cy="63" rx="3" ry="3" style="stroke:#038048;stroke-width:1.0;fill:none;"/><text fill="#000000" font-family="sans-serif" font-size="11" lengthAdjust="spacing" textLength="62" x="1092" y="66.2104">router: any</text><ellipse cx="1083" cy="75.8047" rx="3" ry="3" style="stroke:#038048;stroke-width:1.0;fill:none;"/><text fill="#000000" font-family="sans-serif" font-size="11" lengthAdjust="spacing" textLength="155" x="1092" y="79.0151">controller: CourseController</text><ellipse cx="1083" cy="88.6094" rx="3" ry="3" style="stroke:#038048;stroke-width:1.0;fill:none;"/><text fill="#000000" font-family="sans-serif" font-size="11" lengthAdjust="spacing" textLength="133" x="1092" y="91.8198">router_latency: number</text><line style="stroke:#A80036;stroke-width:1.5;" x1="1073" x2="1310" y1="98.4141" y2="98.4141"/><ellipse cx="1083" cy="109.4141" fill="#84BE84" rx="3" ry="3" style="stroke:#038048;stroke-width:1.0;"/><text fill="#000000" font-family="sans-serif" font-size="11" lengthAdjust="spacing" textLength="213" x="1092" y="112.6245">all(req: any, res: any, next: any): void</text><ellipse cx="1083" cy="122.2188" fill="#84BE84" rx="3" ry="3" style="stroke:#038048;stroke-width:1.0;"/><text fill="#000000" font-family="sans-serif" font-size="11" lengthAdjust="spacing" textLength="56" x="1092" y="125.4292">init(): void</text><!--MD5=[c680266cf9e454ca06c2d1bb8b683e6b]
class Schedule--><rect codeLine="14" fill="#FEFECE" filter="url(#f1ehys2m007gi6)" height="73.6094" id="Schedule" style="stroke:#A80036;stroke-width:1.5;" width="144" x="265.5" y="39"/><ellipse cx="305.7" cy="55" fill="#ADD1B2" rx="11" ry="11" style="stroke:#A80036;stroke-width:1.0;"/><path d="M308.0438,50.6719 C307.1063,50.2344 306.5125,50.0938 305.6375,50.0938 C303.0125,50.0938 301.0125,52.1719 301.0125,54.8906 L301.0125,56.0156 C301.0125,58.5938 303.1219,60.4844 306.0125,60.4844 C307.2313,60.4844 308.3875,60.1875 309.1375,59.6406 C309.7156,59.2344 310.0438,58.7813 310.0438,58.3906 C310.0438,57.9375 309.6531,57.5469 309.1844,57.5469 C308.9656,57.5469 308.7625,57.625 308.575,57.8125 C308.1219,58.2969 308.1219,58.2969 307.9344,58.3906 C307.5125,58.6563 306.825,58.7813 306.0594,58.7813 C304.0125,58.7813 302.7156,57.6875 302.7156,55.9844 L302.7156,54.8906 C302.7156,53.1094 303.9656,51.7969 305.7,51.7969 C306.2781,51.7969 306.8875,51.9531 307.3563,52.2031 C307.8406,52.4844 308.0125,52.7031 308.1063,53.1094 C308.1688,53.5156 308.2,53.6406 308.3406,53.7656 C308.4813,53.9063 308.7156,54.0156 308.9344,54.0156 C309.2,54.0156 309.4656,53.875 309.6375,53.6563 C309.7469,53.5 309.7781,53.3125 309.7781,52.8906 L309.7781,51.4688 C309.7781,51.0313 309.7625,50.9063 309.6688,50.75 C309.5125,50.4844 309.2313,50.3438 308.9344,50.3438 C308.6375,50.3438 308.4344,50.4375 308.2156,50.75 L308.0438,50.6719 Z " fill="#000000"/><text fill="#000000" font-family="sans-serif" font-size="12" lengthAdjust="spacing" textLength="56" x="325.3" y="59.1543">Schedule</text><line style="stroke:#A80036;stroke-width:1.5;" x1="266.5" x2="408.5" y1="71" y2="71"/><line style="stroke:#A80036;stroke-width:1.5;" x1="266.5" x2="408.5" y1="79" y2="79"/><ellipse cx="276.5" cy="90" fill="#84BE84" rx="3" ry="3" style="stroke:#038048;stroke-width:1.0;"/><text fill="#000000" font-family="sans-serif" font-size="11" lengthAdjust="spacing" text-decoration="underline" textLength="118" x="285.5" y="93.2104">all(): ScheduleJSON[]</text><ellipse cx="276.5" cy="102.8047" fill="#84BE84" rx="3" ry="3" style="stroke:#038048;stroke-width:1.0;"/><text fill="#000000" font-family="sans-serif" font-size="11" lengthAdjust="spacing" text-decoration="underline" textLength="92" x="285.5" y="106.0151">groups(): string[]</text><!--MD5=[fcb63833c81517689f2112f6b85b11d0]
class ScheduleController--><rect codeLine="18" fill="#FEFECE" filter="url(#f1ehys2m007gi6)" height="60.8047" id="ScheduleController" style="stroke:#A80036;stroke-width:1.5;" width="147" x="1392" y="224"/><ellipse cx="1407" cy="240" fill="#ADD1B2" rx="11" ry="11" style="stroke:#A80036;stroke-width:1.0;"/><path d="M1409.3438,235.6719 C1408.4063,235.2344 1407.8125,235.0938 1406.9375,235.0938 C1404.3125,235.0938 1402.3125,237.1719 1402.3125,239.8906 L1402.3125,241.0156 C1402.3125,243.5938 1404.4219,245.4844 1407.3125,245.4844 C1408.5313,245.4844 1409.6875,245.1875 1410.4375,244.6406 C1411.0156,244.2344 1411.3438,243.7813 1411.3438,243.3906 C1411.3438,242.9375 1410.9531,242.5469 1410.4844,242.5469 C1410.2656,242.5469 1410.0625,242.625 1409.875,242.8125 C1409.4219,243.2969 1409.4219,243.2969 1409.2344,243.3906 C1408.8125,243.6563 1408.125,243.7813 1407.3594,243.7813 C1405.3125,243.7813 1404.0156,242.6875 1404.0156,240.9844 L1404.0156,239.8906 C1404.0156,238.1094 1405.2656,236.7969 1407,236.7969 C1407.5781,236.7969 1408.1875,236.9531 1408.6563,237.2031 C1409.1406,237.4844 1409.3125,237.7031 1409.4063,238.1094 C1409.4688,238.5156 1409.5,238.6406 1409.6406,238.7656 C1409.7813,238.9063 1410.0156,239.0156 1410.2344,239.0156 C1410.5,239.0156 1410.7656,238.875 1410.9375,238.6563 C1411.0469,238.5 1411.0781,238.3125 1411.0781,237.8906 L1411.0781,236.4688 C1411.0781,236.0313 1411.0625,235.9063 1410.9688,235.75 C1410.8125,235.4844 1410.5313,235.3438 1410.2344,235.3438 C1409.9375,235.3438 1409.7344,235.4375 1409.5156,235.75 L1409.3438,235.6719 Z " fill="#000000"/><text fill="#000000" font-family="sans-serif" font-size="12" lengthAdjust="spacing" textLength="115" x="1421" y="244.1543">ScheduleController</text><line style="stroke:#A80036;stroke-width:1.5;" x1="1393" x2="1538" y1="256" y2="256"/><line style="stroke:#A80036;stroke-width:1.5;" x1="1393" x2="1538" y1="264" y2="264"/><ellipse cx="1403" cy="275" fill="#84BE84" rx="3" ry="3" style="stroke:#038048;stroke-width:1.0;"/><text fill="#000000" font-family="sans-serif" font-size="11" lengthAdjust="spacing" textLength="118" x="1412" y="278.2104">all(): ScheduleJSON[]</text><!--MD5=[c28ccd3170405471a2125568bb47de2d]
class ScheduleRouter--><rect codeLine="21" fill="#FEFECE" filter="url(#f1ehys2m007gi6)" height="112.0234" id="ScheduleRouter" style="stroke:#A80036;stroke-width:1.5;" width="239" x="1346" y="20"/><ellipse cx="1413.75" cy="36" fill="#ADD1B2" rx="11" ry="11" style="stroke:#A80036;stroke-width:1.0;"/><path d="M1416.0938,31.6719 C1415.1563,31.2344 1414.5625,31.0938 1413.6875,31.0938 C1411.0625,31.0938 1409.0625,33.1719 1409.0625,35.8906 L1409.0625,37.0156 C1409.0625,39.5938 1411.1719,41.4844 1414.0625,41.4844 C1415.2813,41.4844 1416.4375,41.1875 1417.1875,40.6406 C1417.7656,40.2344 1418.0938,39.7813 1418.0938,39.3906 C1418.0938,38.9375 1417.7031,38.5469 1417.2344,38.5469 C1417.0156,38.5469 1416.8125,38.625 1416.625,38.8125 C1416.1719,39.2969 1416.1719,39.2969 1415.9844,39.3906 C1415.5625,39.6563 1414.875,39.7813 1414.1094,39.7813 C1412.0625,39.7813 1410.7656,38.6875 1410.7656,36.9844 L1410.7656,35.8906 C1410.7656,34.1094 1412.0156,32.7969 1413.75,32.7969 C1414.3281,32.7969 1414.9375,32.9531 1415.4063,33.2031 C1415.8906,33.4844 1416.0625,33.7031 1416.1563,34.1094 C1416.2188,34.5156 1416.25,34.6406 1416.3906,34.7656 C1416.5313,34.9063 1416.7656,35.0156 1416.9844,35.0156 C1417.25,35.0156 1417.5156,34.875 1417.6875,34.6563 C1417.7969,34.5 1417.8281,34.3125 1417.8281,33.8906 L1417.8281,32.4688 C1417.8281,32.0313 1417.8125,31.9063 1417.7188,31.75 C1417.5625,31.4844 1417.2813,31.3438 1416.9844,31.3438 C1416.6875,31.3438 1416.4844,31.4375 1416.2656,31.75 L1416.0938,31.6719 Z " fill="#000000"/><text fill="#000000" font-family="sans-serif" font-size="12" lengthAdjust="spacing" textLength="95" x="1434.25" y="40.1543">ScheduleRouter</text><line style="stroke:#A80036;stroke-width:1.5;" x1="1347" x2="1584" y1="52" y2="52"/><ellipse cx="1357" cy="63" rx="3" ry="3" style="stroke:#038048;stroke-width:1.0;fill:none;"/><text fill="#000000" font-family="sans-serif" font-size="11" lengthAdjust="spacing" textLength="62" x="1366" y="66.2104">router: any</text><ellipse cx="1357" cy="75.8047" rx="3" ry="3" style="stroke:#038048;stroke-width:1.0;fill:none;"/><text fill="#000000" font-family="sans-serif" font-size="11" lengthAdjust="spacing" textLength="169" x="1366" y="79.0151">controller: ScheduleController</text><ellipse cx="1357" cy="88.6094" rx="3" ry="3" style="stroke:#038048;stroke-width:1.0;fill:none;"/><text fill="#000000" font-family="sans-serif" font-size="11" lengthAdjust="spacing" textLength="133" x="1366" y="91.8198">router_latency: number</text><line style="stroke:#A80036;stroke-width:1.5;" x1="1347" x2="1584" y1="98.4141" y2="98.4141"/><ellipse cx="1357" cy="109.4141" fill="#84BE84" rx="3" ry="3" style="stroke:#038048;stroke-width:1.0;"/><text fill="#000000" font-family="sans-serif" font-size="11" lengthAdjust="spacing" textLength="213" x="1366" y="112.6245">all(req: any, res: any, next: any): void</text><ellipse cx="1357" cy="122.2188" fill="#84BE84" rx="3" ry="3" style="stroke:#038048;stroke-width:1.0;"/><text fill="#000000" font-family="sans-serif" font-size="11" lengthAdjust="spacing" textLength="56" x="1366" y="125.4292">init(): void</text><!--MD5=[37d9809cb88c3d7038c4b5df64e24c2e]
class Semester--><rect codeLine="28" fill="#FEFECE" filter="url(#f1ehys2m007gi6)" height="60.8047" id="Semester" style="stroke:#A80036;stroke-width:1.5;" width="147" x="445" y="45.5"/><ellipse cx="485.2" cy="61.5" fill="#ADD1B2" rx="11" ry="11" style="stroke:#A80036;stroke-width:1.0;"/><path d="M487.5438,57.1719 C486.6063,56.7344 486.0125,56.5938 485.1375,56.5938 C482.5125,56.5938 480.5125,58.6719 480.5125,61.3906 L480.5125,62.5156 C480.5125,65.0938 482.6219,66.9844 485.5125,66.9844 C486.7313,66.9844 487.8875,66.6875 488.6375,66.1406 C489.2156,65.7344 489.5438,65.2813 489.5438,64.8906 C489.5438,64.4375 489.1531,64.0469 488.6844,64.0469 C488.4656,64.0469 488.2625,64.125 488.075,64.3125 C487.6219,64.7969 487.6219,64.7969 487.4344,64.8906 C487.0125,65.1563 486.325,65.2813 485.5594,65.2813 C483.5125,65.2813 482.2156,64.1875 482.2156,62.4844 L482.2156,61.3906 C482.2156,59.6094 483.4656,58.2969 485.2,58.2969 C485.7781,58.2969 486.3875,58.4531 486.8563,58.7031 C487.3406,58.9844 487.5125,59.2031 487.6063,59.6094 C487.6688,60.0156 487.7,60.1406 487.8406,60.2656 C487.9813,60.4063 488.2156,60.5156 488.4344,60.5156 C488.7,60.5156 488.9656,60.375 489.1375,60.1563 C489.2469,60 489.2781,59.8125 489.2781,59.3906 L489.2781,57.9688 C489.2781,57.5313 489.2625,57.4063 489.1688,57.25 C489.0125,56.9844 488.7313,56.8438 488.4344,56.8438 C488.1375,56.8438 487.9344,56.9375 487.7156,57.25 L487.5438,57.1719 Z " fill="#000000"/><text fill="#000000" font-family="sans-serif" font-size="12" lengthAdjust="spacing" textLength="59" x="504.8" y="65.6543">Semester</text><line style="stroke:#A80036;stroke-width:1.5;" x1="446" x2="591" y1="77.5" y2="77.5"/><line style="stroke:#A80036;stroke-width:1.5;" x1="446" x2="591" y1="85.5" y2="85.5"/><ellipse cx="456" cy="96.5" fill="#84BE84" rx="3" ry="3" style="stroke:#038048;stroke-width:1.0;"/><text fill="#000000" font-family="sans-serif" font-size="11" lengthAdjust="spacing" text-decoration="underline" textLength="121" x="465" y="99.7104">all(): SemesterJSON[]</text><!--MD5=[ef6fa5eb450cf30cba1441a0b50953e0]
class SemesterController--><rect codeLine="31" fill="#FEFECE" filter="url(#f1ehys2m007gi6)" height="60.8047" id="SemesterController" style="stroke:#A80036;stroke-width:1.5;" width="150" x="1664.5" y="224"/><ellipse cx="1679.5" cy="240" fill="#ADD1B2" rx="11" ry="11" style="stroke:#A80036;stroke-width:1.0;"/><path d="M1681.8438,235.6719 C1680.9063,235.2344 1680.3125,235.0938 1679.4375,235.0938 C1676.8125,235.0938 1674.8125,237.1719 1674.8125,239.8906 L1674.8125,241.0156 C1674.8125,243.5938 1676.9219,245.4844 1679.8125,245.4844 C1681.0313,245.4844 1682.1875,245.1875 1682.9375,244.6406 C1683.5156,244.2344 1683.8438,243.7813 1683.8438,243.3906 C1683.8438,242.9375 1683.4531,242.5469 1682.9844,242.5469 C1682.7656,242.5469 1682.5625,242.625 1682.375,242.8125 C1681.9219,243.2969 1681.9219,243.2969 1681.7344,243.3906 C1681.3125,243.6563 1680.625,243.7813 1679.8594,243.7813 C1677.8125,243.7813 1676.5156,242.6875 1676.5156,240.9844 L1676.5156,239.8906 C1676.5156,238.1094 1677.7656,236.7969 1679.5,236.7969 C1680.0781,236.7969 1680.6875,236.9531 1681.1563,237.2031 C1681.6406,237.4844 1681.8125,237.7031 1681.9063,238.1094 C1681.9688,238.5156 1682,238.6406 1682.1406,238.7656 C1682.2813,238.9063 1682.5156,239.0156 1682.7344,239.0156 C1683,239.0156 1683.2656,238.875 1683.4375,238.6563 C1683.5469,238.5 1683.5781,238.3125 1683.5781,237.8906 L1683.5781,236.4688 C1683.5781,236.0313 1683.5625,235.9063 1683.4688,235.75 C1683.3125,235.4844 1683.0313,235.3438 1682.7344,235.3438 C1682.4375,235.3438 1682.2344,235.4375 1682.0156,235.75 L1681.8438,235.6719 Z " fill="#000000"/><text fill="#000000" font-family="sans-serif" font-size="12" lengthAdjust="spacing" textLength="118" x="1693.5" y="244.1543">SemesterController</text><line style="stroke:#A80036;stroke-width:1.5;" x1="1665.5" x2="1813.5" y1="256" y2="256"/><line style="stroke:#A80036;stroke-width:1.5;" x1="1665.5" x2="1813.5" y1="264" y2="264"/><ellipse cx="1675.5" cy="275" fill="#84BE84" rx="3" ry="3" style="stroke:#038048;stroke-width:1.0;"/><text fill="#000000" font-family="sans-serif" font-size="11" lengthAdjust="spacing" textLength="121" x="1684.5" y="278.2104">all(): SemesterJSON[]</text><!--MD5=[4b9f608e50a5cbb82ce5e12c666d98cc]
class SemesterRouter--><rect codeLine="34" fill="#FEFECE" filter="url(#f1ehys2m007gi6)" height="112.0234" id="SemesterRouter" style="stroke:#A80036;stroke-width:1.5;" width="239" x="1620" y="20"/><ellipse cx="1686.25" cy="36" fill="#ADD1B2" rx="11" ry="11" style="stroke:#A80036;stroke-width:1.0;"/><path d="M1688.5938,31.6719 C1687.6563,31.2344 1687.0625,31.0938 1686.1875,31.0938 C1683.5625,31.0938 1681.5625,33.1719 1681.5625,35.8906 L1681.5625,37.0156 C1681.5625,39.5938 1683.6719,41.4844 1686.5625,41.4844 C1687.7813,41.4844 1688.9375,41.1875 1689.6875,40.6406 C1690.2656,40.2344 1690.5938,39.7813 1690.5938,39.3906 C1690.5938,38.9375 1690.2031,38.5469 1689.7344,38.5469 C1689.5156,38.5469 1689.3125,38.625 1689.125,38.8125 C1688.6719,39.2969 1688.6719,39.2969 1688.4844,39.3906 C1688.0625,39.6563 1687.375,39.7813 1686.6094,39.7813 C1684.5625,39.7813 1683.2656,38.6875 1683.2656,36.9844 L1683.2656,35.8906 C1683.2656,34.1094 1684.5156,32.7969 1686.25,32.7969 C1686.8281,32.7969 1687.4375,32.9531 1687.9063,33.2031 C1688.3906,33.4844 1688.5625,33.7031 1688.6563,34.1094 C1688.7188,34.5156 1688.75,34.6406 1688.8906,34.7656 C1689.0313,34.9063 1689.2656,35.0156 1689.4844,35.0156 C1689.75,35.0156 1690.0156,34.875 1690.1875,34.6563 C1690.2969,34.5 1690.3281,34.3125 1690.3281,33.8906 L1690.3281,32.4688 C1690.3281,32.0313 1690.3125,31.9063 1690.2188,31.75 C1690.0625,31.4844 1689.7813,31.3438 1689.4844,31.3438 C1689.1875,31.3438 1688.9844,31.4375 1688.7656,31.75 L1688.5938,31.6719 Z " fill="#000000"/><text fill="#000000" font-family="sans-serif" font-size="12" lengthAdjust="spacing" textLength="98" x="1706.75" y="40.1543">SemesterRouter</text><line style="stroke:#A80036;stroke-width:1.5;" x1="1621" x2="1858" y1="52" y2="52"/><ellipse cx="1631" cy="63" rx="3" ry="3" style="stroke:#038048;stroke-width:1.0;fill:none;"/><text fill="#000000" font-family="sans-serif" font-size="11" lengthAdjust="spacing" textLength="62" x="1640" y="66.2104">router: any</text><ellipse cx="1631" cy="75.8047" rx="3" ry="3" style="stroke:#038048;stroke-width:1.0;fill:none;"/><text fill="#000000" font-family="sans-serif" font-size="11" lengthAdjust="spacing" textLength="172" x="1640" y="79.0151">controller: SemesterController</text><ellipse cx="1631" cy="88.6094" rx="3" ry="3" style="stroke:#038048;stroke-width:1.0;fill:none;"/><text fill="#000000" font-family="sans-serif" font-size="11" lengthAdjust="spacing" textLength="133" x="1640" y="91.8198">router_latency: number</text><line style="stroke:#A80036;stroke-width:1.5;" x1="1621" x2="1858" y1="98.4141" y2="98.4141"/><ellipse cx="1631" cy="109.4141" fill="#84BE84" rx="3" ry="3" style="stroke:#038048;stroke-width:1.0;"/><text fill="#000000" font-family="sans-serif" font-size="11" lengthAdjust="spacing" textLength="213" x="1640" y="112.6245">all(req: any, res: any, next: any): void</text><ellipse cx="1631" cy="122.2188" fill="#84BE84" rx="3" ry="3" style="stroke:#038048;stroke-width:1.0;"/><text fill="#000000" font-family="sans-serif" font-size="11" lengthAdjust="spacing" textLength="56" x="1640" y="125.4292">init(): void</text><!--MD5=[d6181cb537bdc20c0a3007a98a56832d]
class Student--><rect codeLine="41" fill="#FEFECE" filter="url(#f1ehys2m007gi6)" height="99.2188" id="Student" style="stroke:#A80036;stroke-width:1.5;" width="317" x="7" y="205"/><ellipse cx="138.25" cy="221" fill="#ADD1B2" rx="11" ry="11" style="stroke:#A80036;stroke-width:1.0;"/><path d="M140.5938,216.6719 C139.6563,216.2344 139.0625,216.0938 138.1875,216.0938 C135.5625,216.0938 133.5625,218.1719 133.5625,220.8906 L133.5625,222.0156 C133.5625,224.5938 135.6719,226.4844 138.5625,226.4844 C139.7813,226.4844 140.9375,226.1875 141.6875,225.6406 C142.2656,225.2344 142.5938,224.7813 142.5938,224.3906 C142.5938,223.9375 142.2031,223.5469 141.7344,223.5469 C141.5156,223.5469 141.3125,223.625 141.125,223.8125 C140.6719,224.2969 140.6719,224.2969 140.4844,224.3906 C140.0625,224.6563 139.375,224.7813 138.6094,224.7813 C136.5625,224.7813 135.2656,223.6875 135.2656,221.9844 L135.2656,220.8906 C135.2656,219.1094 136.5156,217.7969 138.25,217.7969 C138.8281,217.7969 139.4375,217.9531 139.9063,218.2031 C140.3906,218.4844 140.5625,218.7031 140.6563,219.1094 C140.7188,219.5156 140.75,219.6406 140.8906,219.7656 C141.0313,219.9063 141.2656,220.0156 141.4844,220.0156 C141.75,220.0156 142.0156,219.875 142.1875,219.6563 C142.2969,219.5 142.3281,219.3125 142.3281,218.8906 L142.3281,217.4688 C142.3281,217.0313 142.3125,216.9063 142.2188,216.75 C142.0625,216.4844 141.7813,216.3438 141.4844,216.3438 C141.1875,216.3438 140.9844,216.4375 140.7656,216.75 L140.5938,216.6719 Z " fill="#000000"/><text fill="#000000" font-family="sans-serif" font-size="12" lengthAdjust="spacing" textLength="46" x="158.75" y="225.1543">Student</text><line style="stroke:#A80036;stroke-width:1.5;" x1="8" x2="323" y1="237" y2="237"/><line style="stroke:#A80036;stroke-width:1.5;" x1="8" x2="323" y1="245" y2="245"/><ellipse cx="18" cy="256" fill="#84BE84" rx="3" ry="3" style="stroke:#038048;stroke-width:1.0;"/><text fill="#000000" font-family="sans-serif" font-size="11" lengthAdjust="spacing" text-decoration="underline" textLength="291" x="27" y="259.2104">login(email: string, password: string): validUserJSON</text><ellipse cx="18" cy="268.8047" fill="#84BE84" rx="3" ry="3" style="stroke:#038048;stroke-width:1.0;"/><text fill="#000000" font-family="sans-serif" font-size="11" lengthAdjust="spacing" text-decoration="underline" textLength="219" x="27" y="272.0151">fromToken(token: string): StudentJSON</text><ellipse cx="18" cy="281.6094" fill="#84BE84" rx="3" ry="3" style="stroke:#038048;stroke-width:1.0;"/><text fill="#000000" font-family="sans-serif" font-size="11" lengthAdjust="spacing" text-decoration="underline" textLength="109" x="27" y="284.8198">all(): StudentJSON[]</text><ellipse cx="18" cy="294.4141" fill="#84BE84" rx="3" ry="3" style="stroke:#038048;stroke-width:1.0;"/><text fill="#000000" font-family="sans-serif" font-size="11" lengthAdjust="spacing" text-decoration="underline" textLength="207" x="27" y="297.6245">groupStudent(): GroupStudentJSON[]</text><!--MD5=[530e89a8f9e4e740df08c0f56fe3de16]
class StudentController--><rect codeLine="47" fill="#FEFECE" filter="url(#f1ehys2m007gi6)" height="99.2188" id="StudentController" style="stroke:#A80036;stroke-width:1.5;" width="317" x="1886" y="205"/><ellipse cx="1987.75" cy="221" fill="#ADD1B2" rx="11" ry="11" style="stroke:#A80036;stroke-width:1.0;"/><path d="M1990.0938,216.6719 C1989.1563,216.2344 1988.5625,216.0938 1987.6875,216.0938 C1985.0625,216.0938 1983.0625,218.1719 1983.0625,220.8906 L1983.0625,222.0156 C1983.0625,224.5938 1985.1719,226.4844 1988.0625,226.4844 C1989.2813,226.4844 1990.4375,226.1875 1991.1875,225.6406 C1991.7656,225.2344 1992.0938,224.7813 1992.0938,224.3906 C1992.0938,223.9375 1991.7031,223.5469 1991.2344,223.5469 C1991.0156,223.5469 1990.8125,223.625 1990.625,223.8125 C1990.1719,224.2969 1990.1719,224.2969 1989.9844,224.3906 C1989.5625,224.6563 1988.875,224.7813 1988.1094,224.7813 C1986.0625,224.7813 1984.7656,223.6875 1984.7656,221.9844 L1984.7656,220.8906 C1984.7656,219.1094 1986.0156,217.7969 1987.75,217.7969 C1988.3281,217.7969 1988.9375,217.9531 1989.4063,218.2031 C1989.8906,218.4844 1990.0625,218.7031 1990.1563,219.1094 C1990.2188,219.5156 1990.25,219.6406 1990.3906,219.7656 C1990.5313,219.9063 1990.7656,220.0156 1990.9844,220.0156 C1991.25,220.0156 1991.5156,219.875 1991.6875,219.6563 C1991.7969,219.5 1991.8281,219.3125 1991.8281,218.8906 L1991.8281,217.4688 C1991.8281,217.0313 1991.8125,216.9063 1991.7188,216.75 C1991.5625,216.4844 1991.2813,216.3438 1990.9844,216.3438 C1990.6875,216.3438 1990.4844,216.4375 1990.2656,216.75 L1990.0938,216.6719 Z " fill="#000000"/><text fill="#000000" font-family="sans-serif" font-size="12" lengthAdjust="spacing" textLength="105" x="2008.25" y="225.1543">StudentController</text><line style="stroke:#A80036;stroke-width:1.5;" x1="1887" x2="2202" y1="237" y2="237"/><line style="stroke:#A80036;stroke-width:1.5;" x1="1887" x2="2202" y1="245" y2="245"/><ellipse cx="1897" cy="256" fill="#84BE84" rx="3" ry="3" style="stroke:#038048;stroke-width:1.0;"/><text fill="#000000" font-family="sans-serif" font-size="11" lengthAdjust="spacing" textLength="291" x="1906" y="259.2104">login(email: string, password: string): validUserJSON</text><ellipse cx="1897" cy="268.8047" fill="#84BE84" rx="3" ry="3" style="stroke:#038048;stroke-width:1.0;"/><text fill="#000000" font-family="sans-serif" font-size="11" lengthAdjust="spacing" textLength="219" x="1906" y="272.0151">fromToken(token: string): StudentJSON</text><ellipse cx="1897" cy="281.6094" fill="#84BE84" rx="3" ry="3" style="stroke:#038048;stroke-width:1.0;"/><text fill="#000000" font-family="sans-serif" font-size="11" lengthAdjust="spacing" textLength="109" x="1906" y="284.8198">all(): StudentJSON[]</text><ellipse cx="1897" cy="294.4141" fill="#84BE84" rx="3" ry="3" style="stroke:#038048;stroke-width:1.0;"/><text fill="#000000" font-family="sans-serif" font-size="11" lengthAdjust="spacing" textLength="207" x="1906" y="297.6245">groupStudent(): GroupStudentJSON[]</text><!--MD5=[2a94b37efe5862244f124924491579e5]
class StudentRouter--><rect codeLine="53" fill="#FEFECE" filter="url(#f1ehys2m007gi6)" height="137.6328" id="StudentRouter" style="stroke:#A80036;stroke-width:1.5;" width="301" x="1894" y="7"/><ellipse cx="1997.75" cy="23" fill="#ADD1B2" rx="11" ry="11" style="stroke:#A80036;stroke-width:1.0;"/><path d="M2000.0938,18.6719 C1999.1563,18.2344 1998.5625,18.0938 1997.6875,18.0938 C1995.0625,18.0938 1993.0625,20.1719 1993.0625,22.8906 L1993.0625,24.0156 C1993.0625,26.5938 1995.1719,28.4844 1998.0625,28.4844 C1999.2813,28.4844 2000.4375,28.1875 2001.1875,27.6406 C2001.7656,27.2344 2002.0938,26.7813 2002.0938,26.3906 C2002.0938,25.9375 2001.7031,25.5469 2001.2344,25.5469 C2001.0156,25.5469 2000.8125,25.625 2000.625,25.8125 C2000.1719,26.2969 2000.1719,26.2969 1999.9844,26.3906 C1999.5625,26.6563 1998.875,26.7813 1998.1094,26.7813 C1996.0625,26.7813 1994.7656,25.6875 1994.7656,23.9844 L1994.7656,22.8906 C1994.7656,21.1094 1996.0156,19.7969 1997.75,19.7969 C1998.3281,19.7969 1998.9375,19.9531 1999.4063,20.2031 C1999.8906,20.4844 2000.0625,20.7031 2000.1563,21.1094 C2000.2188,21.5156 2000.25,21.6406 2000.3906,21.7656 C2000.5313,21.9063 2000.7656,22.0156 2000.9844,22.0156 C2001.25,22.0156 2001.5156,21.875 2001.6875,21.6563 C2001.7969,21.5 2001.8281,21.3125 2001.8281,20.8906 L2001.8281,19.4688 C2001.8281,19.0313 2001.8125,18.9063 2001.7188,18.75 C2001.5625,18.4844 2001.2813,18.3438 2000.9844,18.3438 C2000.6875,18.3438 2000.4844,18.4375 2000.2656,18.75 L2000.0938,18.6719 Z " fill="#000000"/><text fill="#000000" font-family="sans-serif" font-size="12" lengthAdjust="spacing" textLength="85" x="2018.25" y="27.1543">StudentRouter</text><line style="stroke:#A80036;stroke-width:1.5;" x1="1895" x2="2194" y1="39" y2="39"/><ellipse cx="1905" cy="50" rx="3" ry="3" style="stroke:#038048;stroke-width:1.0;fill:none;"/><text fill="#000000" font-family="sans-serif" font-size="11" lengthAdjust="spacing" textLength="62" x="1914" y="53.2104">router: any</text><ellipse cx="1905" cy="62.8047" rx="3" ry="3" style="stroke:#038048;stroke-width:1.0;fill:none;"/><text fill="#000000" font-family="sans-serif" font-size="11" lengthAdjust="spacing" textLength="160" x="1914" y="66.0151">controller: StudentController</text><line style="stroke:#A80036;stroke-width:1.5;" x1="1895" x2="2194" y1="72.6094" y2="72.6094"/><ellipse cx="1905" cy="83.6094" fill="#84BE84" rx="3" ry="3" style="stroke:#038048;stroke-width:1.0;"/><text fill="#000000" font-family="sans-serif" font-size="11" lengthAdjust="spacing" textLength="227" x="1914" y="86.8198">login(req: any, res: any, next: any): void</text><ellipse cx="1905" cy="96.4141" fill="#84BE84" rx="3" ry="3" style="stroke:#038048;stroke-width:1.0;"/><text fill="#000000" font-family="sans-serif" font-size="11" lengthAdjust="spacing" textLength="213" x="1914" y="99.6245">all(req: any, res: any, next: any): void</text><ellipse cx="1905" cy="109.2188" fill="#84BE84" rx="3" ry="3" style="stroke:#038048;stroke-width:1.0;"/><text fill="#000000" font-family="sans-serif" font-size="11" lengthAdjust="spacing" textLength="258" x="1914" y="112.4292">fromtoken(req: any, res: any, next: any): void</text><ellipse cx="1905" cy="122.0234" fill="#84BE84" rx="3" ry="3" style="stroke:#038048;stroke-width:1.0;"/><text fill="#000000" font-family="sans-serif" font-size="11" lengthAdjust="spacing" textLength="275" x="1914" y="125.2339">groupstudent(req: any, res: any, next: any): void</text><ellipse cx="1905" cy="134.8281" fill="#84BE84" rx="3" ry="3" style="stroke:#038048;stroke-width:1.0;"/><text fill="#000000" font-family="sans-serif" font-size="11" lengthAdjust="spacing" textLength="56" x="1914" y="138.0386">init(): void</text><!--MD5=[61a83f88cb8b7d3a80bc8c481f3736bf]
class Teacher--><rect codeLine="62" fill="#FEFECE" filter="url(#f1ehys2m007gi6)" height="86.4141" id="Teacher" style="stroke:#A80036;stroke-width:1.5;" width="445" x="359" y="211.5"/><ellipse cx="552.75" cy="227.5" fill="#ADD1B2" rx="11" ry="11" style="stroke:#A80036;stroke-width:1.0;"/><path d="M555.0938,223.1719 C554.1563,222.7344 553.5625,222.5938 552.6875,222.5938 C550.0625,222.5938 548.0625,224.6719 548.0625,227.3906 L548.0625,228.5156 C548.0625,231.0938 550.1719,232.9844 553.0625,232.9844 C554.2813,232.9844 555.4375,232.6875 556.1875,232.1406 C556.7656,231.7344 557.0938,231.2813 557.0938,230.8906 C557.0938,230.4375 556.7031,230.0469 556.2344,230.0469 C556.0156,230.0469 555.8125,230.125 555.625,230.3125 C555.1719,230.7969 555.1719,230.7969 554.9844,230.8906 C554.5625,231.1563 553.875,231.2813 553.1094,231.2813 C551.0625,231.2813 549.7656,230.1875 549.7656,228.4844 L549.7656,227.3906 C549.7656,225.6094 551.0156,224.2969 552.75,224.2969 C553.3281,224.2969 553.9375,224.4531 554.4063,224.7031 C554.8906,224.9844 555.0625,225.2031 555.1563,225.6094 C555.2188,226.0156 555.25,226.1406 555.3906,226.2656 C555.5313,226.4063 555.7656,226.5156 555.9844,226.5156 C556.25,226.5156 556.5156,226.375 556.6875,226.1563 C556.7969,226 556.8281,225.8125 556.8281,225.3906 L556.8281,223.9688 C556.8281,223.5313 556.8125,223.4063 556.7188,223.25 C556.5625,222.9844 556.2813,222.8438 555.9844,222.8438 C555.6875,222.8438 555.4844,222.9375 555.2656,223.25 L555.0938,223.1719 Z " fill="#000000"/><text fill="#000000" font-family="sans-serif" font-size="12" lengthAdjust="spacing" textLength="49" x="573.25" y="231.6543">Teacher</text><line style="stroke:#A80036;stroke-width:1.5;" x1="360" x2="803" y1="243.5" y2="243.5"/><line style="stroke:#A80036;stroke-width:1.5;" x1="360" x2="803" y1="251.5" y2="251.5"/><ellipse cx="370" cy="262.5" fill="#84BE84" rx="3" ry="3" style="stroke:#038048;stroke-width:1.0;"/><text fill="#000000" font-family="sans-serif" font-size="11" lengthAdjust="spacing" text-decoration="underline" textLength="419" x="379" y="265.7104">login(email: string, password: string): { token: string; user: TeacherJSON; }</text><ellipse cx="370" cy="275.3047" fill="#84BE84" rx="3" ry="3" style="stroke:#038048;stroke-width:1.0;"/><text fill="#000000" font-family="sans-serif" font-size="11" lengthAdjust="spacing" text-decoration="underline" textLength="221" x="379" y="278.5151">fromToken(token: string): TeacherJSON</text><ellipse cx="370" cy="288.1094" fill="#84BE84" rx="3" ry="3" style="stroke:#038048;stroke-width:1.0;"/><text fill="#000000" font-family="sans-serif" font-size="11" lengthAdjust="spacing" text-decoration="underline" textLength="111" x="379" y="291.3198">all(): TeacherJSON[]</text><!--MD5=[936e4edb329104f4ffbfe4c156633393]
class TeacherController--><rect codeLine="67" fill="#FEFECE" filter="url(#f1ehys2m007gi6)" height="86.4141" id="TeacherController" style="stroke:#A80036;stroke-width:1.5;" width="445" x="2238" y="211.5"/><ellipse cx="2402.25" cy="227.5" fill="#ADD1B2" rx="11" ry="11" style="stroke:#A80036;stroke-width:1.0;"/><path d="M2404.5938,223.1719 C2403.6563,222.7344 2403.0625,222.5938 2402.1875,222.5938 C2399.5625,222.5938 2397.5625,224.6719 2397.5625,227.3906 L2397.5625,228.5156 C2397.5625,231.0938 2399.6719,232.9844 2402.5625,232.9844 C2403.7813,232.9844 2404.9375,232.6875 2405.6875,232.1406 C2406.2656,231.7344 2406.5938,231.2813 2406.5938,230.8906 C2406.5938,230.4375 2406.2031,230.0469 2405.7344,230.0469 C2405.5156,230.0469 2405.3125,230.125 2405.125,230.3125 C2404.6719,230.7969 2404.6719,230.7969 2404.4844,230.8906 C2404.0625,231.1563 2403.375,231.2813 2402.6094,231.2813 C2400.5625,231.2813 2399.2656,230.1875 2399.2656,228.4844 L2399.2656,227.3906 C2399.2656,225.6094 2400.5156,224.2969 2402.25,224.2969 C2402.8281,224.2969 2403.4375,224.4531 2403.9063,224.7031 C2404.3906,224.9844 2404.5625,225.2031 2404.6563,225.6094 C2404.7188,226.0156 2404.75,226.1406 2404.8906,226.2656 C2405.0313,226.4063 2405.2656,226.5156 2405.4844,226.5156 C2405.75,226.5156 2406.0156,226.375 2406.1875,226.1563 C2406.2969,226 2406.3281,225.8125 2406.3281,225.3906 L2406.3281,223.9688 C2406.3281,223.5313 2406.3125,223.4063 2406.2188,223.25 C2406.0625,222.9844 2405.7813,222.8438 2405.4844,222.8438 C2405.1875,222.8438 2404.9844,222.9375 2404.7656,223.25 L2404.5938,223.1719 Z " fill="#000000"/><text fill="#000000" font-family="sans-serif" font-size="12" lengthAdjust="spacing" textLength="108" x="2422.75" y="231.6543">TeacherController</text><line style="stroke:#A80036;stroke-width:1.5;" x1="2239" x2="2682" y1="243.5" y2="243.5"/><line style="stroke:#A80036;stroke-width:1.5;" x1="2239" x2="2682" y1="251.5" y2="251.5"/><ellipse cx="2249" cy="262.5" fill="#84BE84" rx="3" ry="3" style="stroke:#038048;stroke-width:1.0;"/><text fill="#000000" font-family="sans-serif" font-size="11" lengthAdjust="spacing" textLength="419" x="2258" y="265.7104">login(email: string, password: string): { token: string; user: TeacherJSON; }</text><ellipse cx="2249" cy="275.3047" fill="#84BE84" rx="3" ry="3" style="stroke:#038048;stroke-width:1.0;"/><text fill="#000000" font-family="sans-serif" font-size="11" lengthAdjust="spacing" textLength="221" x="2258" y="278.5151">fromToken(token: string): TeacherJSON</text><ellipse cx="2249" cy="288.1094" fill="#84BE84" rx="3" ry="3" style="stroke:#038048;stroke-width:1.0;"/><text fill="#000000" font-family="sans-serif" font-size="11" lengthAdjust="spacing" textLength="111" x="2258" y="291.3198">all(): TeacherJSON[]</text><!--MD5=[d9b60039475ee2239d4e9092455c5a74]
class TeacherRouter--><rect codeLine="72" fill="#FEFECE" filter="url(#f1ehys2m007gi6)" height="137.6328" id="TeacherRouter" style="stroke:#A80036;stroke-width:1.5;" width="284" x="2318.5" y="7"/><ellipse cx="2412.25" cy="23" fill="#ADD1B2" rx="11" ry="11" style="stroke:#A80036;stroke-width:1.0;"/><path d="M2414.5938,18.6719 C2413.6563,18.2344 2413.0625,18.0938 2412.1875,18.0938 C2409.5625,18.0938 2407.5625,20.1719 2407.5625,22.8906 L2407.5625,24.0156 C2407.5625,26.5938 2409.6719,28.4844 2412.5625,28.4844 C2413.7813,28.4844 2414.9375,28.1875 2415.6875,27.6406 C2416.2656,27.2344 2416.5938,26.7813 2416.5938,26.3906 C2416.5938,25.9375 2416.2031,25.5469 2415.7344,25.5469 C2415.5156,25.5469 2415.3125,25.625 2415.125,25.8125 C2414.6719,26.2969 2414.6719,26.2969 2414.4844,26.3906 C2414.0625,26.6563 2413.375,26.7813 2412.6094,26.7813 C2410.5625,26.7813 2409.2656,25.6875 2409.2656,23.9844 L2409.2656,22.8906 C2409.2656,21.1094 2410.5156,19.7969 2412.25,19.7969 C2412.8281,19.7969 2413.4375,19.9531 2413.9063,20.2031 C2414.3906,20.4844 2414.5625,20.7031 2414.6563,21.1094 C2414.7188,21.5156 2414.75,21.6406 2414.8906,21.7656 C2415.0313,21.9063 2415.2656,22.0156 2415.4844,22.0156 C2415.75,22.0156 2416.0156,21.875 2416.1875,21.6563 C2416.2969,21.5 2416.3281,21.3125 2416.3281,20.8906 L2416.3281,19.4688 C2416.3281,19.0313 2416.3125,18.9063 2416.2188,18.75 C2416.0625,18.4844 2415.7813,18.3438 2415.4844,18.3438 C2415.1875,18.3438 2414.9844,18.4375 2414.7656,18.75 L2414.5938,18.6719 Z " fill="#000000"/><text fill="#000000" font-family="sans-serif" font-size="12" lengthAdjust="spacing" textLength="88" x="2432.75" y="27.1543">TeacherRouter</text><line style="stroke:#A80036;stroke-width:1.5;" x1="2319.5" x2="2601.5" y1="39" y2="39"/><ellipse cx="2329.5" cy="50" rx="3" ry="3" style="stroke:#038048;stroke-width:1.0;fill:none;"/><text fill="#000000" font-family="sans-serif" font-size="11" lengthAdjust="spacing" textLength="62" x="2338.5" y="53.2104">router: any</text><ellipse cx="2329.5" cy="62.8047" rx="3" ry="3" style="stroke:#038048;stroke-width:1.0;fill:none;"/><text fill="#000000" font-family="sans-serif" font-size="11" lengthAdjust="spacing" textLength="162" x="2338.5" y="66.0151">controller: TeacherController</text><ellipse cx="2329.5" cy="75.6094" rx="3" ry="3" style="stroke:#038048;stroke-width:1.0;fill:none;"/><text fill="#000000" font-family="sans-serif" font-size="11" lengthAdjust="spacing" textLength="133" x="2338.5" y="78.8198">router_latency: number</text><line style="stroke:#A80036;stroke-width:1.5;" x1="2319.5" x2="2601.5" y1="85.4141" y2="85.4141"/><ellipse cx="2329.5" cy="96.4141" fill="#84BE84" rx="3" ry="3" style="stroke:#038048;stroke-width:1.0;"/><text fill="#000000" font-family="sans-serif" font-size="11" lengthAdjust="spacing" textLength="227" x="2338.5" y="99.6245">login(req: any, res: any, next: any): void</text><ellipse cx="2329.5" cy="109.2188" fill="#84BE84" rx="3" ry="3" style="stroke:#038048;stroke-width:1.0;"/><text fill="#000000" font-family="sans-serif" font-size="11" lengthAdjust="spacing" textLength="213" x="2338.5" y="112.4292">all(req: any, res: any, next: any): void</text><ellipse cx="2329.5" cy="122.0234" fill="#84BE84" rx="3" ry="3" style="stroke:#038048;stroke-width:1.0;"/><text fill="#000000" font-family="sans-serif" font-size="11" lengthAdjust="spacing" textLength="258" x="2338.5" y="125.2339">fromtoken(req: any, res: any, next: any): void</text><ellipse cx="2329.5" cy="134.8281" fill="#84BE84" rx="3" ry="3" style="stroke:#038048;stroke-width:1.0;"/><text fill="#000000" font-family="sans-serif" font-size="11" lengthAdjust="spacing" textLength="56" x="2338.5" y="138.0386">init(): void</text><!--MD5=[b9b3da0b9e35a6bd10b3ba76812e099a]
class HealtRouter--><rect codeLine="81" fill="#FEFECE" filter="url(#f1ehys2m007gi6)" height="86.4141" id="HealtRouter" style="stroke:#A80036;stroke-width:1.5;" width="250" x="839.5" y="211.5"/><ellipse cx="925.25" cy="227.5" fill="#ADD1B2" rx="11" ry="11" style="stroke:#A80036;stroke-width:1.0;"/><path d="M927.5938,223.1719 C926.6563,222.7344 926.0625,222.5938 925.1875,222.5938 C922.5625,222.5938 920.5625,224.6719 920.5625,227.3906 L920.5625,228.5156 C920.5625,231.0938 922.6719,232.9844 925.5625,232.9844 C926.7813,232.9844 927.9375,232.6875 928.6875,232.1406 C929.2656,231.7344 929.5938,231.2813 929.5938,230.8906 C929.5938,230.4375 929.2031,230.0469 928.7344,230.0469 C928.5156,230.0469 928.3125,230.125 928.125,230.3125 C927.6719,230.7969 927.6719,230.7969 927.4844,230.8906 C927.0625,231.1563 926.375,231.2813 925.6094,231.2813 C923.5625,231.2813 922.2656,230.1875 922.2656,228.4844 L922.2656,227.3906 C922.2656,225.6094 923.5156,224.2969 925.25,224.2969 C925.8281,224.2969 926.4375,224.4531 926.9063,224.7031 C927.3906,224.9844 927.5625,225.2031 927.6563,225.6094 C927.7188,226.0156 927.75,226.1406 927.8906,226.2656 C928.0313,226.4063 928.2656,226.5156 928.4844,226.5156 C928.75,226.5156 929.0156,226.375 929.1875,226.1563 C929.2969,226 929.3281,225.8125 929.3281,225.3906 L929.3281,223.9688 C929.3281,223.5313 929.3125,223.4063 929.2188,223.25 C929.0625,222.9844 928.7813,222.8438 928.4844,222.8438 C928.1875,222.8438 927.9844,222.9375 927.7656,223.25 L927.5938,223.1719 Z " fill="#000000"/><text fill="#000000" font-family="sans-serif" font-size="12" lengthAdjust="spacing" textLength="70" x="945.75" y="231.6543">HealtRouter</text><line style="stroke:#A80036;stroke-width:1.5;" x1="840.5" x2="1088.5" y1="243.5" y2="243.5"/><ellipse cx="850.5" cy="254.5" rx="3" ry="3" style="stroke:#038048;stroke-width:1.0;fill:none;"/><text fill="#000000" font-family="sans-serif" font-size="11" lengthAdjust="spacing" textLength="62" x="859.5" y="257.7104">router: any</text><line style="stroke:#A80036;stroke-width:1.5;" x1="840.5" x2="1088.5" y1="264.3047" y2="264.3047"/><ellipse cx="850.5" cy="275.3047" fill="#84BE84" rx="3" ry="3" style="stroke:#038048;stroke-width:1.0;"/><text fill="#000000" font-family="sans-serif" font-size="11" lengthAdjust="spacing" textLength="224" x="859.5" y="278.5151">ping(req: any, res: any, next: any): void</text><ellipse cx="850.5" cy="288.1094" fill="#84BE84" rx="3" ry="3" style="stroke:#038048;stroke-width:1.0;"/><text fill="#000000" font-family="sans-serif" font-size="11" lengthAdjust="spacing" textLength="56" x="859.5" y="291.3198">init(): void</text><!--MD5=[64e7a81d370390ac66d73872e4f36773]
class Grade--><rect codeLine="86" fill="#FEFECE" filter="url(#f1ehys2m007gi6)" height="137.6328" id="Grade" style="stroke:#A80036;stroke-width:1.5;" width="252" x="39.5" y="364"/><ellipse cx="142.75" cy="380" fill="#ADD1B2" rx="11" ry="11" style="stroke:#A80036;stroke-width:1.0;"/><path d="M145.0938,375.6719 C144.1563,375.2344 143.5625,375.0938 142.6875,375.0938 C140.0625,375.0938 138.0625,377.1719 138.0625,379.8906 L138.0625,381.0156 C138.0625,383.5938 140.1719,385.4844 143.0625,385.4844 C144.2813,385.4844 145.4375,385.1875 146.1875,384.6406 C146.7656,384.2344 147.0938,383.7813 147.0938,383.3906 C147.0938,382.9375 146.7031,382.5469 146.2344,382.5469 C146.0156,382.5469 145.8125,382.625 145.625,382.8125 C145.1719,383.2969 145.1719,383.2969 144.9844,383.3906 C144.5625,383.6563 143.875,383.7813 143.1094,383.7813 C141.0625,383.7813 139.7656,382.6875 139.7656,380.9844 L139.7656,379.8906 C139.7656,378.1094 141.0156,376.7969 142.75,376.7969 C143.3281,376.7969 143.9375,376.9531 144.4063,377.2031 C144.8906,377.4844 145.0625,377.7031 145.1563,378.1094 C145.2188,378.5156 145.25,378.6406 145.3906,378.7656 C145.5313,378.9063 145.7656,379.0156 145.9844,379.0156 C146.25,379.0156 146.5156,378.875 146.6875,378.6563 C146.7969,378.5 146.8281,378.3125 146.8281,377.8906 L146.8281,376.4688 C146.8281,376.0313 146.8125,375.9063 146.7188,375.75 C146.5625,375.4844 146.2813,375.3438 145.9844,375.3438 C145.6875,375.3438 145.4844,375.4375 145.2656,375.75 L145.0938,375.6719 Z " fill="#000000"/><text fill="#000000" font-family="sans-serif" font-size="12" lengthAdjust="spacing" textLength="37" x="163.25" y="384.1543">Grade</text><line style="stroke:#A80036;stroke-width:1.5;" x1="40.5" x2="290.5" y1="396" y2="396"/><rect fill="none" height="6" style="stroke:#C82930;stroke-width:1.0;" width="6" x="47.5" y="404"/><text fill="#000000" font-family="sans-serif" font-size="11" lengthAdjust="spacing" text-decoration="underline" textLength="178" x="59.5" y="410.2104">multimap: Multimap&lt;any, any&gt;</text><rect fill="none" height="6" style="stroke:#C82930;stroke-width:1.0;" width="6" x="47.5" y="416.8047"/><text fill="#000000" font-family="sans-serif" font-size="11" lengthAdjust="spacing" text-decoration="underline" textLength="90" x="59.5" y="423.0151">instance: Grade</text><line style="stroke:#A80036;stroke-width:1.5;" x1="40.5" x2="290.5" y1="429.6094" y2="429.6094"/><ellipse cx="50.5" cy="440.6094" fill="#84BE84" rx="3" ry="3" style="stroke:#038048;stroke-width:1.0;"/><text fill="#000000" font-family="sans-serif" font-size="11" lengthAdjust="spacing" textLength="139" x="59.5" y="443.8198">insert(query: any): string</text><ellipse cx="50.5" cy="453.4141" fill="#84BE84" rx="3" ry="3" style="stroke:#038048;stroke-width:1.0;"/><text fill="#000000" font-family="sans-serif" font-size="11" lengthAdjust="spacing" textLength="226" x="59.5" y="456.6245">student(student_id: string): GradeJSON[]</text><ellipse cx="50.5" cy="466.2188" fill="#84BE84" rx="3" ry="3" style="stroke:#038048;stroke-width:1.0;"/><text fill="#000000" font-family="sans-serif" font-size="11" lengthAdjust="spacing" textLength="204" x="59.5" y="469.4292">group(group_id: string): GradeJSON[]</text><ellipse cx="50.5" cy="479.0234" fill="#84BE84" rx="3" ry="3" style="stroke:#038048;stroke-width:1.0;"/><text fill="#000000" font-family="sans-serif" font-size="11" lengthAdjust="spacing" textLength="67" x="59.5" y="482.2339">clear(): void</text><ellipse cx="50.5" cy="491.8281" fill="#84BE84" rx="3" ry="3" style="stroke:#038048;stroke-width:1.0;"/><text fill="#000000" font-family="sans-serif" font-size="11" lengthAdjust="spacing" text-decoration="underline" textLength="117" x="59.5" y="495.0386">getInstance(): Grade</text><!--MD5=[766c512312dcfefa915e98e04087e014]
class GradeController--><rect codeLine="95" fill="#FEFECE" filter="url(#f1ehys2m007gi6)" height="99.2188" id="GradeController" style="stroke:#A80036;stroke-width:1.5;" width="252" x="2718.5" y="205"/><ellipse cx="2792.25" cy="221" fill="#ADD1B2" rx="11" ry="11" style="stroke:#A80036;stroke-width:1.0;"/><path d="M2794.5938,216.6719 C2793.6563,216.2344 2793.0625,216.0938 2792.1875,216.0938 C2789.5625,216.0938 2787.5625,218.1719 2787.5625,220.8906 L2787.5625,222.0156 C2787.5625,224.5938 2789.6719,226.4844 2792.5625,226.4844 C2793.7813,226.4844 2794.9375,226.1875 2795.6875,225.6406 C2796.2656,225.2344 2796.5938,224.7813 2796.5938,224.3906 C2796.5938,223.9375 2796.2031,223.5469 2795.7344,223.5469 C2795.5156,223.5469 2795.3125,223.625 2795.125,223.8125 C2794.6719,224.2969 2794.6719,224.2969 2794.4844,224.3906 C2794.0625,224.6563 2793.375,224.7813 2792.6094,224.7813 C2790.5625,224.7813 2789.2656,223.6875 2789.2656,221.9844 L2789.2656,220.8906 C2789.2656,219.1094 2790.5156,217.7969 2792.25,217.7969 C2792.8281,217.7969 2793.4375,217.9531 2793.9063,218.2031 C2794.3906,218.4844 2794.5625,218.7031 2794.6563,219.1094 C2794.7188,219.5156 2794.75,219.6406 2794.8906,219.7656 C2795.0313,219.9063 2795.2656,220.0156 2795.4844,220.0156 C2795.75,220.0156 2796.0156,219.875 2796.1875,219.6563 C2796.2969,219.5 2796.3281,219.3125 2796.3281,218.8906 L2796.3281,217.4688 C2796.3281,217.0313 2796.3125,216.9063 2796.2188,216.75 C2796.0625,216.4844 2795.7813,216.3438 2795.4844,216.3438 C2795.1875,216.3438 2794.9844,216.4375 2794.7656,216.75 L2794.5938,216.6719 Z " fill="#000000"/><text fill="#000000" font-family="sans-serif" font-size="12" lengthAdjust="spacing" textLength="96" x="2812.75" y="225.1543">GradeController</text><line style="stroke:#A80036;stroke-width:1.5;" x1="2719.5" x2="2969.5" y1="237" y2="237"/><line style="stroke:#A80036;stroke-width:1.5;" x1="2719.5" x2="2969.5" y1="245" y2="245"/><ellipse cx="2729.5" cy="256" fill="#84BE84" rx="3" ry="3" style="stroke:#038048;stroke-width:1.0;"/><text fill="#000000" font-family="sans-serif" font-size="11" lengthAdjust="spacing" textLength="139" x="2738.5" y="259.2104">insert(query: any): string</text><ellipse cx="2729.5" cy="268.8047" fill="#84BE84" rx="3" ry="3" style="stroke:#038048;stroke-width:1.0;"/><text fill="#000000" font-family="sans-serif" font-size="11" lengthAdjust="spacing" textLength="204" x="2738.5" y="272.0151">group(group_id: string): GradeJSON[]</text><ellipse cx="2729.5" cy="281.6094" fill="#84BE84" rx="3" ry="3" style="stroke:#038048;stroke-width:1.0;"/><text fill="#000000" font-family="sans-serif" font-size="11" lengthAdjust="spacing" textLength="226" x="2738.5" y="284.8198">student(student_id: string): GradeJSON[]</text><ellipse cx="2729.5" cy="294.4141" fill="#84BE84" rx="3" ry="3" style="stroke:#038048;stroke-width:1.0;"/><text fill="#000000" font-family="sans-serif" font-size="11" lengthAdjust="spacing" textLength="67" x="2738.5" y="297.6245">clear(): void</text><!--MD5=[73e5316497654973d75a092376896369]
class GradeRouter--><rect codeLine="101" fill="#FEFECE" filter="url(#f1ehys2m007gi6)" height="137.6328" id="GradeRouter" style="stroke:#A80036;stroke-width:1.5;" width="269" x="2710" y="7"/><ellipse cx="2802.25" cy="23" fill="#ADD1B2" rx="11" ry="11" style="stroke:#A80036;stroke-width:1.0;"/><path d="M2804.5938,18.6719 C2803.6563,18.2344 2803.0625,18.0938 2802.1875,18.0938 C2799.5625,18.0938 2797.5625,20.1719 2797.5625,22.8906 L2797.5625,24.0156 C2797.5625,26.5938 2799.6719,28.4844 2802.5625,28.4844 C2803.7813,28.4844 2804.9375,28.1875 2805.6875,27.6406 C2806.2656,27.2344 2806.5938,26.7813 2806.5938,26.3906 C2806.5938,25.9375 2806.2031,25.5469 2805.7344,25.5469 C2805.5156,25.5469 2805.3125,25.625 2805.125,25.8125 C2804.6719,26.2969 2804.6719,26.2969 2804.4844,26.3906 C2804.0625,26.6563 2803.375,26.7813 2802.6094,26.7813 C2800.5625,26.7813 2799.2656,25.6875 2799.2656,23.9844 L2799.2656,22.8906 C2799.2656,21.1094 2800.5156,19.7969 2802.25,19.7969 C2802.8281,19.7969 2803.4375,19.9531 2803.9063,20.2031 C2804.3906,20.4844 2804.5625,20.7031 2804.6563,21.1094 C2804.7188,21.5156 2804.75,21.6406 2804.8906,21.7656 C2805.0313,21.9063 2805.2656,22.0156 2805.4844,22.0156 C2805.75,22.0156 2806.0156,21.875 2806.1875,21.6563 C2806.2969,21.5 2806.3281,21.3125 2806.3281,20.8906 L2806.3281,19.4688 C2806.3281,19.0313 2806.3125,18.9063 2806.2188,18.75 C2806.0625,18.4844 2805.7813,18.3438 2805.4844,18.3438 C2805.1875,18.3438 2804.9844,18.4375 2804.7656,18.75 L2804.5938,18.6719 Z " fill="#000000"/><text fill="#000000" font-family="sans-serif" font-size="12" lengthAdjust="spacing" textLength="76" x="2822.75" y="27.1543">GradeRouter</text><line style="stroke:#A80036;stroke-width:1.5;" x1="2711" x2="2978" y1="39" y2="39"/><ellipse cx="2721" cy="50" rx="3" ry="3" style="stroke:#038048;stroke-width:1.0;fill:none;"/><text fill="#000000" font-family="sans-serif" font-size="11" lengthAdjust="spacing" textLength="62" x="2730" y="53.2104">router: any</text><ellipse cx="2721" cy="62.8047" rx="3" ry="3" style="stroke:#038048;stroke-width:1.0;fill:none;"/><text fill="#000000" font-family="sans-serif" font-size="11" lengthAdjust="spacing" textLength="150" x="2730" y="66.0151">controller: GradeController</text><ellipse cx="2721" cy="75.6094" rx="3" ry="3" style="stroke:#038048;stroke-width:1.0;fill:none;"/><text fill="#000000" font-family="sans-serif" font-size="11" lengthAdjust="spacing" textLength="133" x="2730" y="78.8198">router_latency: number</text><line style="stroke:#A80036;stroke-width:1.5;" x1="2711" x2="2978" y1="85.4141" y2="85.4141"/><ellipse cx="2721" cy="96.4141" fill="#84BE84" rx="3" ry="3" style="stroke:#038048;stroke-width:1.0;"/><text fill="#000000" font-family="sans-serif" font-size="11" lengthAdjust="spacing" textLength="232" x="2730" y="99.6245">insert(req: any, res: any, next: any): void</text><ellipse cx="2721" cy="109.2188" fill="#84BE84" rx="3" ry="3" style="stroke:#038048;stroke-width:1.0;"/><text fill="#000000" font-family="sans-serif" font-size="11" lengthAdjust="spacing" textLength="243" x="2730" y="112.4292">student(req: any, res: any, next: any): void</text><ellipse cx="2721" cy="122.0234" fill="#84BE84" rx="3" ry="3" style="stroke:#038048;stroke-width:1.0;"/><text fill="#000000" font-family="sans-serif" font-size="11" lengthAdjust="spacing" textLength="232" x="2730" y="125.2339">group(req: any, res: any, next: any): void</text><ellipse cx="2721" cy="134.8281" fill="#84BE84" rx="3" ry="3" style="stroke:#038048;stroke-width:1.0;"/><text fill="#000000" font-family="sans-serif" font-size="11" lengthAdjust="spacing" textLength="56" x="2730" y="138.0386">init(): void</text><!--MD5=[335f4d9be48430461c68bf6d6fdba145]
class App--><rect codeLine="110" fill="#FEFECE" filter="url(#f1ehys2m007gi6)" height="86.4141" id="App" style="stroke:#A80036;stroke-width:1.5;" width="132" x="326.5" y="390"/><ellipse cx="376.25" cy="406" fill="#ADD1B2" rx="11" ry="11" style="stroke:#A80036;stroke-width:1.0;"/><path d="M378.5938,401.6719 C377.6563,401.2344 377.0625,401.0938 376.1875,401.0938 C373.5625,401.0938 371.5625,403.1719 371.5625,405.8906 L371.5625,407.0156 C371.5625,409.5938 373.6719,411.4844 376.5625,411.4844 C377.7813,411.4844 378.9375,411.1875 379.6875,410.6406 C380.2656,410.2344 380.5938,409.7813 380.5938,409.3906 C380.5938,408.9375 380.2031,408.5469 379.7344,408.5469 C379.5156,408.5469 379.3125,408.625 379.125,408.8125 C378.6719,409.2969 378.6719,409.2969 378.4844,409.3906 C378.0625,409.6563 377.375,409.7813 376.6094,409.7813 C374.5625,409.7813 373.2656,408.6875 373.2656,406.9844 L373.2656,405.8906 C373.2656,404.1094 374.5156,402.7969 376.25,402.7969 C376.8281,402.7969 377.4375,402.9531 377.9063,403.2031 C378.3906,403.4844 378.5625,403.7031 378.6563,404.1094 C378.7188,404.5156 378.75,404.6406 378.8906,404.7656 C379.0313,404.9063 379.2656,405.0156 379.4844,405.0156 C379.75,405.0156 380.0156,404.875 380.1875,404.6563 C380.2969,404.5 380.3281,404.3125 380.3281,403.8906 L380.3281,402.4688 C380.3281,402.0313 380.3125,401.9063 380.2188,401.75 C380.0625,401.4844 379.7813,401.3438 379.4844,401.3438 C379.1875,401.3438 378.9844,401.4375 378.7656,401.75 L378.5938,401.6719 Z " fill="#000000"/><text fill="#000000" font-family="sans-serif" font-size="12" lengthAdjust="spacing" textLength="24" x="396.75" y="410.1543">App</text><line style="stroke:#A80036;stroke-width:1.5;" x1="327.5" x2="457.5" y1="422" y2="422"/><ellipse cx="337.5" cy="433" rx="3" ry="3" style="stroke:#038048;stroke-width:1.0;fill:none;"/><text fill="#000000" font-family="sans-serif" font-size="11" lengthAdjust="spacing" textLength="74" x="346.5" y="436.2104">express: any</text><line style="stroke:#A80036;stroke-width:1.5;" x1="327.5" x2="457.5" y1="442.8047" y2="442.8047"/><rect fill="#F24D5C" height="6" style="stroke:#C82930;stroke-width:1.0;" width="6" x="334.5" y="450.8047"/><text fill="#000000" font-family="sans-serif" font-size="11" lengthAdjust="spacing" textLength="106" x="346.5" y="457.0151">middleware(): void</text><rect fill="#F24D5C" height="6" style="stroke:#C82930;stroke-width:1.0;" width="6" x="334.5" y="463.6094"/><text fill="#000000" font-family="sans-serif" font-size="11" lengthAdjust="spacing" textLength="75" x="346.5" y="469.8198">routes(): void</text><!--MD5=[a6d7fe83fb6a9ee955ed71aa60a1fbc7]
link CourseRouter to CourseController--><path codeLine="115" d="M1191.5,132.361 C1191.5,160.676 1191.5,194.263 1191.5,218.88 " fill="none" id="CourseRouter-to-CourseController" style="stroke:#A80036;stroke-width:1.0;"/><polygon fill="#A80036" points="1191.5,223.992,1195.5,214.992,1191.5,218.992,1187.5,214.992,1191.5,223.992" style="stroke:#A80036;stroke-width:1.0;"/><text fill="#000000" font-family="sans-serif" font-size="13" lengthAdjust="spacing" textLength="8" x="1182.625" y="212.7805">1</text><!--MD5=[6e94bf2746e6808e11b16fb56abf12a3]
link ScheduleRouter to ScheduleController--><path codeLine="116" d="M1465.5,132.361 C1465.5,160.676 1465.5,194.263 1465.5,218.88 " fill="none" id="ScheduleRouter-to-ScheduleController" style="stroke:#A80036;stroke-width:1.0;"/><polygon fill="#A80036" points="1465.5,223.992,1469.5,214.992,1465.5,218.992,1461.5,214.992,1465.5,223.992" style="stroke:#A80036;stroke-width:1.0;"/><text fill="#000000" font-family="sans-serif" font-size="13" lengthAdjust="spacing" textLength="8" x="1456.625" y="212.7805">1</text><!--MD5=[811df37afe5a44ff52d3043b6b822f53]
link SemesterRouter to SemesterController--><path codeLine="117" d="M1739.5,132.361 C1739.5,160.676 1739.5,194.263 1739.5,218.88 " fill="none" id="SemesterRouter-to-SemesterController" style="stroke:#A80036;stroke-width:1.0;"/><polygon fill="#A80036" points="1739.5,223.992,1743.5,214.992,1739.5,218.992,1735.5,214.992,1739.5,223.992" style="stroke:#A80036;stroke-width:1.0;"/><text fill="#000000" font-family="sans-serif" font-size="13" lengthAdjust="spacing" textLength="8" x="1730.625" y="212.7805">1</text><!--MD5=[a2e032bf575a03c9e4217e8925ac24fa]
link StudentRouter to StudentController--><path codeLine="118" d="M2044.5,145.24 C2044.5,163.261 2044.5,182.459 2044.5,199.605 " fill="none" id="StudentRouter-to-StudentController" style="stroke:#A80036;stroke-width:1.0;"/><polygon fill="#A80036" points="2044.5,204.857,2048.5,195.857,2044.5,199.857,2040.5,195.857,2044.5,204.857" style="stroke:#A80036;stroke-width:1.0;"/><text fill="#000000" font-family="sans-serif" font-size="13" lengthAdjust="spacing" textLength="8" x="2035.9375" y="193.8821">1</text><!--MD5=[4a805c35054c2a179f7ec75707cb6436]
link TeacherRouter to TeacherController--><path codeLine="119" d="M2460.5,145.24 C2460.5,165.634 2460.5,187.533 2460.5,206.262 " fill="none" id="TeacherRouter-to-TeacherController" style="stroke:#A80036;stroke-width:1.0;"/><polygon fill="#A80036" points="2460.5,211.457,2464.5,202.457,2460.5,206.457,2456.5,202.457,2460.5,211.457" style="stroke:#A80036;stroke-width:1.0;"/><text fill="#000000" font-family="sans-serif" font-size="13" lengthAdjust="spacing" textLength="8" x="2451.8625" y="200.4462">1</text><!--MD5=[ad6229e299f75e740653b32e3298163c]
link GradeRouter to GradeController--><path codeLine="120" d="M2844.5,145.24 C2844.5,163.261 2844.5,182.459 2844.5,199.605 " fill="none" id="GradeRouter-to-GradeController" style="stroke:#A80036;stroke-width:1.0;"/><polygon fill="#A80036" points="2844.5,204.857,2848.5,195.857,2844.5,199.857,2840.5,195.857,2844.5,204.857" style="stroke:#A80036;stroke-width:1.0;"/><text fill="#000000" font-family="sans-serif" font-size="13" lengthAdjust="spacing" textLength="8" x="2835.9375" y="193.8821">1</text><!--MD5=[a0895dddd00bb7e0f02a2a41ffd986da]
link Course to Schedule--><!--MD5=[833d58c3475bcb2478113fb49976a253]
link Schedule to Semester--><!--MD5=[74c98ce6e0011ec5da56b67bbaccc8a0]
link Course to Student--><!--MD5=[d2a4fcf44cbc1ce610344e7a055796bd]
link Student to Teacher--><!--MD5=[da03a1ffe3c37e392ffbf48fe5dfea84]
link Teacher to HealtRouter--><!--MD5=[73a4bbe8a4626e4e72b2aec588b8576d]
link Student to Grade--><!--MD5=[9113b325796c59f0204a5e4cab2b61c0]
link Grade to App--><!--MD5=[39c6d556d7b210dcf8302d17e9548c92]
@startuml
class Course {
    +{static} all(): CourseJSON[]
}
class CourseController {
    +all(): CourseJSON[]
}
class CourseRouter {
    +router: any
    +controller: CourseController
    +router_latency: number
    +all(req: any, res: any, next: any): void
    +init(): void
}
class Schedule {
    +{static} all(): ScheduleJSON[]
    +{static} groups(): string[]
}
class ScheduleController {
    +all(): ScheduleJSON[]
}
class ScheduleRouter {
    +router: any
    +controller: ScheduleController
    +router_latency: number
    +all(req: any, res: any, next: any): void
    +init(): void
}
class Semester {
    +{static} all(): SemesterJSON[]
}
class SemesterController {
    +all(): SemesterJSON[]
}
class SemesterRouter {
    +router: any
    +controller: SemesterController
    +router_latency: number
    +all(req: any, res: any, next: any): void
    +init(): void
}
class Student {
    +{static} login(email: string, password: string): validUserJSON
    +{static} fromToken(token: string): StudentJSON
    +{static} all(): StudentJSON[]
    +{static} groupStudent(): GroupStudentJSON[]
}
class StudentController {
    +login(email: string, password: string): validUserJSON
    +fromToken(token: string): StudentJSON
    +all(): StudentJSON[]
    +groupStudent(): GroupStudentJSON[]
}
class StudentRouter {
    +router: any
    +controller: StudentController
    +login(req: any, res: any, next: any): void
    +all(req: any, res: any, next: any): void
    +fromtoken(req: any, res: any, next: any): void
    +groupstudent(req: any, res: any, next: any): void
    +init(): void
}
class Teacher {
    +{static} login(email: string, password: string): { token: string; user: TeacherJSON; }
    +{static} fromToken(token: string): TeacherJSON
    +{static} all(): TeacherJSON[]
}
class TeacherController {
    +login(email: string, password: string): { token: string; user: TeacherJSON; }
    +fromToken(token: string): TeacherJSON
    +all(): TeacherJSON[]
}
class TeacherRouter {
    +router: any
    +controller: TeacherController
    +router_latency: number
    +login(req: any, res: any, next: any): void
    +all(req: any, res: any, next: any): void
    +fromtoken(req: any, res: any, next: any): void
    +init(): void
}
class HealtRouter {
    +router: any
    +ping(req: any, res: any, next: any): void
    +init(): void
}
class Grade {
    +insert(query: any): string
    +student(student_id: string): GradeJSON[]
    +group(group_id: string): GradeJSON[]
    +clear(): void
    -{static} multimap: Multimap<any, any>
    -{static} instance: Grade
    +{static} getInstance(): Grade
}
class GradeController {
    +insert(query: any): string
    +group(group_id: string): GradeJSON[]
    +student(student_id: string): GradeJSON[]
    +clear(): void
}
class GradeRouter {
    +router: any
    +controller: GradeController
    +router_latency: number
    +insert(req: any, res: any, next: any): void
    +student(req: any, res: any, next: any): void
    +group(req: any, res: any, next: any): void
    +init(): void
}
class App {
    +express: any
    -middleware(): void
    -routes(): void
}
CourseRouter - -> "1" CourseController
ScheduleRouter - -> "1" ScheduleController
SemesterRouter - -> "1" SemesterController
StudentRouter - -> "1" StudentController
TeacherRouter - -> "1" TeacherController
GradeRouter - -> "1" GradeController
@enduml

PlantUML version 1.2021.14beta6(Unknown compile time)
(GPL source distribution)
Java Runtime: Java(TM) SE Runtime Environment
JVM: Java HotSpot(TM) 64-Bit Server VM
Default Encoding: UTF-8
Language: en
Country: US
--></g></svg>