<?xml version="1.0" encoding="UTF-8" standalone="no"?><svg xmlns="http://www.w3.org/2000/svg" xmlns:xlink="http://www.w3.org/1999/xlink" contentScriptType="application/ecmascript" contentStyleType="text/css" height="916px" preserveAspectRatio="none" style="width:759px;height:916px;background:#FFFFFF;" version="1.1" viewBox="0 0 759 916" width="759px" zoomAndPan="magnify"><defs><filter height="300%" id="f21ubvn1o4n56" width="300%" x="-1" y="-1"><feGaussianBlur result="blurOut" stdDeviation="2.0"/><feColorMatrix in="blurOut" result="blurOut2" type="matrix" values="0 0 0 0 0 0 0 0 0 0 0 0 0 0 0 0 0 0 .4 0"/><feOffset dx="4.0" dy="4.0" in="blurOut2" result="blurOut3"/><feBlend in="SourceGraphic" in2="blurOut3" mode="normal"/></filter></defs><g><!--MD5=[37d9809cb88c3d7038c4b5df64e24c2e]
class Semester--><rect codeLine="4" fill="#FEFECE" filter="url(#f21ubvn1o4n56)" height="93.1309" id="Semester" style="stroke:#A80036;stroke-width:1.5;" width="108" x="455.89" y="138"/><ellipse cx="470.89" cy="157.1328" fill="#ADD1B2" rx="11" ry="11" style="stroke:#A80036;stroke-width:1.0;"/><path d="M473.3631,163.2759 Q472.7821,163.5747 472.1429,163.7241 Q471.5038,163.8735 470.7982,163.8735 Q468.2914,163.8735 466.9715,162.2217 Q465.6517,160.5698 465.6517,157.4487 Q465.6517,154.3193 466.9715,152.6675 Q468.2914,151.0156 470.7982,151.0156 Q471.5038,151.0156 472.1512,151.165 Q472.7987,151.3145 473.3631,151.6133 L473.3631,154.3359 Q472.7323,153.7549 472.1388,153.4851 Q471.5453,153.2153 470.9144,153.2153 Q469.5697,153.2153 468.8849,154.282 Q468.2001,155.3486 468.2001,157.4487 Q468.2001,159.5405 468.8849,160.6072 Q469.5697,161.6738 470.9144,161.6738 Q471.5453,161.6738 472.1388,161.4041 Q472.7323,161.1343 473.3631,160.5532 Z " fill="#000000"/><text fill="#000000" font-family="sans-serif" font-size="12" font-style="italic" lengthAdjust="spacing" textLength="80" x="482.89" y="154.6016">«Planification»</text><text fill="#000000" font-family="sans-serif" font-size="12" lengthAdjust="spacing" textLength="53" x="496.39" y="168.7344">Semester</text><line style="stroke:#A80036;stroke-width:1.5;" x1="456.89" x2="562.89" y1="176.2656" y2="176.2656"/><text fill="#000000" font-family="sans-serif" font-size="11" lengthAdjust="spacing" textLength="70" x="461.89" y="190.9004">name: string;</text><text fill="#000000" font-family="sans-serif" font-size="11" lengthAdjust="spacing" textLength="66" x="461.89" y="203.8555">start: string;</text><text fill="#000000" font-family="sans-serif" font-size="11" lengthAdjust="spacing" textLength="61" x="461.89" y="216.8105">end: string;</text><line style="stroke:#A80036;stroke-width:1.5;" x1="456.89" x2="562.89" y1="223.1309" y2="223.1309"/><!--MD5=[3fd616f346a44cd59a91eb10b19e157c]
class User--><rect codeLine="9" fill="#FEFECE" filter="url(#f21ubvn1o4n56)" height="93.1309" id="User" style="stroke:#A80036;stroke-width:1.5;" width="110" x="239.89" y="334"/><ellipse cx="275.14" cy="353.1328" fill="#ADD1B2" rx="11" ry="11" style="stroke:#A80036;stroke-width:1.0;"/><path d="M277.6131,359.2759 Q277.0321,359.5747 276.3929,359.7241 Q275.7538,359.8735 275.0482,359.8735 Q272.5414,359.8735 271.2215,358.2217 Q269.9017,356.5698 269.9017,353.4487 Q269.9017,350.3193 271.2215,348.6675 Q272.5414,347.0156 275.0482,347.0156 Q275.7538,347.0156 276.4012,347.165 Q277.0487,347.3145 277.6131,347.6133 L277.6131,350.3359 Q276.9823,349.7549 276.3888,349.4851 Q275.7953,349.2153 275.1644,349.2153 Q273.8197,349.2153 273.1349,350.282 Q272.4501,351.3486 272.4501,353.4487 Q272.4501,355.5405 273.1349,356.6072 Q273.8197,357.6738 275.1644,357.6738 Q275.7953,357.6738 276.3888,357.4041 Q276.9823,357.1343 277.6131,356.5532 Z " fill="#000000"/><text fill="#000000" font-family="sans-serif" font-size="12" font-style="italic" lengthAdjust="spacing" textLength="37" x="291.64" y="350.6016">«Role»</text><text fill="#000000" font-family="sans-serif" font-size="12" lengthAdjust="spacing" textLength="26" x="297.14" y="364.7344">User</text><line style="stroke:#A80036;stroke-width:1.5;" x1="240.89" x2="348.89" y1="372.2656" y2="372.2656"/><text fill="#000000" font-family="sans-serif" font-size="11" lengthAdjust="spacing" textLength="98" x="245.89" y="386.9004">first_name: string;</text><text fill="#000000" font-family="sans-serif" font-size="11" lengthAdjust="spacing" textLength="95" x="245.89" y="399.8555">last_name: string;</text><text fill="#000000" font-family="sans-serif" font-size="11" lengthAdjust="spacing" textLength="51" x="245.89" y="412.8105">id: string;</text><line style="stroke:#A80036;stroke-width:1.5;" x1="240.89" x2="348.89" y1="419.1309" y2="419.1309"/><!--MD5=[41314a0efc36828092cff9ebad2fcafd]
class Group--><rect codeLine="15" fill="#FEFECE" filter="url(#f21ubvn1o4n56)" height="54.2656" id="Group" style="stroke:#A80036;stroke-width:1.5;" width="80" x="304.89" y="848"/><ellipse cx="319.89" cy="867.1328" fill="#ADD1B2" rx="11" ry="11" style="stroke:#A80036;stroke-width:1.0;"/><path d="M322.3631,873.2759 Q321.7821,873.5747 321.1429,873.7241 Q320.5038,873.8735 319.7982,873.8735 Q317.2914,873.8735 315.9715,872.2217 Q314.6517,870.5698 314.6517,867.4487 Q314.6517,864.3193 315.9715,862.6675 Q317.2914,861.0156 319.7982,861.0156 Q320.5038,861.0156 321.1512,861.165 Q321.7987,861.3145 322.3631,861.6133 L322.3631,864.3359 Q321.7323,863.7549 321.1388,863.4851 Q320.5453,863.2153 319.9144,863.2153 Q318.5697,863.2153 317.8849,864.282 Q317.2001,865.3486 317.2001,867.4487 Q317.2001,869.5405 317.8849,870.6072 Q318.5697,871.6738 319.9144,871.6738 Q320.5453,871.6738 321.1388,871.4041 Q321.7323,871.1343 322.3631,870.5532 Z " fill="#000000"/><text fill="#000000" font-family="sans-serif" font-size="12" font-style="italic" lengthAdjust="spacing" textLength="52" x="331.89" y="864.6016">«Service»</text><text fill="#000000" font-family="sans-serif" font-size="12" lengthAdjust="spacing" textLength="36" x="339.89" y="878.7344">Group</text><line style="stroke:#A80036;stroke-width:1.5;" x1="305.89" x2="383.89" y1="886.2656" y2="886.2656"/><line style="stroke:#A80036;stroke-width:1.5;" x1="305.89" x2="383.89" y1="894.2656" y2="894.2656"/><!--MD5=[c680266cf9e454ca06c2d1bb8b683e6b]
class Schedule--><rect codeLine="17" fill="#FEFECE" filter="url(#f21ubvn1o4n56)" height="144.9512" id="Schedule" style="stroke:#A80036;stroke-width:1.5;" width="106" x="456.89" y="308"/><ellipse cx="482.24" cy="327.1328" fill="#ADD1B2" rx="11" ry="11" style="stroke:#A80036;stroke-width:1.0;"/><path d="M484.7131,333.2759 Q484.1321,333.5747 483.4929,333.7241 Q482.8538,333.8735 482.1482,333.8735 Q479.6414,333.8735 478.3215,332.2217 Q477.0017,330.5698 477.0017,327.4487 Q477.0017,324.3193 478.3215,322.6675 Q479.6414,321.0156 482.1482,321.0156 Q482.8538,321.0156 483.5012,321.165 Q484.1487,321.3145 484.7131,321.6133 L484.7131,324.3359 Q484.0823,323.7549 483.4888,323.4851 Q482.8953,323.2153 482.2644,323.2153 Q480.9197,323.2153 480.2349,324.282 Q479.5501,325.3486 479.5501,327.4487 Q479.5501,329.5405 480.2349,330.6072 Q480.9197,331.6738 482.2644,331.6738 Q482.8953,331.6738 483.4888,331.4041 Q484.0823,331.1343 484.7131,330.5532 Z " fill="#000000"/><text fill="#000000" font-family="sans-serif" font-size="12" font-style="italic" lengthAdjust="spacing" textLength="55" x="496.54" y="324.6016">«Horaire»</text><text fill="#000000" font-family="sans-serif" font-size="12" lengthAdjust="spacing" textLength="51" x="498.54" y="338.7344">Schedule</text><line style="stroke:#A80036;stroke-width:1.5;" x1="457.89" x2="561.89" y1="346.2656" y2="346.2656"/><text fill="#000000" font-family="sans-serif" font-size="11" lengthAdjust="spacing" textLength="90" x="462.89" y="360.9004">group_id: string;</text><text fill="#000000" font-family="sans-serif" font-size="11" lengthAdjust="spacing" textLength="60" x="462.89" y="373.8555">day: string;</text><text fill="#000000" font-family="sans-serif" font-size="11" lengthAdjust="spacing" textLength="73" x="462.89" y="386.8105">hours: string;</text><text fill="#000000" font-family="sans-serif" font-size="11" lengthAdjust="spacing" textLength="79" x="462.89" y="399.7656">activity: string;</text><text fill="#000000" font-family="sans-serif" font-size="11" lengthAdjust="spacing" textLength="68" x="462.89" y="412.7207">mode: string</text><text fill="#000000" font-family="sans-serif" font-size="11" lengthAdjust="spacing" textLength="63" x="462.89" y="425.6758">local: string</text><text fill="#000000" font-family="sans-serif" font-size="11" lengthAdjust="spacing" textLength="94" x="462.89" y="438.6309">teacher_id: string</text><line style="stroke:#A80036;stroke-width:1.5;" x1="457.89" x2="561.89" y1="444.9512" y2="444.9512"/><!--MD5=[4066b0363c5a91ff3b6e03e0428953a9]
class Course--><rect codeLine="27" fill="#FEFECE" filter="url(#f21ubvn1o4n56)" height="80.1758" id="Course" style="stroke:#A80036;stroke-width:1.5;" width="152" x="378.89" y="691"/><ellipse cx="393.89" cy="710.1328" fill="#ADD1B2" rx="11" ry="11" style="stroke:#A80036;stroke-width:1.0;"/><path d="M396.3631,716.2759 Q395.7821,716.5747 395.1429,716.7241 Q394.5038,716.8735 393.7982,716.8735 Q391.2914,716.8735 389.9715,715.2217 Q388.6517,713.5698 388.6517,710.4487 Q388.6517,707.3193 389.9715,705.6675 Q391.2914,704.0156 393.7982,704.0156 Q394.5038,704.0156 395.1512,704.165 Q395.7987,704.3145 396.3631,704.6133 L396.3631,707.3359 Q395.7323,706.7549 395.1388,706.4851 Q394.5453,706.2153 393.9144,706.2153 Q392.5697,706.2153 391.8849,707.282 Q391.2001,708.3486 391.2001,710.4487 Q391.2001,712.5405 391.8849,713.6072 Q392.5697,714.6738 393.9144,714.6738 Q394.5453,714.6738 395.1388,714.4041 Q395.7323,714.1343 396.3631,713.5532 Z " fill="#000000"/><text fill="#000000" font-family="sans-serif" font-size="12" font-style="italic" lengthAdjust="spacing" textLength="124" x="405.89" y="707.6016">«Description d'entite»</text><text fill="#000000" font-family="sans-serif" font-size="12" lengthAdjust="spacing" textLength="40" x="447.89" y="721.7344">Course</text><line style="stroke:#A80036;stroke-width:1.5;" x1="379.89" x2="529.89" y1="729.2656" y2="729.2656"/><text fill="#000000" font-family="sans-serif" font-size="11" lengthAdjust="spacing" textLength="51" x="384.89" y="743.9004">id: string;</text><text fill="#000000" font-family="sans-serif" font-size="11" lengthAdjust="spacing" textLength="63" x="384.89" y="756.8555">titre: string;</text><line style="stroke:#A80036;stroke-width:1.5;" x1="379.89" x2="529.89" y1="763.1758" y2="763.1758"/><!--MD5=[d6181cb537bdc20c0a3007a98a56832d]
class Student--><rect codeLine="32" fill="#FEFECE" filter="url(#f21ubvn1o4n56)" height="54.2656" id="Student" style="stroke:#A80036;stroke-width:1.5;" width="75" x="81.39" y="545"/><ellipse cx="96.39" cy="564.1328" fill="#ADD1B2" rx="11" ry="11" style="stroke:#A80036;stroke-width:1.0;"/><path d="M98.8631,570.2759 Q98.2821,570.5747 97.6429,570.7241 Q97.0038,570.8735 96.2982,570.8735 Q93.7914,570.8735 92.4715,569.2217 Q91.1517,567.5698 91.1517,564.4487 Q91.1517,561.3193 92.4715,559.6675 Q93.7914,558.0156 96.2982,558.0156 Q97.0038,558.0156 97.6512,558.165 Q98.2987,558.3145 98.8631,558.6133 L98.8631,561.3359 Q98.2323,560.7549 97.6388,560.4851 Q97.0453,560.2153 96.4144,560.2153 Q95.0697,560.2153 94.3849,561.282 Q93.7001,562.3486 93.7001,564.4487 Q93.7001,566.5405 94.3849,567.6072 Q95.0697,568.6738 96.4144,568.6738 Q97.0453,568.6738 97.6388,568.4041 Q98.2323,568.1343 98.8631,567.5532 Z " fill="#000000"/><text fill="#000000" font-family="sans-serif" font-size="12" font-style="italic" lengthAdjust="spacing" textLength="37" x="113.39" y="561.6016">«Role»</text><text fill="#000000" font-family="sans-serif" font-size="12" lengthAdjust="spacing" textLength="43" x="110.39" y="575.7344">Student</text><line style="stroke:#A80036;stroke-width:1.5;" x1="82.39" x2="155.39" y1="583.2656" y2="583.2656"/><line style="stroke:#A80036;stroke-width:1.5;" x1="82.39" x2="155.39" y1="591.2656" y2="591.2656"/><!--MD5=[61a83f88cb8b7d3a80bc8c481f3736bf]
class Teacher--><rect codeLine="35" fill="#FEFECE" filter="url(#f21ubvn1o4n56)" height="54.2656" id="Teacher" style="stroke:#A80036;stroke-width:1.5;" width="79" x="392.39" y="545"/><ellipse cx="407.39" cy="564.1328" fill="#ADD1B2" rx="11" ry="11" style="stroke:#A80036;stroke-width:1.0;"/><path d="M409.8631,570.2759 Q409.2821,570.5747 408.6429,570.7241 Q408.0038,570.8735 407.2982,570.8735 Q404.7914,570.8735 403.4715,569.2217 Q402.1517,567.5698 402.1517,564.4487 Q402.1517,561.3193 403.4715,559.6675 Q404.7914,558.0156 407.2982,558.0156 Q408.0038,558.0156 408.6512,558.165 Q409.2987,558.3145 409.8631,558.6133 L409.8631,561.3359 Q409.2323,560.7549 408.6388,560.4851 Q408.0453,560.2153 407.4144,560.2153 Q406.0697,560.2153 405.3849,561.282 Q404.7001,562.3486 404.7001,564.4487 Q404.7001,566.5405 405.3849,567.6072 Q406.0697,568.6738 407.4144,568.6738 Q408.0453,568.6738 408.6388,568.4041 Q409.2323,568.1343 409.8631,567.5532 Z " fill="#000000"/><text fill="#000000" font-family="sans-serif" font-size="12" font-style="italic" lengthAdjust="spacing" textLength="37" x="426.39" y="561.6016">«Role»</text><text fill="#000000" font-family="sans-serif" font-size="12" lengthAdjust="spacing" textLength="47" x="421.39" y="575.7344">Teacher</text><line style="stroke:#A80036;stroke-width:1.5;" x1="393.39" x2="470.39" y1="583.2656" y2="583.2656"/><line style="stroke:#A80036;stroke-width:1.5;" x1="393.39" x2="470.39" y1="591.2656" y2="591.2656"/><!--MD5=[64e7a81d370390ac66d73872e4f36773]
class Grade--><rect codeLine="39" fill="#FEFECE" filter="url(#f21ubvn1o4n56)" height="119.041" id="Grade" style="stroke:#A80036;stroke-width:1.5;" width="140" x="64.89" y="321"/><ellipse cx="79.89" cy="340.1328" fill="#ADD1B2" rx="11" ry="11" style="stroke:#A80036;stroke-width:1.0;"/><path d="M82.3631,346.2759 Q81.7821,346.5747 81.1429,346.7241 Q80.5038,346.8735 79.7982,346.8735 Q77.2914,346.8735 75.9715,345.2217 Q74.6517,343.5698 74.6517,340.4487 Q74.6517,337.3193 75.9715,335.6675 Q77.2914,334.0156 79.7982,334.0156 Q80.5038,334.0156 81.1512,334.165 Q81.7987,334.3145 82.3631,334.6133 L82.3631,337.3359 Q81.7323,336.7549 81.1388,336.4851 Q80.5453,336.2153 79.9144,336.2153 Q78.5697,336.2153 77.8849,337.282 Q77.2001,338.3486 77.2001,340.4487 Q77.2001,342.5405 77.8849,343.6072 Q78.5697,344.6738 79.9144,344.6738 Q80.5453,344.6738 81.1388,344.4041 Q81.7323,344.1343 82.3631,343.5532 Z " fill="#000000"/><text fill="#000000" font-family="sans-serif" font-size="12" font-style="italic" lengthAdjust="spacing" textLength="112" x="91.89" y="337.6016">«Document légaux»</text><text fill="#000000" font-family="sans-serif" font-size="12" lengthAdjust="spacing" textLength="36" x="129.89" y="351.7344">Grade</text><line style="stroke:#A80036;stroke-width:1.5;" x1="65.89" x2="203.89" y1="359.2656" y2="359.2656"/><text fill="#000000" font-family="sans-serif" font-size="11" lengthAdjust="spacing" textLength="98" x="70.89" y="373.9004">student_id: string;</text><text fill="#000000" font-family="sans-serif" font-size="11" lengthAdjust="spacing" textLength="90" x="70.89" y="386.8555">group_id: string;</text><text fill="#000000" font-family="sans-serif" font-size="11" lengthAdjust="spacing" textLength="64" x="70.89" y="399.8105">type: string;</text><text fill="#000000" font-family="sans-serif" font-size="11" lengthAdjust="spacing" textLength="86" x="70.89" y="412.7656">type_id: integer;</text><text fill="#000000" font-family="sans-serif" font-size="11" lengthAdjust="spacing" textLength="75" x="70.89" y="425.7207">note: number;</text><line style="stroke:#A80036;stroke-width:1.5;" x1="65.89" x2="203.89" y1="432.041" y2="432.041"/><!--MD5=[9f93fc4de6aba39e63ecc8b5110a2944]
class University--><rect codeLine="46" fill="#FEFECE" filter="url(#f21ubvn1o4n56)" height="54.2656" id="University" style="stroke:#A80036;stroke-width:1.5;" width="167" x="319.39" y="7"/><ellipse cx="334.39" cy="26.1328" fill="#ADD1B2" rx="11" ry="11" style="stroke:#A80036;stroke-width:1.0;"/><path d="M336.8631,32.2759 Q336.2821,32.5747 335.6429,32.7241 Q335.0038,32.8735 334.2982,32.8735 Q331.7914,32.8735 330.4715,31.2217 Q329.1517,29.5698 329.1517,26.4487 Q329.1517,23.3193 330.4715,21.6675 Q331.7914,20.0156 334.2982,20.0156 Q335.0038,20.0156 335.6512,20.165 Q336.2987,20.3145 336.8631,20.6133 L336.8631,23.3359 Q336.2323,22.7549 335.6388,22.4851 Q335.0453,22.2153 334.4144,22.2153 Q333.0697,22.2153 332.3849,23.282 Q331.7001,24.3486 331.7001,26.4487 Q331.7001,28.5405 332.3849,29.6072 Q333.0697,30.6738 334.4144,30.6738 Q335.0453,30.6738 335.6388,30.4041 Q336.2323,30.1343 336.8631,29.5532 Z " fill="#000000"/><text fill="#000000" font-family="sans-serif" font-size="12" font-style="italic" lengthAdjust="spacing" textLength="139" x="346.39" y="23.6016">«Facultatif,Organisation»</text><text fill="#000000" font-family="sans-serif" font-size="12" lengthAdjust="spacing" textLength="55" x="388.39" y="37.7344">University</text><line style="stroke:#A80036;stroke-width:1.5;" x1="320.39" x2="485.39" y1="45.2656" y2="45.2656"/><line style="stroke:#A80036;stroke-width:1.5;" x1="320.39" x2="485.39" y1="53.2656" y2="53.2656"/><!--MD5=[29fe19ce294944fa80f389ae9bd987a4]
reverse link User to Student--><path d="M271.34,445.82 C260.28,469.66 245.2,495.59 225.89,515 C206.45,534.55 178.75,548.79 156.4,558.02 " fill="none" id="User-backto-Student" style="stroke:#A80036;stroke-width:1.0;"/><polygon fill="none" points="264.99,442.87,279.36,427.3,277.83,448.44,264.99,442.87" style="stroke:#A80036;stroke-width:1.0;"/><!--MD5=[d87c224b488f6c9759d0a77cb4053101]
reverse link User to Teacher--><path d="M329.54,444.38 C343.22,467.36 359.75,493.08 376.89,515 C384.95,525.31 394.7,535.76 403.74,544.8 " fill="none" id="User-backto-Teacher" style="stroke:#A80036;stroke-width:1.0;"/><polygon fill="none" points="323.47,447.86,319.45,427.06,335.57,440.82,323.47,447.86" style="stroke:#A80036;stroke-width:1.0;"/><!--MD5=[ef3d4ed75fd70af56cb5183963ffa490]
link Course to Group--><path codeLine="48" d="M424.54,771.18 C405.59,795.64 381.72,826.46 365.07,847.95 " fill="none" id="Course-Group" style="stroke:#A80036;stroke-width:1.0;"/><polygon fill="#000000" points="401.828,813.608,409.6906,808.2572,405.0438,804.6576,401.828,813.608" style="stroke:#000000;stroke-width:1.0;"/><text fill="#000000" font-family="sans-serif" font-size="13" lengthAdjust="spacing" textLength="36" x="413.89" y="814.5684">décrit</text><text fill="#000000" font-family="sans-serif" font-size="13" lengthAdjust="spacing" textLength="8" x="410.8508" y="791.6565">1</text><text fill="#000000" font-family="sans-serif" font-size="13" lengthAdjust="spacing" textLength="6" x="363.2576" y="837.1023">*</text><!--MD5=[a9d06c442cf2e60568c5a2d1df8ac3d4]
link Schedule to Group--><path codeLine="49" d="M563.06,392.67 C627.23,409.31 724.28,446.3 704.89,515 C668.64,643.45 645.25,679.7 547.89,771 C500.18,815.74 429.32,845.68 385.18,861.26 " fill="none" id="Schedule-Group" style="stroke:#A80036;stroke-width:1.0;"/><polygon fill="#000000" points="669.6645,640.4807,663.7068,647.894,669.202,649.9801,669.6645,640.4807" style="stroke:#000000;stroke-width:1.0;"/><text fill="#000000" font-family="sans-serif" font-size="13" lengthAdjust="spacing" textLength="75" x="676.89" y="650.0684">Offert selon</text><text fill="#000000" font-family="sans-serif" font-size="13" lengthAdjust="spacing" textLength="6" x="570.9589" y="390.9203">*</text><text fill="#000000" font-family="sans-serif" font-size="13" lengthAdjust="spacing" textLength="8" x="392.7923" y="855.1816">1</text><!--MD5=[db026a837c735e23d1fd3644146fd6a5]
link Schedule to Teacher--><path codeLine="50" d="M471.14,453.09 C466.39,463.01 461.83,473.16 457.89,483 C449.79,503.27 442.91,527.04 438.27,544.77 " fill="none" id="Schedule-Teacher" style="stroke:#A80036;stroke-width:1.0;"/><polygon fill="#000000" points="464.5775,494.4486,458.7583,501.9712,464.2913,503.9549,464.5775,494.4486" style="stroke:#000000;stroke-width:1.0;"/><text fill="#000000" font-family="sans-serif" font-size="13" lengthAdjust="spacing" textLength="228" x="471.89" y="504.0684">Enseigne dans un group cours selon</text><text fill="#000000" font-family="sans-serif" font-size="13" lengthAdjust="spacing" textLength="6" x="461.0302" y="473.5599">*</text><text fill="#000000" font-family="sans-serif" font-size="13" lengthAdjust="spacing" textLength="8" x="430.8204" y="534.3122">1</text><!--MD5=[ad86e55f2558bd5feae5bc127ed957a1]
link Semester to Schedule--><path codeLine="51" d="M509.89,231.48 C509.89,254.22 509.89,282.2 509.89,307.69 " fill="none" id="Semester-Schedule" style="stroke:#A80036;stroke-width:1.0;"/><polygon fill="#000000" points="514.89,274.6553,517.8289,265.6102,511.9511,265.6102,514.89,274.6553" style="stroke:#000000;stroke-width:1.0;"/><text fill="#000000" font-family="sans-serif" font-size="13" lengthAdjust="spacing" textLength="183" x="523.89" y="274.5684">Offre des groupe cours selon</text><text fill="#000000" font-family="sans-serif" font-size="13" lengthAdjust="spacing" textLength="8" x="501.3275" y="251.7222">1</text><text fill="#000000" font-family="sans-serif" font-size="13" lengthAdjust="spacing" textLength="6" x="503.5947" y="297.3705">*</text><!--MD5=[63bb888ead92909d30749399c6b1f1cd]
link Grade to Student--><path codeLine="52" d="M95.31,440.25 C88.12,453.75 81.7,468.43 77.89,483 C74.29,496.76 73.47,501.48 77.89,515 C81.38,525.65 87.74,535.95 94.43,544.76 " fill="none" id="Grade-Student" style="stroke:#A80036;stroke-width:1.0;"/><text fill="#000000" font-family="sans-serif" font-size="13" lengthAdjust="spacing" textLength="77" x="111.39" y="496.5684">effectue des</text><polygon fill="#000000" points="83.9321,501.966,80.9171,510.986,86.7948,511.0355,83.9321,501.966" style="stroke:#000000;stroke-width:1.0;"/><text fill="#000000" font-family="sans-serif" font-size="13" lengthAdjust="spacing" textLength="129" x="91.89" y="511.8789">travaux pour obtenir</text><text fill="#000000" font-family="sans-serif" font-size="13" lengthAdjust="spacing" textLength="6" x="84.3867" y="460.6097">*</text><text fill="#000000" font-family="sans-serif" font-size="13" lengthAdjust="spacing" textLength="8" x="89.6986" y="534.2999">1</text><!--MD5=[575915f953b4252a6e2b0c75b341eb0c]
link Grade to Group--><path codeLine="53" d="M198.23,440.03 C210,453.27 221.28,467.9 229.89,483 C270.72,554.59 258.65,581.93 281.89,661 C301.69,728.34 325.18,807.59 337.11,847.78 " fill="none" id="Grade-Group" style="stroke:#A80036;stroke-width:1.0;"/><text fill="#000000" font-family="sans-serif" font-size="13" lengthAdjust="spacing" textLength="142" x="292.39" y="642.5684">demande la réalisation</text><polygon fill="#000000" points="286.2779,648.2328,286.4122,657.7424,291.9762,655.8473,286.2779,648.2328" style="stroke:#000000;stroke-width:1.0;"/><text fill="#000000" font-family="sans-serif" font-size="13" lengthAdjust="spacing" textLength="148" x="295.89" y="657.8789">de travaux pour obtenir</text><text fill="#000000" font-family="sans-serif" font-size="13" lengthAdjust="spacing" textLength="6" x="199.5839" y="460.7841">*</text><text fill="#000000" font-family="sans-serif" font-size="13" lengthAdjust="spacing" textLength="8" x="326.3859" y="837.3246">1</text><!--MD5=[c23d87697d59a5625890325406da6336]
link Teacher to Course--><path codeLine="54" d="M443.83,599.24 C447.45,608.46 450.98,619.01 452.89,629 C456.75,649.15 457.5,671.98 457.18,690.83 " fill="none" id="Teacher-Course" style="stroke:#A80036;stroke-width:1.0;"/><polygon fill="#000000" points="462.6112,650.103,464.2148,640.7286,458.3984,641.5764,462.6112,650.103" style="stroke:#000000;stroke-width:1.0;"/><text fill="#000000" font-family="sans-serif" font-size="13" lengthAdjust="spacing" textLength="118" x="470.89" y="650.0684">est responsable de</text><text fill="#000000" font-family="sans-serif" font-size="13" lengthAdjust="spacing" textLength="8" x="437.6661" y="619.8472">1</text><text fill="#000000" font-family="sans-serif" font-size="13" lengthAdjust="spacing" textLength="6" x="451.058" y="680.2167">*</text><!--MD5=[41a1d172a390896d55d4895443325c3c]
link Student to Group--><path codeLine="55" d="M121.96,599.01 C127.88,639.52 144.11,718.49 184.89,771 C216.4,811.57 268.67,840.86 304.85,857.6 " fill="none" id="Student-Group" style="stroke:#A80036;stroke-width:1.0;"/><polygon fill="#000000" points="192.7772,735.2375,189.9537,726.1557,185.1548,729.5497,192.7772,735.2375" style="stroke:#000000;stroke-width:1.0;"/><text fill="#000000" font-family="sans-serif" font-size="13" lengthAdjust="spacing" textLength="63" x="198.89" y="736.0684">est inscrit</text><text fill="#000000" font-family="sans-serif" font-size="13" lengthAdjust="spacing" textLength="8" x="113.7333" y="619.9956">1</text><text fill="#000000" font-family="sans-serif" font-size="13" lengthAdjust="spacing" textLength="6" x="290.9145" y="850.5816">*</text><!--MD5=[f8a8fe4298180942a42be713e5ee4354]
link University to Teacher--><path codeLine="56" d="M404.31,61.22 C409.24,152.22 425.56,453.9 430.48,544.84 " fill="none" id="University-Teacher" style="stroke:#A80036;stroke-width:1.0;"/><polygon fill="#000000" points="421.1602,274.648,423.6061,265.4573,417.7368,265.7749,421.1602,274.648" style="stroke:#000000;stroke-width:1.0;"/><text fill="#000000" font-family="sans-serif" font-size="13" lengthAdjust="spacing" textLength="50" x="429.89" y="274.5684">emploie</text><text fill="#000000" font-family="sans-serif" font-size="13" lengthAdjust="spacing" textLength="8" x="395.7134" y="81.8226">1</text><text fill="#000000" font-family="sans-serif" font-size="13" lengthAdjust="spacing" textLength="6" x="423.4602" y="534.3984">*</text><!--MD5=[cccb401858a704bc77648edc8157e2b7]
link University to Student--><path codeLine="57" d="M340.61,61.13 C255.97,100.49 108.14,183.84 46.89,308 C6,390.89 20.15,435.26 66.89,515 C73.13,525.64 81.7,535.95 90.08,544.75 " fill="none" id="University-Student" style="stroke:#A80036;stroke-width:1.0;"/><polygon fill="#000000" points="75.5901,274.0949,82.3602,267.4153,77.1411,264.7117,75.5901,274.0949" style="stroke:#000000;stroke-width:1.0;"/><text fill="#000000" font-family="sans-serif" font-size="13" lengthAdjust="spacing" textLength="113" x="86.89" y="274.5684">Offre des services</text><text fill="#000000" font-family="sans-serif" font-size="13" lengthAdjust="spacing" textLength="8" x="317.2827" y="81.7117">1</text><text fill="#000000" font-family="sans-serif" font-size="13" lengthAdjust="spacing" textLength="6" x="76.7239" y="534.2876">*</text><!--MD5=[e362cc96273ade0d1f4a5d16440b84cb]
link University to Semester--><path codeLine="58" d="M421.78,61.21 C437.01,82.36 458.82,112.62 476.93,137.75 " fill="none" id="University-Semester" style="stroke:#A80036;stroke-width:1.0;"/><polygon fill="#000000" points="461.813,103.7119,458.9097,94.6553,454.1408,98.0915,461.813,103.7119" style="stroke:#000000;stroke-width:1.0;"/><text fill="#000000" font-family="sans-serif" font-size="13" lengthAdjust="spacing" textLength="28" x="467.89" y="104.5684">Gère</text><text fill="#000000" font-family="sans-serif" font-size="13" lengthAdjust="spacing" textLength="8" x="417.2233" y="81.8102">1</text><text fill="#000000" font-family="sans-serif" font-size="13" lengthAdjust="spacing" textLength="6" x="465.6484" y="127.3636">*</text><!--MD5=[09012806a3252cfd8f0ef6552a12ff4e]
@startuml MDD



class Semester <<Planification>>  {
  name: string;
  start: string;
  end: string;
}
class User <<Role>> {
  first_name: string;
  last_name: string;
  id: string;
}

class Group <<Service>>

class Schedule <<Horaire>> {
  group_id: string;
  day: string;
  hours: string;
  activity: string;
  mode: string
  local: string
  teacher_id: string
}

 class Course <<Description d'entite>> {
  id: string;
  titre: string;
}

class Student <<Role>> extends User {
}

class Teacher <<Role>> extends User {
  
}

class Grade <<Document légaux>> {
  student_id: string;
  group_id: string;
  type: string;
  type_id: integer;
  note: number;
}
class University <<Facultatif,Organisation>>

Course "1" - - "*" Group : décrit >
Schedule "*" - - "1" Group : Offert selon <
Schedule "*" - - "1" Teacher : Enseigne dans un group cours selon <
Semester "1" - - "*" Schedule: Offre des groupe cours selon >
Grade "*" - -  "1" Student: effectue des\n travaux pour obtenir <
Grade "*" - - "1" Group : demande la réalisation\nde travaux pour obtenir <
Teacher "1" - - "*" Course: est responsable de > 
Student "1" - - "*" Group : est inscrit >
University "1" -r- "*" Teacher: emploie >
University "1" -r- "*" Student: Offre des services >
University "1" -d- "*" Semester: Gère >

@enduml

PlantUML version 1.2021.7(Sun May 23 08:40:07 EDT 2021)
(GPL source distribution)
Java Runtime: OpenJDK Runtime Environment
JVM: OpenJDK 64-Bit Server VM
Default Encoding: UTF-8
Language: fr
Country: CA
--></g></svg>